<svg xmlns="http://www.w3.org/2000/svg" viewBox="95 100 810 810" width="1000" height="1000" role="img" aria-label="Duas curvas em S, uma que se apaga e outra que ocupa o seu lugar"><rect x="-200" y="-200" width="1400" height="1400" fill="#FFF"/>
<path d="M280.0,-140.0 C279.6,-138.4 278.5,-133.8 277.7,-130.7 C276.9,-127.6 276.2,-124.4 275.4,-121.3 C274.7,-118.2 273.9,-115.1 273.1,-112.0 C272.4,-108.9 271.6,-105.8 270.9,-102.7 C270.1,-99.6 269.4,-96.5 268.7,-93.4 C267.9,-90.3 267.2,-87.2 266.5,-84.1 C265.7,-81.0 265.0,-77.9 264.3,-74.9 C263.6,-71.8 262.9,-68.7 262.2,-65.6 C261.5,-62.5 260.8,-59.4 260.1,-56.4 C259.4,-53.3 258.8,-50.2 258.1,-47.2 C257.5,-44.1 256.8,-41.1 256.2,-38.0 C255.5,-35.0 254.9,-31.9 254.3,-28.9 C253.7,-25.8 253.1,-22.8 252.5,-19.8 C251.9,-16.7 251.4,-13.7 250.8,-10.7 C250.3,-7.7 249.7,-4.7 249.2,-1.7 C248.7,1.3 248.2,4.3 247.7,7.3 C247.2,10.3 246.7,13.3 246.3,16.2 C245.8,19.2 245.4,22.2 244.9,25.1 C244.5,28.1 244.1,31.0 243.7,34.0 C243.3,36.9 243.0,39.8 242.6,42.8 C242.3,45.7 242.0,48.6 241.7,51.5 C241.4,54.4 241.1,57.3 240.8,60.2 C240.6,63.0 240.3,65.9 240.1,68.8 C239.9,71.6 239.7,74.5 239.5,77.3 C239.4,80.2 239.2,83.0 239.1,85.8 C239.0,88.6 238.9,91.5 238.8,94.2 C238.7,97.0 238.7,99.8 238.7,102.6 C238.6,105.4 238.6,108.1 238.7,110.9 C238.7,113.6 238.7,116.4 238.8,119.1 C238.9,121.8 239.0,124.6 239.2,127.3 C239.3,130.0 239.5,132.7 239.6,135.3 C239.8,138.0 240.1,140.7 240.3,143.3 C240.5,146.0 240.8,148.6 241.1,151.3 C241.4,153.9 241.8,156.5 242.1,159.1 C242.5,161.7 242.9,164.3 243.3,166.9 C243.7,169.4 244.2,172.0 244.6,174.5 C245.1,177.1 245.6,179.6 246.2,182.1 C246.7,184.7 247.3,187.2 247.9,189.7 C248.5,192.2 249.1,194.6 249.8,197.1 C250.4,199.6 251.1,202.0 251.9,204.5 C252.6,206.9 253.3,209.3 254.1,211.7 C254.9,214.1 255.7,216.5 256.6,218.9 C257.4,221.3 258.3,223.7 259.2,226.0 C260.1,228.4 261.1,230.7 262.1,233.0 C263.0,235.4 264.0,237.7 265.1,240.0 C266.1,242.3 267.2,244.5 268.3,246.8 C269.4,249.1 270.5,251.3 271.7,253.6 C272.8,255.8 274.0,258.0 275.2,260.3 C276.5,262.5 277.7,264.7 279.0,266.8 C280.3,269.0 281.6,271.2 283.0,273.4 C284.3,275.5 285.7,277.6 287.1,279.8 C288.5,281.9 290.0,284.0 291.4,286.1 C292.9,288.2 294.4,290.3 296.0,292.4 C297.5,294.4 299.1,296.5 300.6,298.5 C302.2,300.6 303.9,302.6 305.5,304.6 C307.2,306.7 308.9,308.7 310.6,310.7 C312.3,312.6 314.0,314.6 315.8,316.6 C317.6,318.6 319.4,320.5 321.2,322.4 C323.0,324.4 324.9,326.3 326.8,328.2 C328.6,330.1 330.6,332.0 332.5,333.9 C334.4,335.8 336.4,337.7 338.4,339.6 C340.4,341.4 342.4,343.3 344.4,345.1 C346.5,347.0 348.6,348.8 350.7,350.6 C352.8,352.4 354.9,354.2 357.0,356.0 C359.2,357.8 361.3,359.6 363.5,361.4 C365.7,363.2 368.0,364.9 370.2,366.7 C372.4,368.4 374.7,370.2 377.0,371.9 C379.3,373.6 381.6,375.3 383.9,377.0 C386.3,378.8 388.6,380.5 391.0,382.2 C393.4,383.8 395.8,385.5 398.2,387.2 C400.6,388.9 403.0,390.5 405.5,392.2 C408.0,393.8 410.4,395.5 412.9,397.1 C415.4,398.8 417.9,400.4 420.5,402.0 C423.0,403.6 425.6,405.3 428.1,406.9 C430.7,408.5 433.3,410.1 435.9,411.7 C438.5,413.2 441.1,414.8 443.7,416.4 C446.3,418.0 449.0,419.6 451.6,421.1 C454.3,422.7 457.0,424.2 459.6,425.8 C462.3,427.3 465.0,428.9 467.7,430.4 C470.4,432.0 473.2,433.5 475.9,435.0 C478.6,436.6 481.4,438.1 484.1,439.6 C486.9,441.1 489.6,442.7 492.4,444.2 C495.2,445.7 498.0,447.2 500.7,448.7 C503.5,450.2 506.3,451.7 509.1,453.2 C511.9,454.7 514.7,456.2 517.5,457.7 C520.4,459.2 523.2,460.7 526.0,462.2 C528.8,463.7 531.6,465.2 534.5,466.6 C537.3,468.1 540.1,469.6 543.0,471.1 C545.8,472.6 548.6,474.1 551.5,475.6 C554.3,477.0 558.1,477.7 560.0,480.0 C561.9,482.3 561.8,486.3 562.6,489.5 C563.5,492.7 564.4,495.8 565.3,499.0 C566.1,502.2 567.0,505.3 567.9,508.5 C568.7,511.7 569.6,514.8 570.5,518.0 C571.3,521.2 572.2,524.3 573.0,527.5 C573.9,530.6 574.7,533.8 575.6,537.0 C576.4,540.1 577.2,543.3 578.0,546.4 C578.9,549.6 579.7,552.7 580.5,555.8 C581.3,559.0 582.1,562.1 582.9,565.3 C583.7,568.4 584.4,571.5 585.2,574.6 C586.0,577.8 586.7,580.9 587.5,584.0 C588.2,587.1 588.9,590.2 589.7,593.3 C590.4,596.5 591.1,599.6 591.8,602.6 C592.5,605.7 593.1,608.8 593.8,611.9 C594.5,615.0 595.1,618.1 595.8,621.2 C596.4,624.2 597.0,627.3 597.6,630.4 C598.2,633.4 598.8,636.5 599.3,639.5 C599.9,642.6 600.4,645.6 601.0,648.6 C601.5,651.7 602.0,654.7 602.5,657.7 C603.0,660.7 603.4,663.7 603.9,666.7 C604.3,669.7 604.8,672.7 605.2,675.7 C605.6,678.7 606.0,681.7 606.3,684.6 C606.7,687.6 607.0,690.5 607.3,693.5 C607.6,696.4 607.9,699.4 608.2,702.3 C608.5,705.2 608.7,708.2 608.9,711.1 C609.2,714.0 609.4,716.9 609.5,719.8 C609.7,722.7 609.8,725.5 610.0,728.4 C610.1,731.3 610.2,734.1 610.2,737.0 C610.3,739.8 610.3,742.7 610.4,745.5 C610.4,748.3 610.4,751.2 610.3,754.0 C610.3,756.8 610.2,759.6 610.1,762.3 C610.0,765.1 609.9,767.9 609.7,770.7 C609.6,773.4 609.4,776.2 609.2,778.9 C608.9,781.7 608.7,784.4 608.4,787.1 C608.2,789.8 607.9,792.5 607.5,795.2 C607.2,797.9 606.8,800.6 606.4,803.3 C606.0,805.9 605.6,808.6 605.2,811.2 C604.7,813.9 604.2,816.5 603.7,819.1 C603.2,821.7 602.6,824.4 602.0,826.9 C601.5,829.5 600.9,832.1 600.2,834.7 C599.6,837.3 598.9,839.8 598.2,842.4 C597.5,844.9 596.7,847.4 596.0,850.0 C595.2,852.5 594.4,855.0 593.6,857.5 C592.7,860.0 591.9,862.5 591.0,864.9 C590.1,867.4 589.1,869.9 588.2,872.3 C587.2,874.8 586.2,877.2 585.2,879.6 C584.2,882.0 583.1,884.4 582.0,886.8 C580.9,889.2 579.8,891.6 578.6,894.0 C577.5,896.3 576.3,898.7 575.1,901.0 C573.9,903.4 572.6,905.7 571.3,908.0 C570.0,910.3 568.7,912.7 567.4,914.9 C566.0,917.2 564.7,919.5 563.2,921.8 C561.8,924.1 560.4,926.3 558.9,928.6 C557.5,930.8 556.0,933.0 554.4,935.3 C552.9,937.5 551.3,939.7 549.7,941.9 C548.1,944.1 546.5,946.3 544.9,948.4 C543.2,950.6 541.5,952.8 539.8,954.9 C538.1,957.1 536.4,959.2 534.6,961.3 C532.8,963.5 531.0,965.6 529.2,967.7 C527.4,969.8 525.5,971.9 523.6,974.0 C521.8,976.0 519.9,978.1 517.9,980.2 C516.0,982.2 514.0,984.3 512.0,986.3 C510.0,988.4 508.0,990.4 506.0,992.4 C503.9,994.4 501.8,996.4 499.8,998.4 C497.7,1000.4 495.5,1002.4 493.4,1004.4 C491.2,1006.4 489.1,1008.3 486.9,1010.3 C484.7,1012.3 482.5,1014.2 480.2,1016.2 C478.0,1018.1 475.7,1020.0 473.4,1022.0 C471.1,1023.9 468.8,1025.8 466.5,1027.7 C464.2,1029.6 461.8,1031.5 459.4,1033.4 C457.1,1035.3 454.7,1037.2 452.3,1039.0 C449.9,1040.9 447.4,1042.8 445.0,1044.6 C442.5,1046.5 440.0,1048.3 437.6,1050.2 C435.1,1052.0 432.6,1053.9 430.0,1055.7 C427.5,1057.5 425.0,1059.3 422.4,1061.2 C419.9,1063.0 417.3,1064.8 414.7,1066.6 C412.1,1068.4 409.5,1070.2 406.9,1072.0 C404.3,1073.8 401.6,1075.6 399.0,1077.3 C396.4,1079.1 393.7,1080.9 391.0,1082.7 C388.4,1084.4 385.7,1086.2 383.0,1088.0 C380.3,1089.7 377.6,1091.5 374.9,1093.3 C372.2,1095.0 369.4,1096.8 366.7,1098.5 C364.0,1100.3 361.2,1102.0 358.5,1103.7 C355.7,1105.5 353.0,1107.2 350.2,1109.0 C347.5,1110.7 344.7,1112.4 341.9,1114.2 C339.1,1115.9 336.4,1117.6 333.6,1119.3 C330.8,1121.1 328.0,1122.8 325.2,1124.5 C322.4,1126.2 319.6,1128.0 316.8,1129.7 C314.0,1131.4 311.2,1133.1 308.4,1134.8 C305.6,1136.6 301.4,1139.1 300.0,1140.0" fill="none" stroke="#FFF" stroke-width="98" stroke-linecap="round"/>
<path d="M760.0,-140.0 C760.4,-138.4 761.4,-133.7 762.2,-130.6 C762.9,-127.5 763.6,-124.3 764.3,-121.2 C765.0,-118.1 765.7,-114.9 766.4,-111.8 C767.1,-108.7 767.8,-105.5 768.5,-102.4 C769.2,-99.3 769.9,-96.2 770.6,-93.0 C771.3,-89.9 772.0,-86.8 772.7,-83.7 C773.4,-80.6 774.0,-77.5 774.7,-74.4 C775.4,-71.2 776.0,-68.1 776.7,-65.0 C777.3,-61.9 778.0,-58.8 778.6,-55.7 C779.2,-52.6 779.8,-49.6 780.4,-46.5 C781.1,-43.4 781.7,-40.3 782.2,-37.2 C782.8,-34.2 783.4,-31.1 784.0,-28.0 C784.5,-25.0 785.1,-21.9 785.6,-18.9 C786.2,-15.8 786.7,-12.8 787.2,-9.7 C787.7,-6.7 788.2,-3.7 788.7,-0.7 C789.1,2.4 789.6,5.4 790.0,8.4 C790.5,11.4 790.9,14.4 791.3,17.4 C791.7,20.4 792.1,23.4 792.5,26.3 C792.9,29.3 793.2,32.3 793.6,35.2 C793.9,38.2 794.2,41.1 794.5,44.1 C794.8,47.0 795.1,49.9 795.4,52.9 C795.6,55.8 795.9,58.7 796.1,61.6 C796.3,64.5 796.5,67.4 796.7,70.3 C796.8,73.1 797.0,76.0 797.1,78.9 C797.2,81.7 797.3,84.6 797.4,87.4 C797.5,90.2 797.5,93.1 797.6,95.9 C797.6,98.7 797.6,101.5 797.6,104.3 C797.6,107.1 797.5,109.8 797.4,112.6 C797.4,115.4 797.3,118.1 797.1,120.9 C797.0,123.6 796.9,126.3 796.7,129.0 C796.5,131.8 796.3,134.5 796.1,137.2 C795.8,139.8 795.6,142.5 795.3,145.2 C795.0,147.8 794.7,150.5 794.3,153.1 C794.0,155.8 793.6,158.4 793.2,161.0 C792.8,163.6 792.4,166.2 791.9,168.8 C791.5,171.4 791.0,173.9 790.5,176.5 C789.9,179.1 789.4,181.6 788.8,184.1 C788.2,186.7 787.6,189.2 787.0,191.7 C786.3,194.2 785.7,196.6 785.0,199.1 C784.3,201.6 783.5,204.0 782.8,206.5 C782.0,208.9 781.2,211.4 780.4,213.8 C779.6,216.2 778.7,218.6 777.8,221.0 C776.9,223.3 776.0,225.7 775.1,228.1 C774.1,230.4 773.1,232.8 772.1,235.1 C771.1,237.4 770.1,239.7 769.0,242.0 C767.9,244.3 766.8,246.6 765.7,248.9 C764.5,251.1 763.4,253.4 762.2,255.6 C761.0,257.9 759.7,260.1 758.5,262.3 C757.2,264.5 755.9,266.7 754.6,268.9 C753.3,271.1 751.9,273.2 750.5,275.4 C749.2,277.5 747.7,279.7 746.3,281.8 C744.8,283.9 743.4,286.0 741.9,288.1 C740.4,290.2 738.8,292.3 737.2,294.3 C735.7,296.4 734.1,298.5 732.5,300.5 C730.8,302.5 729.2,304.6 727.5,306.6 C725.8,308.6 724.1,310.6 722.3,312.6 C720.6,314.5 718.8,316.5 717.0,318.5 C715.2,320.4 713.4,322.4 711.5,324.3 C709.7,326.2 707.8,328.1 705.9,330.0 C703.9,331.9 702.0,333.8 700.0,335.7 C698.1,337.6 696.1,339.5 694.0,341.3 C692.0,343.2 690.0,345.0 687.9,346.8 C685.8,348.7 683.7,350.5 681.6,352.3 C679.5,354.1 677.3,355.9 675.1,357.6 C672.9,359.4 670.7,361.2 668.5,363.0 C666.3,364.7 664.0,366.5 661.8,368.2 C659.5,369.9 657.2,371.7 654.9,373.4 C652.6,375.1 650.2,376.8 647.9,378.5 C645.5,380.2 643.1,381.9 640.7,383.5 C638.3,385.2 635.9,386.9 633.4,388.5 C631.0,390.2 628.5,391.8 626.0,393.5 C623.5,395.1 621.0,396.7 618.5,398.3 C616.0,400.0 613.4,401.6 610.9,403.2 C608.3,404.8 605.7,406.4 603.2,407.9 C600.6,409.5 598.0,411.1 595.3,412.7 C592.7,414.3 590.1,415.8 587.4,417.4 C584.7,418.9 582.1,420.5 579.4,422.0 C576.7,423.6 574.0,425.1 571.3,426.6 C568.6,428.2 565.9,429.7 563.1,431.2 C560.4,432.7 557.6,434.2 554.9,435.7 C552.1,437.3 549.4,438.8 546.6,440.3 C543.8,441.8 541.0,443.3 538.2,444.7 C535.4,446.2 532.6,447.7 529.8,449.2 C527.0,450.7 524.2,452.2 521.3,453.6 C518.5,455.1 515.7,456.6 512.9,458.1 C510.0,459.5 507.2,461.0 504.3,462.5 C501.5,463.9 498.6,465.4 495.8,466.9 C492.9,468.3 490.0,469.8 487.2,471.2 C484.3,472.7 481.5,474.2 478.6,475.6 C475.7,477.1 471.8,477.6 470.0,480.0 C468.2,482.4 468.7,486.6 468.1,489.9 C467.4,493.1 466.8,496.4 466.2,499.7 C465.5,503.0 464.9,506.3 464.2,509.6 C463.6,512.8 463.0,516.1 462.4,519.4 C461.7,522.7 461.1,525.9 460.5,529.2 C459.9,532.5 459.3,535.8 458.7,539.0 C458.1,542.3 457.5,545.6 456.9,548.8 C456.3,552.1 455.7,555.3 455.1,558.6 C454.6,561.8 454.0,565.1 453.5,568.3 C452.9,571.6 452.4,574.8 451.8,578.1 C451.3,581.3 450.8,584.5 450.2,587.7 C449.7,591.0 449.2,594.2 448.7,597.4 C448.3,600.6 447.8,603.8 447.3,607.0 C446.9,610.2 446.4,613.4 446.0,616.6 C445.6,619.8 445.1,623.0 444.7,626.1 C444.3,629.3 443.9,632.5 443.6,635.6 C443.2,638.8 442.8,641.9 442.5,645.1 C442.2,648.2 441.9,651.4 441.6,654.5 C441.3,657.6 441.0,660.7 440.7,663.8 C440.4,666.9 440.2,670.0 440.0,673.1 C439.8,676.2 439.6,679.3 439.4,682.4 C439.2,685.4 439.0,688.5 438.9,691.5 C438.7,694.6 438.6,697.6 438.5,700.7 C438.4,703.7 438.4,706.7 438.3,709.7 C438.3,712.7 438.2,715.7 438.2,718.7 C438.2,721.7 438.3,724.7 438.3,727.6 C438.3,730.6 438.4,733.5 438.5,736.5 C438.6,739.4 438.7,742.3 438.9,745.3 C439.0,748.2 439.2,751.1 439.4,754.0 C439.6,756.8 439.8,759.7 440.1,762.6 C440.3,765.5 440.6,768.3 440.9,771.1 C441.2,774.0 441.6,776.8 441.9,779.6 C442.3,782.4 442.7,785.2 443.1,788.0 C443.5,790.8 444.0,793.6 444.4,796.3 C444.9,799.1 445.4,801.8 446.0,804.6 C446.5,807.3 447.1,810.0 447.7,812.7 C448.3,815.4 448.9,818.1 449.5,820.8 C450.2,823.5 450.9,826.1 451.6,828.8 C452.3,831.4 453.0,834.1 453.8,836.7 C454.6,839.3 455.4,841.9 456.2,844.5 C457.1,847.1 457.9,849.7 458.8,852.2 C459.7,854.8 460.7,857.3 461.6,859.9 C462.6,862.4 463.6,864.9 464.6,867.4 C465.6,869.9 466.7,872.4 467.8,874.9 C468.9,877.4 470.0,879.8 471.1,882.3 C472.3,884.7 473.5,887.1 474.7,889.6 C475.9,892.0 477.1,894.4 478.4,896.8 C479.7,899.1 481.0,901.5 482.3,903.9 C483.6,906.2 485.0,908.6 486.4,910.9 C487.8,913.2 489.2,915.5 490.7,917.8 C492.1,920.1 493.6,922.4 495.2,924.7 C496.7,927.0 498.2,929.2 499.8,931.5 C501.4,933.7 503.0,935.9 504.6,938.1 C506.3,940.4 508.0,942.6 509.7,944.7 C511.4,946.9 513.1,949.1 514.9,951.2 C516.6,953.4 518.4,955.5 520.2,957.7 C522.0,959.8 523.9,961.9 525.8,964.0 C527.6,966.1 529.5,968.2 531.5,970.3 C533.4,972.4 535.4,974.4 537.4,976.5 C539.3,978.5 541.4,980.6 543.4,982.6 C545.5,984.6 547.5,986.6 549.6,988.6 C551.7,990.6 553.8,992.6 556.0,994.6 C558.1,996.6 560.3,998.5 562.5,1000.5 C564.7,1002.4 566.9,1004.4 569.2,1006.3 C571.4,1008.2 573.7,1010.1 576.0,1012.0 C578.3,1013.9 580.6,1015.8 583.0,1017.7 C585.3,1019.6 587.7,1021.5 590.1,1023.3 C592.5,1025.2 594.9,1027.0 597.3,1028.9 C599.8,1030.7 602.2,1032.5 604.7,1034.4 C607.2,1036.2 609.7,1038.0 612.2,1039.8 C614.7,1041.6 617.3,1043.4 619.8,1045.2 C622.4,1046.9 625.0,1048.7 627.6,1050.5 C630.2,1052.2 632.8,1054.0 635.4,1055.7 C638.0,1057.5 640.7,1059.2 643.3,1061.0 C646.0,1062.7 648.7,1064.4 651.4,1066.1 C654.1,1067.9 656.8,1069.6 659.5,1071.3 C662.3,1073.0 665.0,1074.7 667.8,1076.3 C670.5,1078.0 673.3,1079.7 676.1,1081.4 C678.9,1083.1 681.7,1084.7 684.5,1086.4 C687.3,1088.1 690.1,1089.7 692.9,1091.4 C695.8,1093.0 698.6,1094.7 701.5,1096.3 C704.3,1098.0 707.2,1099.6 710.0,1101.3 C712.9,1102.9 715.8,1104.5 718.7,1106.2 C721.5,1107.8 724.4,1109.4 727.3,1111.0 C730.2,1112.6 733.1,1114.3 736.1,1115.9 C739.0,1117.5 741.9,1119.1 744.8,1120.7 C747.7,1122.3 750.7,1123.9 753.6,1125.6 C756.5,1127.2 759.4,1128.8 762.4,1130.4 C765.3,1132.0 768.2,1133.6 771.2,1135.2 C774.1,1136.8 778.5,1139.2 780.0,1140.0" fill="none" stroke="#FFF" stroke-width="98" stroke-linecap="round"/>
<path d="M280.0,-140.0 C278.1,-138.8 271.8,-135.4 268.8,-132.9 C265.8,-130.3 264.1,-127.4 262.0,-124.6 C259.9,-121.8 258.0,-119.0 256.1,-116.2 C254.2,-113.3 252.5,-110.4 250.8,-107.6 C249.1,-104.7 247.4,-101.8 245.9,-98.8 C244.3,-95.9 242.7,-93.0 241.2,-90.0 C239.7,-87.1 237.9,-84.2 236.8,-81.2 C235.7,-78.2 235.1,-75.0 234.4,-71.9 C233.7,-68.8 233.1,-65.6 232.5,-62.5 C231.8,-59.4 231.2,-56.2 230.5,-53.1 C229.8,-50.0 229.2,-46.9 228.5,-43.8 C227.9,-40.6 227.2,-37.5 226.6,-34.4 C225.9,-31.3 225.2,-28.2 224.6,-25.1 C224.0,-22.1 223.3,-19.0 222.7,-15.9 C222.0,-12.8 221.4,-9.7 220.8,-6.6 C220.2,-3.6 219.6,-0.5 219.0,2.6 C218.4,5.6 217.8,8.7 217.2,11.8 C216.7,14.8 216.1,17.9 215.6,20.9 C215.0,24.0 214.5,27.0 214.0,30.1 C213.5,33.1 213.0,36.2 212.6,39.2 C212.1,42.3 211.7,45.3 211.3,48.3 C210.9,51.3 210.5,54.4 210.1,57.4 C209.7,60.4 209.4,63.4 209.1,66.4 C208.8,69.5 208.5,72.5 208.2,75.5 C207.9,78.5 207.7,81.5 207.4,84.5 C207.2,87.5 207.0,90.4 206.8,93.4 C206.6,96.4 206.5,99.4 206.4,102.3 C206.2,105.3 206.1,108.3 206.0,111.2 C205.9,114.2 205.9,117.2 205.8,120.1 C205.8,123.1 205.7,126.0 205.7,128.9 C205.7,131.9 205.8,134.8 205.8,137.7 C205.9,140.7 205.9,143.6 206.0,146.5 C206.1,149.4 206.2,152.4 206.3,155.3 C206.5,158.2 206.6,161.1 206.8,164.0 C207.0,166.9 207.2,169.8 207.5,172.7 C207.8,175.6 208.0,178.5 208.4,181.4 C208.7,184.3 209.0,187.1 209.5,190.0 C209.9,192.9 210.3,195.8 210.8,198.6 C211.3,201.5 211.8,204.3 212.4,207.1 C213.0,210.0 213.6,212.8 214.3,215.6 C215.0,218.4 215.8,221.2 216.6,224.0 C217.4,226.8 218.2,229.5 219.1,232.3 C220.1,235.0 221.0,237.7 222.1,240.4 C223.1,243.1 224.2,245.8 225.3,248.4 C226.5,251.1 227.6,253.7 228.9,256.3 C230.1,258.9 231.4,261.5 232.7,264.1 C234.0,266.6 235.4,269.2 236.8,271.7 C238.2,274.2 239.6,276.7 241.1,279.2 C242.5,281.7 244.0,284.1 245.6,286.6 C247.1,289.0 248.6,291.5 250.2,293.9 C251.8,296.3 253.4,298.7 255.0,301.1 C256.7,303.4 258.3,305.8 260.0,308.2 C261.7,310.5 263.4,312.9 265.1,315.2 C266.8,317.5 268.6,319.9 270.3,322.2 C272.1,324.5 273.9,326.8 275.7,329.0 C277.6,331.3 279.4,333.6 281.3,335.8 C283.2,338.1 285.1,340.3 287.0,342.5 C289.0,344.7 291.0,346.9 293.0,349.0 C295.0,351.2 297.0,353.3 299.1,355.5 C301.1,357.6 303.2,359.7 305.4,361.8 C307.5,363.8 309.6,365.9 311.8,367.9 C314.0,370.0 316.2,372.0 318.5,373.9 C320.7,375.9 323.0,377.9 325.3,379.8 C327.6,381.8 329.9,383.7 332.3,385.6 C334.6,387.5 337.0,389.4 339.4,391.3 C341.8,393.2 344.2,395.0 346.6,396.9 C349.0,398.8 351.4,400.6 353.9,402.5 C356.3,404.3 358.8,406.1 361.3,407.9 C363.8,409.8 366.3,411.6 368.8,413.4 C371.3,415.2 373.8,417.0 376.4,418.8 C378.9,420.5 381.5,422.3 384.0,424.1 C386.6,425.9 389.2,427.6 391.8,429.4 C394.4,431.1 397.0,432.9 399.6,434.6 C402.2,436.4 404.8,438.1 407.5,439.8 C410.1,441.5 412.8,443.3 415.5,445.0 C418.1,446.7 420.8,448.4 423.5,450.1 C426.2,451.8 428.9,453.4 431.6,455.1 C434.3,456.8 437.1,458.4 439.8,460.1 C442.5,461.7 445.3,463.4 448.1,465.0 C450.8,466.6 453.6,468.3 456.4,469.9 C459.2,471.5 462.0,473.1 464.8,474.6 C467.6,476.2 470.4,477.8 473.2,479.3 C476.0,480.9 478.8,482.4 481.7,483.9 C484.5,485.5 487.4,487.0 490.2,488.5 C493.1,490.0 495.9,491.5 498.8,493.0 C501.6,494.5 504.5,496.0 507.4,497.4 C510.2,498.9 513.1,500.4 516.0,501.8 C518.9,503.2 521.8,504.7 524.7,506.1 C527.5,507.5 532.5,510.6 533.3,510.3 C534.1,510.0 530.9,506.0 529.6,504.3 C528.3,502.5 525.7,499.0 525.5,499.8 C525.3,500.6 527.5,506.0 528.5,509.1 C529.5,512.2 530.6,515.4 531.6,518.5 C532.6,521.6 533.6,524.6 534.7,527.7 C535.7,530.8 536.8,533.9 537.8,536.9 C538.9,540.0 539.9,543.1 541.0,546.1 C542.0,549.2 543.1,552.2 544.1,555.3 C545.2,558.3 546.2,561.3 547.2,564.4 C548.3,567.4 549.3,570.4 550.3,573.4 C551.3,576.5 552.3,579.5 553.3,582.5 C554.3,585.5 555.2,588.5 556.2,591.5 C557.1,594.5 558.1,597.5 559.0,600.4 C559.9,603.4 560.7,606.4 561.6,609.4 C562.5,612.4 563.3,615.3 564.1,618.3 C564.9,621.3 565.7,624.2 566.5,627.2 C567.3,630.1 568.0,633.1 568.8,636.0 C569.5,638.9 570.2,641.8 570.9,644.8 C571.6,647.7 572.2,650.6 572.9,653.5 C573.5,656.4 574.1,659.3 574.7,662.2 C575.3,665.1 575.9,667.9 576.4,670.8 C576.9,673.7 577.5,676.5 578.0,679.4 C578.4,682.2 578.9,685.1 579.4,687.9 C579.8,690.7 580.2,693.5 580.6,696.3 C581.0,699.1 581.4,701.9 581.7,704.7 C582.1,707.5 582.4,710.3 582.7,713.0 C583.0,715.8 583.2,718.6 583.5,721.3 C583.7,724.0 583.9,726.8 584.1,729.5 C584.3,732.2 584.4,734.9 584.6,737.6 C584.7,740.3 584.8,743.0 584.9,745.6 C584.9,748.3 585.0,750.9 585.0,753.6 C585.1,756.2 585.1,758.8 585.0,761.5 C585.0,764.1 585.0,766.7 584.9,769.3 C584.9,771.9 584.8,774.4 584.7,777.0 C584.5,779.6 584.4,782.1 584.3,784.7 C584.1,787.2 583.9,789.7 583.7,792.3 C583.5,794.8 583.3,797.3 583.0,799.8 C582.8,802.3 582.5,804.8 582.2,807.3 C581.9,809.8 581.6,812.2 581.2,814.7 C580.9,817.1 580.5,819.6 580.1,822.0 C579.7,824.5 579.2,826.9 578.7,829.3 C578.3,831.7 577.8,834.2 577.3,836.6 C576.7,839.0 576.2,841.3 575.6,843.7 C575.0,846.1 574.3,848.5 573.7,850.8 C573.0,853.2 572.3,855.5 571.6,857.9 C570.8,860.2 570.1,862.6 569.3,864.9 C568.5,867.2 567.7,869.5 566.8,871.8 C566.0,874.1 565.1,876.4 564.2,878.7 C563.3,881.0 562.3,883.3 561.4,885.5 C560.4,887.8 559.4,890.1 558.4,892.3 C557.3,894.6 556.2,896.8 555.1,899.1 C554.0,901.3 552.9,903.6 551.7,905.8 C550.6,908.0 549.4,910.2 548.2,912.4 C546.9,914.6 545.7,916.8 544.4,919.0 C543.1,921.2 541.7,923.4 540.4,925.6 C539.1,927.8 537.8,930.0 536.4,932.2 C535.0,934.4 533.6,936.6 532.2,938.8 C530.7,941.0 529.3,943.1 527.7,945.3 C526.2,947.5 524.7,949.6 523.1,951.8 C521.5,953.9 519.9,956.1 518.3,958.2 C516.6,960.3 514.9,962.4 513.2,964.5 C511.5,966.7 509.8,968.8 508.0,970.9 C506.2,973.0 504.4,975.0 502.6,977.1 C500.8,979.2 498.9,981.3 497.0,983.3 C495.1,985.4 493.2,987.5 491.3,989.5 C489.3,991.6 487.3,993.6 485.3,995.6 C483.3,997.7 481.3,999.7 479.2,1001.7 C477.2,1003.7 475.1,1005.8 473.0,1007.8 C470.8,1009.8 468.7,1011.8 466.5,1013.8 C464.4,1015.7 462.2,1017.7 460.0,1019.7 C457.8,1021.7 455.5,1023.7 453.3,1025.6 C451.0,1027.6 448.7,1029.6 446.4,1031.5 C444.1,1033.5 441.8,1035.4 439.5,1037.4 C437.1,1039.3 434.8,1041.3 432.4,1043.2 C430.0,1045.2 427.6,1047.1 425.2,1049.1 C422.8,1051.0 420.4,1052.9 417.9,1054.9 C415.5,1056.8 413.0,1058.7 410.5,1060.6 C408.1,1062.6 405.6,1064.5 403.1,1066.4 C400.5,1068.3 398.0,1070.2 395.5,1072.1 C392.9,1074.0 390.4,1075.9 387.8,1077.8 C385.2,1079.7 382.7,1081.6 380.1,1083.5 C377.5,1085.4 374.9,1087.3 372.2,1089.2 C369.6,1091.1 367.0,1093.0 364.4,1094.8 C361.7,1096.7 359.1,1098.6 356.4,1100.5 C353.8,1102.4 351.1,1104.2 348.4,1106.1 C345.8,1108.0 343.1,1109.8 340.4,1111.7 C337.7,1113.6 335.0,1115.4 332.3,1117.3 C329.6,1119.2 326.9,1121.0 324.2,1122.9 C321.5,1124.8 318.8,1126.6 316.1,1128.5 C313.4,1130.4 310.6,1132.2 308.0,1134.1 C305.3,1136.0 301.3,1139.0 300.0,1140.0 L374.9,1093.3 C376.3,1092.4 380.4,1089.8 383.1,1088.1 C385.8,1086.4 388.5,1084.6 391.2,1082.9 C393.9,1081.2 396.6,1079.4 399.2,1077.7 C401.9,1075.9 404.6,1074.2 407.2,1072.4 C409.8,1070.7 412.5,1068.9 415.1,1067.2 C417.7,1065.4 420.3,1063.6 422.9,1061.9 C425.5,1060.1 428.1,1058.3 430.7,1056.5 C433.2,1054.8 435.8,1053.0 438.3,1051.2 C440.8,1049.4 443.4,1047.6 445.9,1045.8 C448.4,1044.0 450.9,1042.2 453.3,1040.4 C455.8,1038.6 458.3,1036.8 460.7,1035.0 C463.1,1033.1 465.6,1031.3 468.0,1029.5 C470.4,1027.7 472.8,1025.8 475.2,1024.0 C477.5,1022.2 479.9,1020.3 482.2,1018.5 C484.5,1016.6 486.9,1014.7 489.2,1012.9 C491.5,1011.0 493.7,1009.1 496.0,1007.2 C498.2,1005.3 500.5,1003.4 502.7,1001.5 C504.9,999.6 507.1,997.6 509.2,995.7 C511.4,993.8 513.5,991.8 515.6,989.8 C517.7,987.9 519.8,985.9 521.9,983.9 C523.9,981.9 526.0,979.9 528.0,977.9 C530.0,975.8 532.0,973.8 533.9,971.8 C535.9,969.7 537.8,967.6 539.7,965.6 C541.6,963.5 543.5,961.4 545.3,959.3 C547.1,957.2 549.0,955.0 550.7,952.9 C552.5,950.8 554.3,948.6 556.0,946.4 C557.7,944.2 559.4,942.0 561.0,939.8 C562.7,937.6 564.2,935.3 565.8,933.0 C567.3,930.8 568.8,928.5 570.3,926.2 C571.8,923.9 573.3,921.6 574.7,919.2 C576.1,916.9 577.5,914.6 578.9,912.2 C580.2,909.9 581.6,907.5 582.9,905.1 C584.2,902.7 585.5,900.3 586.7,897.9 C587.9,895.5 589.2,893.1 590.3,890.6 C591.5,888.2 592.7,885.7 593.8,883.2 C594.9,880.8 595.9,878.3 597.0,875.8 C598.0,873.3 599.0,870.8 600.0,868.2 C600.9,865.7 601.9,863.1 602.8,860.6 C603.7,858.0 604.6,855.4 605.4,852.9 C606.3,850.3 607.1,847.7 607.9,845.1 C608.7,842.5 609.5,839.8 610.2,837.2 C611.0,834.6 611.7,831.9 612.4,829.3 C613.1,826.6 613.8,823.9 614.4,821.2 C615.1,818.6 615.7,815.9 616.3,813.2 C617.0,810.4 617.6,807.7 618.1,805.0 C618.7,802.3 619.2,799.5 619.8,796.7 C620.3,794.0 620.8,791.2 621.2,788.4 C621.7,785.6 622.1,782.8 622.5,780.0 C622.9,777.1 623.2,774.3 623.5,771.5 C623.9,768.6 624.1,765.7 624.4,762.9 C624.6,760.0 624.8,757.1 625.0,754.2 C625.1,751.3 625.2,748.4 625.3,745.4 C625.4,742.5 625.5,739.6 625.5,736.6 C625.5,733.7 625.5,730.7 625.4,727.8 C625.4,724.8 625.3,721.8 625.2,718.8 C625.1,715.9 625.0,712.9 624.8,709.9 C624.7,706.9 624.5,703.9 624.3,700.8 C624.1,697.8 623.8,694.8 623.6,691.8 C623.3,688.7 623.0,685.7 622.7,682.6 C622.4,679.6 622.0,676.5 621.7,673.5 C621.3,670.4 620.9,667.3 620.4,664.3 C620.0,661.2 619.5,658.1 619.0,655.0 C618.6,651.9 618.1,648.8 617.5,645.8 C617.0,642.7 616.5,639.6 615.9,636.4 C615.4,633.3 614.8,630.2 614.2,627.1 C613.6,624.0 613.0,620.9 612.4,617.7 C611.8,614.6 611.2,611.5 610.6,608.3 C610.0,605.2 609.4,602.0 608.8,598.9 C608.1,595.7 607.5,592.5 606.9,589.4 C606.2,586.2 605.6,583.0 605.0,579.8 C604.3,576.7 603.7,573.5 603.0,570.3 C602.3,567.1 601.7,563.9 601.0,560.7 C600.3,557.5 599.6,554.3 598.9,551.1 C598.2,547.9 597.5,544.7 596.8,541.5 C596.0,538.3 595.3,535.1 594.5,531.9 C593.8,528.7 593.0,525.5 592.2,522.3 C591.4,519.1 590.6,515.9 589.8,512.7 C589.0,509.5 588.2,506.4 587.4,503.2 C586.6,500.0 585.7,496.8 584.9,493.6 C584.1,490.4 583.9,488.5 582.4,484.0 C581.0,479.6 579.7,471.6 576.2,467.1 C572.7,462.5 565.1,459.4 561.2,457.0 C557.3,454.5 555.6,453.9 552.8,452.3 C550.0,450.7 547.3,449.2 544.5,447.6 C541.7,446.0 538.9,444.4 536.2,442.9 C533.4,441.3 530.7,439.7 527.9,438.2 C525.2,436.6 522.4,435.1 519.7,433.5 C516.9,432.0 514.2,430.4 511.5,428.8 C508.8,427.3 506.0,425.7 503.3,424.2 C500.6,422.6 497.9,421.1 495.2,419.5 C492.5,418.0 489.9,416.5 487.2,414.9 C484.5,413.4 481.9,411.8 479.2,410.3 C476.6,408.7 473.9,407.2 471.3,405.6 C468.7,404.1 466.1,402.5 463.5,401.0 C460.9,399.4 458.3,397.8 455.8,396.3 C453.2,394.7 450.7,393.1 448.2,391.6 C445.7,390.0 443.2,388.4 440.7,386.8 C438.2,385.2 435.7,383.6 433.3,382.0 C430.9,380.4 428.5,378.8 426.1,377.1 C423.7,375.5 421.3,373.9 418.9,372.3 C416.6,370.6 414.2,369.0 411.9,367.4 C409.6,365.7 407.3,364.1 405.0,362.4 C402.8,360.8 400.5,359.1 398.3,357.4 C396.1,355.7 393.9,354.1 391.8,352.4 C389.6,350.7 387.5,349.0 385.4,347.3 C383.3,345.5 381.2,343.8 379.1,342.1 C377.1,340.3 375.1,338.6 373.1,336.8 C371.1,335.0 369.2,333.3 367.3,331.5 C365.4,329.7 363.5,327.8 361.7,326.0 C359.8,324.2 358.0,322.3 356.2,320.5 C354.5,318.6 352.7,316.8 351.0,314.9 C349.3,313.0 347.6,311.2 346.0,309.3 C344.3,307.4 342.7,305.6 341.1,303.7 C339.5,301.8 337.9,299.9 336.4,298.1 C334.8,296.2 333.2,294.3 331.7,292.5 C330.2,290.6 328.7,288.7 327.2,286.9 C325.7,285.0 324.3,283.1 322.8,281.3 C321.4,279.4 320.0,277.5 318.6,275.6 C317.2,273.7 315.9,271.8 314.5,269.9 C313.2,268.0 311.9,266.1 310.7,264.2 C309.4,262.2 308.1,260.3 306.9,258.3 C305.7,256.4 304.6,254.4 303.4,252.4 C302.3,250.5 301.2,248.5 300.1,246.5 C299.1,244.5 298.1,242.4 297.1,240.4 C296.1,238.4 295.1,236.3 294.2,234.2 C293.3,232.2 292.4,230.1 291.5,228.0 C290.7,225.9 289.8,223.8 289.0,221.7 C288.2,219.6 287.5,217.5 286.7,215.4 C286.0,213.2 285.2,211.1 284.5,209.0 C283.8,206.8 283.1,204.7 282.5,202.5 C281.8,200.3 281.2,198.1 280.5,195.9 C279.9,193.8 279.3,191.6 278.7,189.3 C278.1,187.1 277.5,184.9 277.0,182.7 C276.4,180.4 275.9,178.2 275.4,175.9 C274.9,173.6 274.4,171.3 274.0,169.0 C273.5,166.7 273.1,164.4 272.7,162.1 C272.3,159.7 272.0,157.4 271.6,155.0 C271.3,152.6 271.0,150.2 270.7,147.8 C270.4,145.4 270.2,143.0 270.0,140.6 C269.7,138.1 269.5,135.7 269.4,133.2 C269.2,130.7 269.0,128.3 268.9,125.8 C268.8,123.3 268.7,120.8 268.6,118.2 C268.5,115.7 268.5,113.1 268.4,110.6 C268.4,108.0 268.4,105.4 268.4,102.8 C268.4,100.3 268.4,97.6 268.4,95.0 C268.5,92.4 268.5,89.8 268.6,87.1 C268.7,84.4 268.8,81.8 268.9,79.1 C269.1,76.4 269.2,73.7 269.4,71.0 C269.5,68.3 269.7,65.5 269.9,62.8 C270.1,60.0 270.3,57.3 270.6,54.5 C270.8,51.7 271.1,48.9 271.3,46.1 C271.6,43.3 271.9,40.5 272.2,37.7 C272.5,34.9 272.9,32.0 273.2,29.2 C273.6,26.3 273.9,23.4 274.3,20.6 C274.7,17.7 275.1,14.8 275.5,11.9 C275.9,9.0 276.3,6.1 276.8,3.1 C277.2,0.2 277.7,-2.7 278.1,-5.7 C278.6,-8.6 279.1,-11.6 279.6,-14.6 C280.1,-17.5 280.6,-20.5 281.2,-23.5 C281.7,-26.5 282.3,-29.5 282.8,-32.5 C283.4,-35.5 284.0,-38.5 284.5,-41.5 C285.1,-44.5 285.7,-47.6 286.3,-50.6 C286.9,-53.6 287.6,-56.7 288.2,-59.7 C288.7,-62.8 289.4,-65.8 289.7,-69.0 C289.9,-72.2 289.5,-75.5 289.4,-78.7 C289.3,-82.0 289.2,-85.3 289.1,-88.5 C288.9,-91.8 288.8,-95.1 288.6,-98.4 C288.4,-101.7 288.3,-105.1 288.0,-108.4 C287.7,-111.8 287.5,-115.1 287.0,-118.5 C286.6,-121.9 286.5,-125.2 285.3,-128.8 C284.2,-132.4 280.9,-138.1 280.0,-140.0 Z" fill="#000" fill-opacity="0.6" stroke="none"/>
<path d="M760.0,-140.0 C760.3,-138.4 761.4,-133.7 762.1,-130.6 C762.8,-127.4 763.4,-124.3 764.1,-121.1 C764.7,-118.0 765.4,-114.9 766.0,-111.7 C766.6,-108.6 767.3,-105.4 767.9,-102.3 C768.5,-99.1 769.1,-96.0 769.6,-92.8 C770.2,-89.7 770.8,-86.5 771.3,-83.4 C771.9,-80.3 772.4,-77.1 772.9,-74.0 C773.5,-70.8 774.0,-67.7 774.6,-64.6 C775.1,-61.5 775.6,-58.4 776.2,-55.3 C776.8,-52.2 777.4,-49.1 778.0,-46.0 C778.6,-42.9 779.2,-39.8 779.7,-36.8 C780.3,-33.7 780.9,-30.6 781.4,-27.6 C781.9,-24.5 782.5,-21.5 783.0,-18.4 C783.5,-15.4 784.0,-12.3 784.5,-9.3 C785.0,-6.3 785.4,-3.2 785.9,-0.2 C786.3,2.8 786.8,5.8 787.2,8.8 C787.6,11.8 788.0,14.8 788.4,17.8 C788.8,20.8 789.1,23.8 789.5,26.7 C789.8,29.7 790.2,32.6 790.5,35.6 C790.8,38.5 791.1,41.5 791.3,44.4 C791.6,47.3 791.9,50.2 792.1,53.2 C792.3,56.1 792.5,59.0 792.7,61.8 C792.9,64.7 793.1,67.6 793.2,70.5 C793.4,73.3 793.5,76.2 793.6,79.0 C793.7,81.9 793.8,84.7 793.8,87.5 C793.9,90.3 793.9,93.1 793.9,95.9 C793.9,98.7 793.9,101.5 793.8,104.2 C793.8,107.0 793.7,109.8 793.6,112.5 C793.5,115.2 793.4,118.0 793.2,120.7 C793.1,123.4 792.9,126.1 792.7,128.8 C792.5,131.5 792.2,134.1 792.0,136.8 C791.7,139.5 791.4,142.1 791.1,144.7 C790.8,147.4 790.4,150.0 790.0,152.6 C789.7,155.2 789.3,157.8 788.8,160.3 C788.4,162.9 787.9,165.5 787.4,168.0 C786.9,170.5 786.4,173.1 785.9,175.6 C785.3,178.1 784.8,180.6 784.1,183.1 C783.5,185.5 782.9,188.0 782.2,190.5 C781.6,192.9 780.9,195.3 780.2,197.8 C779.4,200.2 778.7,202.6 777.9,205.0 C777.1,207.4 776.3,209.7 775.4,212.1 C774.6,214.4 773.7,216.8 772.8,219.1 C771.9,221.4 771.0,223.8 770.0,226.0 C769.1,228.3 768.1,230.6 767.0,232.9 C766.0,235.2 765.0,237.4 763.9,239.6 C762.8,241.9 761.7,244.1 760.5,246.3 C759.4,248.5 758.2,250.7 757.0,252.9 C755.8,255.0 754.6,257.2 753.3,259.4 C752.1,261.5 750.8,263.6 749.4,265.8 C748.1,267.9 746.8,270.0 745.4,272.1 C744.0,274.2 742.6,276.2 741.2,278.3 C739.7,280.4 738.3,282.4 736.8,284.5 C735.3,286.5 733.8,288.5 732.2,290.5 C730.7,292.5 729.1,294.5 727.5,296.5 C725.9,298.5 724.2,300.5 722.5,302.4 C720.9,304.4 719.2,306.3 717.5,308.3 C715.7,310.2 714.0,312.1 712.2,314.0 C710.4,315.9 708.6,317.8 706.8,319.7 C704.9,321.6 703.1,323.5 701.2,325.3 C699.3,327.2 697.3,329.0 695.4,330.8 C693.4,332.7 691.5,334.5 689.5,336.3 C687.5,338.1 685.4,339.9 683.4,341.7 C681.3,343.5 679.2,345.2 677.1,347.0 C675.0,348.8 672.9,350.5 670.7,352.3 C668.6,354.0 666.4,355.7 664.2,357.4 C661.9,359.2 659.7,360.9 657.5,362.6 C655.2,364.2 652.9,365.9 650.6,367.6 C648.3,369.3 646.0,371.0 643.7,372.6 C641.3,374.3 638.9,375.9 636.6,377.6 C634.2,379.2 631.8,380.8 629.3,382.5 C626.9,384.1 624.4,385.7 622.0,387.3 C619.5,388.9 617.0,390.5 614.5,392.1 C612.0,393.7 609.5,395.3 606.9,396.8 C604.4,398.4 601.8,400.0 599.2,401.5 C596.6,403.1 594.0,404.6 591.4,406.1 C588.8,407.7 586.2,409.2 583.5,410.7 C580.9,412.3 578.2,413.8 575.5,415.3 C572.8,416.8 570.2,418.3 567.4,419.8 C564.7,421.3 562.0,422.8 559.3,424.3 C556.6,425.8 553.8,427.3 551.1,428.7 C548.3,430.2 545.5,431.7 542.8,433.2 C540.0,434.6 537.2,436.1 534.4,437.6 C531.6,439.0 528.8,440.5 526.0,441.9 C523.2,443.4 520.3,444.8 517.5,446.3 C514.7,447.7 511.8,449.2 509.0,450.6 C506.1,452.0 503.3,453.5 500.4,454.9 C497.6,456.3 494.7,457.7 491.8,459.2 C488.9,460.6 486.1,462.0 483.2,463.4 C480.3,464.8 477.9,465.8 474.5,467.6 C471.1,469.5 465.3,471.2 462.7,474.6 C460.1,478.0 459.9,484.2 458.9,488.1 C458.0,492.0 457.5,494.6 456.8,497.9 C456.1,501.2 455.4,504.5 454.8,507.7 C454.1,511.0 453.4,514.3 452.7,517.6 C452.0,520.8 451.3,524.1 450.7,527.4 C450.0,530.6 449.4,533.9 448.7,537.2 C448.0,540.5 447.4,543.7 446.7,547.0 C446.1,550.3 445.5,553.5 444.8,556.8 C444.2,560.0 443.6,563.3 443.0,566.5 C442.3,569.8 441.7,573.0 441.1,576.3 C440.5,579.5 439.9,582.8 439.4,586.0 C438.8,589.2 438.2,592.5 437.6,595.7 C437.1,598.9 436.5,602.2 436.0,605.4 C435.4,608.6 434.9,611.8 434.4,615.0 C433.8,618.2 433.3,621.4 432.8,624.6 C432.4,627.8 431.9,631.0 431.4,634.2 C431.0,637.4 430.5,640.6 430.1,643.8 C429.7,646.9 429.3,650.1 428.9,653.3 C428.6,656.4 428.2,659.6 427.9,662.7 C427.5,665.9 427.2,669.0 426.9,672.2 C426.6,675.3 426.3,678.4 426.1,681.6 C425.8,684.7 425.6,687.8 425.4,690.9 C425.2,694.0 425.0,697.1 424.8,700.2 C424.7,703.3 424.5,706.4 424.4,709.5 C424.3,712.6 424.2,715.6 424.1,718.7 C424.1,721.7 424.1,724.8 424.1,727.8 C424.0,730.9 424.1,733.9 424.1,736.9 C424.2,740.0 424.2,743.0 424.3,746.0 C424.4,749.0 424.6,752.0 424.7,755.0 C424.9,758.0 425.1,760.9 425.3,763.9 C425.5,766.9 425.8,769.8 426.0,772.8 C426.3,775.7 426.6,778.6 427.0,781.6 C427.3,784.5 427.7,787.4 428.1,790.3 C428.4,793.2 428.9,796.1 429.3,799.0 C429.8,801.8 430.3,804.7 430.8,807.6 C431.3,810.4 431.8,813.3 432.4,816.1 C433.0,818.9 433.6,821.7 434.2,824.6 C434.8,827.4 435.5,830.2 436.2,832.9 C436.9,835.7 437.6,838.5 438.4,841.3 C439.2,844.0 440.0,846.8 440.8,849.5 C441.6,852.2 442.5,855.0 443.4,857.7 C444.3,860.4 445.3,863.0 446.2,865.7 C447.2,868.4 448.2,871.1 449.3,873.7 C450.3,876.3 451.4,879.0 452.5,881.6 C453.6,884.2 454.8,886.8 456.0,889.4 C457.2,892.0 458.4,894.5 459.7,897.1 C460.9,899.6 462.2,902.2 463.5,904.7 C464.9,907.2 466.2,909.7 467.6,912.2 C469.0,914.7 470.5,917.1 471.9,919.6 C473.4,922.1 474.9,924.5 476.4,926.9 C477.9,929.3 479.5,931.7 481.1,934.1 C482.7,936.5 484.3,938.9 485.9,941.2 C487.6,943.6 489.3,945.9 491.0,948.3 C492.7,950.6 494.4,952.9 496.2,955.2 C498.0,957.5 499.9,959.7 501.8,961.9 C503.6,964.2 505.5,966.4 507.4,968.6 C509.3,970.9 511.2,973.1 513.1,975.3 C515.0,977.5 517.0,979.7 519.0,982.0 C520.9,984.2 522.9,986.3 524.9,988.5 C527.0,990.7 529.0,992.9 531.1,995.0 C533.1,997.2 535.2,999.4 537.4,1001.5 C539.5,1003.6 541.6,1005.7 543.8,1007.9 C546.0,1010.0 548.2,1012.0 550.4,1014.1 C552.7,1016.2 554.9,1018.2 557.2,1020.3 C559.5,1022.3 561.8,1024.3 564.2,1026.3 C566.5,1028.3 568.9,1030.3 571.3,1032.2 C573.7,1034.2 576.2,1036.1 578.6,1038.0 C581.1,1040.0 583.6,1041.9 586.1,1043.8 C588.6,1045.7 591.1,1047.5 593.7,1049.4 C596.2,1051.3 598.8,1053.1 601.4,1055.0 C604.0,1056.8 606.6,1058.6 609.2,1060.4 C611.8,1062.2 614.5,1064.0 617.1,1065.8 C619.8,1067.6 622.5,1069.4 625.2,1071.2 C627.9,1072.9 630.6,1074.7 633.3,1076.4 C636.0,1078.2 638.8,1079.9 641.6,1081.6 C644.3,1083.3 647.1,1085.0 649.9,1086.7 C652.7,1088.4 655.5,1090.1 658.3,1091.8 C661.1,1093.5 664.0,1095.1 666.8,1096.8 C669.7,1098.4 672.5,1100.1 675.4,1101.7 C678.3,1103.3 681.2,1104.9 684.1,1106.4 C687.0,1108.0 690.0,1109.6 692.9,1111.1 C695.9,1112.6 698.9,1114.1 701.8,1115.6 C704.8,1117.1 707.8,1118.5 710.9,1120.0 C713.9,1121.4 716.9,1122.8 720.0,1124.2 C723.1,1125.5 726.1,1126.9 729.2,1128.2 C732.3,1129.5 735.5,1130.7 738.6,1131.9 C741.8,1133.1 744.9,1134.3 748.2,1135.4 C751.4,1136.5 754.6,1137.6 757.9,1138.5 C761.3,1139.4 764.4,1140.6 768.1,1140.9 C771.7,1141.1 778.0,1140.1 780.0,1140.0 L707.1,1086.6 C705.7,1085.7 701.8,1082.7 699.1,1080.8 C696.5,1078.8 693.9,1076.8 691.3,1074.9 C688.7,1072.9 686.1,1071.0 683.5,1069.0 C681.0,1067.0 678.4,1065.1 675.9,1063.1 C673.3,1061.1 670.8,1059.2 668.3,1057.2 C665.8,1055.2 663.3,1053.3 660.8,1051.3 C658.4,1049.3 655.9,1047.3 653.5,1045.4 C651.0,1043.4 648.6,1041.4 646.2,1039.4 C643.9,1037.4 641.5,1035.4 639.1,1033.4 C636.8,1031.4 634.5,1029.4 632.2,1027.4 C629.9,1025.4 627.6,1023.4 625.4,1021.4 C623.1,1019.4 620.9,1017.3 618.7,1015.3 C616.5,1013.3 614.3,1011.3 612.2,1009.2 C610.0,1007.2 607.9,1005.2 605.8,1003.2 C603.7,1001.2 601.6,999.1 599.5,997.1 C597.5,995.1 595.4,993.1 593.4,991.0 C591.4,989.0 589.4,987.0 587.4,985.0 C585.5,982.9 583.5,980.9 581.6,978.9 C579.7,976.9 577.8,974.9 575.9,972.9 C574.1,970.9 572.2,968.9 570.4,966.9 C568.5,964.9 566.7,962.9 564.9,960.9 C563.1,958.9 561.3,956.9 559.6,954.9 C557.8,952.9 556.1,950.9 554.4,949.0 C552.7,947.0 551.0,945.0 549.3,943.0 C547.6,941.0 546.0,939.0 544.4,937.1 C542.7,935.1 541.1,933.1 539.6,931.1 C538.0,929.1 536.5,927.1 534.9,925.1 C533.3,923.2 531.5,921.3 529.9,919.4 C528.3,917.5 526.7,915.5 525.1,913.6 C523.6,911.6 522.0,909.7 520.5,907.7 C519.0,905.7 517.6,903.7 516.1,901.7 C514.7,899.7 513.2,897.7 511.9,895.6 C510.5,893.6 509.1,891.5 507.8,889.5 C506.4,887.4 505.1,885.3 503.8,883.2 C502.5,881.1 501.3,879.0 500.1,876.8 C498.8,874.7 497.7,872.5 496.5,870.4 C495.4,868.2 494.3,866.0 493.2,863.7 C492.1,861.5 491.1,859.3 490.1,857.0 C489.1,854.7 488.2,852.5 487.3,850.2 C486.3,847.9 485.4,845.5 484.6,843.2 C483.7,840.9 482.9,838.5 482.1,836.2 C481.3,833.8 480.5,831.4 479.8,829.0 C479.0,826.6 478.3,824.2 477.6,821.8 C476.9,819.3 476.2,816.9 475.5,814.4 C474.9,812.0 474.2,809.5 473.6,807.0 C473.0,804.5 472.4,802.0 471.8,799.5 C471.3,797.0 470.7,794.4 470.2,791.9 C469.7,789.3 469.2,786.8 468.7,784.2 C468.2,781.6 467.8,779.0 467.4,776.3 C466.9,773.7 466.5,771.1 466.1,768.4 C465.8,765.8 465.4,763.1 465.1,760.4 C464.7,757.7 464.4,755.0 464.1,752.3 C463.8,749.5 463.5,746.8 463.3,744.0 C463.0,741.3 462.7,738.5 462.5,735.7 C462.3,732.9 462.1,730.1 461.9,727.3 C461.7,724.4 461.6,721.6 461.4,718.7 C461.3,715.9 461.1,713.0 461.0,710.1 C460.9,707.2 460.8,704.3 460.7,701.4 C460.7,698.4 460.6,695.5 460.6,692.5 C460.5,689.6 460.5,686.6 460.5,683.6 C460.5,680.6 460.5,677.6 460.6,674.6 C460.6,671.6 460.7,668.6 460.7,665.5 C460.8,662.5 460.9,659.4 461.0,656.4 C461.2,653.3 461.3,650.2 461.5,647.1 C461.6,644.0 461.8,640.9 462.0,637.8 C462.2,634.7 462.4,631.5 462.7,628.4 C462.9,625.3 463.2,622.1 463.5,619.0 C463.8,615.8 464.2,612.7 464.5,609.5 C464.8,606.3 465.2,603.1 465.6,600.0 C466.0,596.8 466.4,593.6 466.9,590.4 C467.3,587.2 467.7,584.0 468.2,580.8 C468.6,577.5 469.1,574.3 469.5,571.1 C470.0,567.9 470.5,564.6 471.0,561.4 C471.4,558.1 471.9,554.9 472.4,551.6 C472.9,548.4 473.4,545.1 473.9,541.8 C474.4,538.6 474.9,535.3 475.4,532.0 C475.9,528.7 476.4,525.5 476.9,522.2 C477.4,518.9 477.9,515.6 478.5,512.3 C479.0,509.0 479.5,505.7 480.0,502.4 C480.6,499.1 481.5,494.9 481.7,492.5 C481.8,490.1 480.4,488.9 480.9,488.1 C481.4,487.2 482.6,488.3 484.6,487.5 C486.7,486.6 490.3,484.4 493.1,482.9 C496.0,481.4 498.8,479.9 501.6,478.3 C504.5,476.8 507.3,475.3 510.1,473.7 C513.0,472.2 515.8,470.7 518.6,469.2 C521.4,467.6 524.2,466.1 527.0,464.5 C529.9,463.0 532.7,461.5 535.5,459.9 C538.3,458.4 541.1,456.8 543.9,455.3 C546.6,453.8 549.4,452.2 552.2,450.6 C555.0,449.1 557.7,447.5 560.5,446.0 C563.2,444.4 566.0,442.9 568.7,441.3 C571.5,439.7 574.2,438.2 576.9,436.6 C579.6,435.0 582.3,433.4 585.0,431.8 C587.7,430.2 590.4,428.6 593.1,427.0 C595.7,425.4 598.4,423.8 601.0,422.2 C603.7,420.6 606.3,419.0 608.9,417.3 C611.5,415.7 614.1,414.0 616.7,412.4 C619.2,410.7 621.8,409.0 624.3,407.4 C626.8,405.7 629.4,404.0 631.8,402.3 C634.3,400.6 636.8,398.9 639.3,397.1 C641.7,395.4 644.1,393.7 646.6,391.9 C649.0,390.2 651.3,388.4 653.7,386.6 C656.1,384.9 658.4,383.1 660.7,381.3 C663.1,379.5 665.4,377.7 667.6,375.9 C669.9,374.1 672.2,372.2 674.4,370.4 C676.6,368.5 678.8,366.7 681.0,364.8 C683.2,363.0 685.3,361.1 687.5,359.2 C689.6,357.4 691.7,355.5 693.8,353.6 C695.9,351.7 698.0,349.8 700.0,347.9 C702.1,345.9 704.1,344.0 706.1,342.0 C708.0,340.1 710.0,338.1 711.9,336.2 C713.9,334.2 715.8,332.2 717.6,330.2 C719.5,328.2 721.3,326.2 723.1,324.1 C724.9,322.1 726.7,320.0 728.5,318.0 C730.2,315.9 731.9,313.8 733.6,311.7 C735.3,309.6 736.9,307.5 738.5,305.3 C740.1,303.2 741.7,301.1 743.3,298.9 C744.8,296.8 746.3,294.6 747.8,292.4 C749.3,290.2 750.8,288.0 752.2,285.8 C753.6,283.6 755.0,281.4 756.4,279.1 C757.7,276.9 759.1,274.7 760.4,272.4 C761.7,270.1 763.0,267.9 764.2,265.6 C765.5,263.3 766.7,261.0 767.9,258.7 C769.1,256.4 770.3,254.1 771.4,251.7 C772.5,249.4 773.6,247.1 774.7,244.7 C775.7,242.3 776.8,239.9 777.8,237.6 C778.8,235.2 779.7,232.8 780.7,230.3 C781.6,227.9 782.5,225.5 783.4,223.0 C784.2,220.6 785.1,218.1 785.9,215.7 C786.7,213.2 787.5,210.7 788.2,208.2 C789.0,205.7 789.7,203.2 790.4,200.7 C791.0,198.1 791.7,195.6 792.3,193.0 C792.9,190.5 793.5,187.9 794.1,185.3 C794.6,182.8 795.1,180.2 795.6,177.6 C796.1,175.0 796.6,172.3 797.0,169.7 C797.5,167.1 797.9,164.4 798.2,161.8 C798.6,159.1 798.9,156.5 799.2,153.8 C799.5,151.1 799.8,148.4 800.1,145.7 C800.3,143.0 800.5,140.3 800.7,137.6 C800.9,134.8 801.1,132.1 801.2,129.3 C801.3,126.6 801.4,123.8 801.5,121.1 C801.6,118.3 801.6,115.5 801.7,112.7 C801.7,109.9 801.7,107.1 801.6,104.3 C801.6,101.5 801.6,98.7 801.5,95.8 C801.4,93.0 801.3,90.1 801.2,87.3 C801.1,84.4 800.9,81.6 800.8,78.7 C800.6,75.8 800.4,72.9 800.2,70.0 C800.0,67.2 799.8,64.2 799.5,61.3 C799.3,58.4 799.0,55.5 798.7,52.6 C798.4,49.6 798.1,46.7 797.8,43.7 C797.5,40.8 797.1,37.8 796.7,34.9 C796.4,31.9 796.0,28.9 795.6,25.9 C795.2,23.0 794.8,20.0 794.3,17.0 C793.9,14.0 793.4,11.0 793.0,8.0 C792.5,4.9 792.0,1.9 791.5,-1.1 C791.0,-4.1 790.5,-7.2 789.9,-10.2 C789.4,-13.2 788.9,-16.3 788.3,-19.3 C787.7,-22.4 787.2,-25.5 786.6,-28.5 C786.0,-31.6 785.4,-34.6 784.8,-37.7 C784.2,-40.8 783.5,-43.9 782.9,-47.0 C782.3,-50.0 781.7,-53.1 781.0,-56.2 C780.3,-59.3 779.5,-62.4 778.8,-65.5 C778.0,-68.6 777.2,-71.6 776.5,-74.7 C775.7,-77.8 774.8,-80.9 774.0,-84.0 C773.2,-87.1 772.4,-90.2 771.6,-93.3 C770.8,-96.4 770.0,-99.5 769.2,-102.6 C768.4,-105.7 767.6,-108.8 766.9,-111.9 C766.1,-115.0 765.3,-118.1 764.5,-121.2 C763.7,-124.4 763.0,-127.5 762.2,-130.6 C761.5,-133.7 760.4,-138.4 760.0,-140.0 Z" fill="#A86B12" fill-opacity="0.95" stroke="none"/>
</svg>