<svg xmlns="http://www.w3.org/2000/svg" viewBox="-371 -414 1823 1908" width="1823" height="1908" role="img" aria-label="Muitos percursos que chegam a um mesmo lugar"><rect x="-1283" y="-1368" width="3646" height="3816" fill="#FFF"/>
<g transform="translate(254.8,183.5) scale(0.71300)"><path d="M664.0,-20.0 L653.3,-14.6 L657.3,-3.5 L644.4,14.1 L636.8,30.7 L627.7,12.7 L609.7,7.0 L600.1,-11.7 L594.1,-17.8 L664.0,-20.0 Z M577.9,-15.9 L582.8,-6.8 L585.7,3.0 L586.3,10.6 L571.3,15.3 L550.3,8.9 L547.5,5.3 L543.2,-10.7 L561.9,-15.9 L568.3,-13.1 L576.9,-16.1 Z M259.5,956.4 L275.0,958.2 L267.3,977.2 L247.4,984.5 L237.2,972.9 L224.8,973.6 L241.2,952.1 L260.4,947.5 L260.2,953.2 Z M585.1,883.9 L594.1,913.1 L591.0,936.3 L587.7,992.2 L571.5,994.6 L560.8,993.1 L548.7,1015.2 L535.7,1007.2 L526.9,977.0 L528.8,960.9 L533.0,957.7 L525.5,943.9 L528.3,922.9 L518.7,905.3 L513.2,884.6 L521.4,886.2 L544.1,879.4 L561.4,860.1 L575.4,866.2 L583.8,875.0 L582.1,881.7 Z M571.5,758.0 L574.6,774.4 L570.3,815.2 L564.3,845.8 L543.5,839.3 L545.2,830.0 L538.2,819.0 L530.9,813.0 L531.8,802.7 L532.9,791.8 L528.3,785.3 L547.8,768.3 L557.6,762.9 L564.4,760.4 L567.6,743.9 L571.1,754.4 Z M17.1,-20.0 L27.6,-9.7 L44.2,34.6 L76.5,52.0 L92.9,69.8 L100.4,89.0 L99.1,95.0 L78.9,90.5 L86.6,91.9 L113.6,126.9 L112.8,142.6 L123.8,135.1 L143.6,134.2 L176.4,145.7 L178.6,168.1 L172.3,184.5 L157.2,191.3 L155.3,201.1 L141.7,207.7 L132.4,217.5 L124.6,219.8 L141.5,227.1 L166.0,226.9 L148.9,245.6 L132.1,255.1 L109.5,262.5 L59.1,261.8 L33.7,254.5 L21.0,264.1 L7.9,270.5 L-12.4,270.3 L-20.0,212.0 L-20.0,208.8 L-20.0,-20.0 Z M820.0,606.3 L799.2,595.6 L788.1,621.7 L773.1,617.6 L759.7,586.5 L772.0,577.3 L743.2,568.2 L729.2,578.4 L706.8,587.3 L699.2,588.8 L706.8,614.5 L707.5,629.8 L705.2,653.3 L737.0,685.9 L778.2,720.1 L806.7,777.4 L812.8,887.9 L807.7,884.7 L781.2,860.8 L757.6,860.0 L733.7,845.1 L680.7,791.6 L657.9,784.7 L657.5,780.6 L635.3,755.4 L626.1,748.4 L621.8,732.1 L602.6,684.2 L552.6,660.2 L508.6,672.1 L470.2,695.8 L432.7,721.2 L422.1,734.3 L388.3,738.9 L357.7,722.6 L350.5,716.6 L339.9,719.9 L333.4,721.2 L309.1,714.4 L300.4,707.0 L261.7,732.9 L253.9,771.8 L264.1,788.0 L257.4,799.8 L262.5,814.1 L207.7,855.0 L151.9,872.0 L144.9,894.5 L131.7,901.1 L102.1,941.4 L89.6,1005.0 L-20.0,1020.0 L1.3,723.0 L26.5,708.9 L47.1,636.7 L38.9,638.3 L54.0,588.0 L68.9,614.1 L64.2,592.6 L41.7,571.8 L49.2,568.2 L45.1,537.9 L32.5,531.9 L-1.1,499.7 L-3.4,483.5 L2.3,474.3 L4.9,472.1 L-20.0,466.4 L-19.3,459.6 L-16.6,389.8 L9.2,386.8 L34.4,389.6 L19.9,349.4 L12.3,327.1 L40.5,327.3 L46.0,344.9 L92.2,350.4 L120.9,339.7 L106.0,332.0 L158.6,308.2 L174.9,292.9 L178.3,255.2 L218.0,242.7 L259.6,225.2 L287.0,225.0 L286.5,222.2 L263.9,219.7 L274.1,213.2 L299.1,220.6 L286.3,213.2 L283.3,200.7 L291.5,188.9 L310.7,163.8 L322.6,135.7 L349.8,119.2 L390.9,107.7 L419.3,112.8 L423.2,110.0 L432.8,92.5 L471.2,104.7 L479.5,98.1 L489.1,108.9 L491.3,83.5 L525.4,85.0 L540.4,97.2 L509.2,78.6 L502.2,57.4 L491.8,54.4 L506.2,43.9 L491.1,18.8 L489.5,-0.3 L465.5,-20.0 L538.8,-15.8 L533.9,-1.1 L526.8,15.9 L539.6,19.9 L550.4,32.7 L547.7,47.6 L570.1,49.6 L602.8,58.5 L597.4,74.6 L632.6,67.9 L658.8,58.3 L685.4,50.5 L724.4,65.7 L740.2,87.6 L765.8,92.8 L754.7,82.4 L733.7,77.9 L729.0,69.1 L749.6,78.3 L820.0,60.6 L820.0,606.3 Z M738.9,-20.0 L744.4,-11.4 L733.5,-3.8 L699.6,-1.2 L681.7,-8.8 L682.0,-16.0 L738.9,-20.0 Z M802.8,895.5 L800.6,896.1 L799.3,895.4 L798.5,894.3 L799.2,891.8 L803.9,893.3 L803.8,894.7 Z M389.8,102.2 L383.5,104.2 L381.8,103.8 L382.3,103.2 L387.8,102.0 Z M371.5,105.2 L362.5,106.1 L359.3,105.4 L358.8,104.8 L361.3,104.4 L369.0,104.3 L371.3,104.9 Z M334.2,113.9 L325.8,118.0 L325.1,117.4 L330.4,113.8 Z M344.0,109.4 L339.7,109.9 L337.7,109.1 L348.0,106.8 L354.4,106.1 L355.6,106.4 Z M-20.0,337.7 L-19.3,337.7 L-18.8,338.5 L-18.8,338.5 L-20.0,341.1 L-20.0,337.7 Z M4.3,354.3 L4.6,357.4 L2.5,358.1 L0.8,357.0 L-2.7,357.0 L-6.2,357.7 L-5.2,352.2 L1.2,352.9 Z M781.0,16.8 L779.5,17.8 L771.8,16.2 L762.3,12.3 L763.0,4.7 L764.9,1.5 L782.4,10.0 L782.9,13.2 Z M722.5,52.7 L712.3,55.3 L697.8,53.7 L699.7,41.5 L709.3,37.7 L719.9,44.1 L717.4,50.4 Z M666.7,20.0 L658.1,20.1 L647.6,22.9 L649.3,19.5 L653.4,16.8 L655.6,15.8 L662.9,17.0 L664.9,18.2 Z M668.8,-15.1 L664.8,-12.8 L663.8,-12.9 L662.1,-16.2 L664.2,-18.1 L665.3,-19.7 L666.3,-19.7 L667.7,-17.9 Z M613.4,24.1 L627.2,27.4 L632.1,31.0 L629.0,37.5 L619.0,38.8 L599.1,24.0 L608.6,20.7 Z M574.1,26.6 L571.0,27.1 L567.5,26.0 L561.5,21.3 L560.7,20.1 L563.7,20.9 L567.6,23.4 L570.6,23.8 L574.8,25.9 Z M554.7,24.4 L550.0,25.2 L547.7,23.8 L543.1,23.4 L541.0,14.7 L541.3,14.2 L543.6,14.8 L551.5,18.8 L554.4,23.2 Z M585.7,32.0 L583.8,32.3 L580.7,27.8 L580.2,26.4 L583.3,23.4 L585.0,20.1 L589.9,15.1 L592.5,9.2 L593.7,9.3 L592.8,14.6 L587.0,29.3 Z M612.2,50.8 L605.2,50.9 L602.4,48.6 L599.6,48.0 L600.8,45.2 L602.7,44.2 L609.5,46.1 L611.9,49.6 Z M475.8,30.0 L474.9,31.1 L474.9,23.2 L479.3,14.8 L481.4,15.0 L479.4,17.2 L478.9,18.8 L478.2,22.0 L478.7,23.6 L490.1,24.1 L488.9,25.6 L477.4,26.6 Z M42.6,559.9 L40.8,565.3 L37.7,560.3 L33.4,555.8 L32.5,551.8 L32.5,550.7 L37.6,553.6 Z M50.1,266.8 L46.1,268.9 L44.9,271.2 L43.9,272.2 L41.3,272.8 L38.8,272.9 L29.0,268.0 L26.7,268.2 L28.9,266.0 L35.1,264.2 L38.5,261.8 L46.4,264.1 Z M324.5,127.5 L320.0,131.6 L317.1,130.4 L316.4,129.5 L317.7,126.3 L324.3,121.0 Z M616.8,754.6 L618.8,758.5 L618.5,763.9 L607.9,762.4 L602.9,759.3 L609.6,757.3 L615.1,756.8 Z M532.0,1004.6 L529.3,1011.3 L526.0,1006.6 L525.7,1002.5 L526.2,1001.4 L529.9,1003.1 Z M516.9,873.5 L515.4,876.5 L513.0,876.2 L513.8,874.1 L515.8,869.6 L518.5,868.1 L519.6,869.4 L518.5,872.0 Z M317.6,952.9 L316.8,953.7 L301.1,946.0 L296.0,945.1 L294.7,944.0 L294.8,939.9 L295.1,938.2 L305.5,937.4 L313.9,940.2 L318.6,947.9 L319.0,949.2 Z M173.7,1014.7 L171.9,1018.7 L164.2,1017.3 L162.3,1015.6 L163.9,1010.9 L166.3,1010.3 L166.3,1007.1 L168.7,1003.7 L179.7,1001.0 L182.2,1003.4 L182.8,1006.6 L176.3,1013.7 Z M820.0,619.7 L816.5,617.4 L810.5,614.7 L806.6,610.8 L812.5,602.7 L819.5,611.3 L820.0,619.7 Z M820.0,631.4 L819.1,629.7 L819.5,628.2 L820.0,627.1 L820.0,631.4 Z M811.3,638.7 L807.9,638.0 L801.4,623.3 L802.5,618.3 L799.0,607.8 L802.4,606.4 L804.8,615.1 L808.5,625.3 L810.8,636.5 Z M283.4,204.9 L288.2,208.0 L289.0,209.0 L289.4,210.2 L283.7,211.4 L277.5,207.5 L273.5,208.4 L271.9,206.6 L271.9,205.4 L276.0,204.5 Z M488.8,34.2 L487.1,35.5 L482.8,35.3 L480.3,34.1 L481.0,32.7 L483.2,31.6 L485.0,31.4 L488.0,32.1 Z M407.9,98.2 L403.8,98.4 L404.9,96.9 L408.8,95.7 L410.9,95.7 Z" fill="none" stroke="#131313" stroke-width="1.40" stroke-linejoin="round"/></g>
<path d="M1399.8,806.0 L1393.8,802.7 L1387.9,799.4 L1381.9,796.1 L1376.0,792.8 L1370.0,789.5 L1364.1,786.2 L1358.1,782.9 L1352.1,779.6 L1346.2,776.3 L1340.2,773.0 L1334.2,769.8 L1328.3,766.5 L1322.3,763.3 L1316.3,760.0 L1310.3,756.8 L1304.4,753.6 L1298.4,750.4 L1292.4,747.2 L1286.4,744.0 L1280.4,740.8 L1274.4,737.7 L1268.4,734.5 L1262.4,731.4 L1256.3,728.3 L1250.3,725.2 L1244.3,722.1 L1238.3,719.1 L1232.2,716.0 L1226.2,713.0 L1220.1,710.0 L1214.1,707.0 L1208.0,704.1 L1201.9,701.1 L1195.9,698.2 L1189.8,695.3 L1183.7,692.4 L1177.6,689.6 L1171.5,686.8 L1165.4,684.0 L1159.3,681.2 L1153.1,678.4 L1147.0,675.7 L1140.9,673.0 L1134.7,670.3 L1128.6,667.7 L1122.4,665.0 L1116.2,662.4 L1110.0,659.9 L1103.8,657.3 L1097.6,654.8 L1091.4,652.3 L1085.2,649.9 L1079.0,647.5 L1072.7,645.1 L1066.5,642.7 L1060.2,640.4 L1054.0,638.1 L1047.7,635.8 L1041.4,633.5 L1035.1,631.3 L1028.8,629.1 L1022.5,627.0 L1016.2,624.8 L1009.9,622.7 L1003.5,620.7 L997.2,618.7 L990.8,616.6 L984.4,614.7 L978.1,612.7 L971.7,610.8 L965.3,609.0 L958.9,607.1 L952.5,605.3 L946.0,603.5 L939.6,601.8 L933.2,600.0 L926.7,598.3 L920.2,596.7 L913.8,595.0 L907.3,593.4 L900.8,591.9 L894.3,590.3 L887.8,588.8 L881.3,587.3 L874.7,585.9 L868.2,584.4 L861.6,583.0 L855.1,581.7 L848.5,580.3 L842.0,579.0 L835.4,577.7 L828.8,576.5 L822.2,575.2 L815.6,574.0 L809.0,572.8 L802.4,571.7 L795.7,570.5 L789.1,569.4 L782.5,568.3 L775.8,567.3 L769.2,566.2 L762.5,565.2 L755.8,564.2 L749.1,563.2 L742.5,562.3 L735.8,561.3 L729.1,560.4 L722.4,559.5 L715.7,558.6 L709.0,557.8 L702.2,556.9 L695.5,556.1 L688.8,555.3 L682.1,554.5 L675.3,553.7 L668.6,552.9 L661.9,552.1 L655.1,551.4 L648.4,550.7 L641.6,549.9 L634.8,549.2 L628.1,548.5 L621.3,547.8 L614.5,547.2 L607.8,546.5 L601.0,545.8 L594.2,545.2 L587.5,544.5 L580.7,543.8 L573.9,543.2 L567.1,542.6 L560.3,541.9 L553.6,541.3 L546.8,540.6 L540.0,540.0" fill="none" stroke="#FFF" stroke-width="40" stroke-linecap="round"/>
<path d="M1079.3,1260.6 L1076.4,1254.4 L1073.5,1248.2 L1070.6,1242.0 L1067.8,1235.9 L1064.9,1229.7 L1062.0,1223.5 L1059.1,1217.4 L1056.2,1211.2 L1053.3,1205.0 L1050.4,1198.9 L1047.5,1192.7 L1044.6,1186.6 L1041.6,1180.5 L1038.7,1174.3 L1035.8,1168.2 L1032.8,1162.1 L1029.9,1156.0 L1026.9,1149.9 L1023.9,1143.8 L1020.9,1137.7 L1017.9,1131.6 L1014.9,1125.5 L1011.9,1119.5 L1008.8,1113.4 L1005.8,1107.4 L1002.7,1101.3 L999.6,1095.3 L996.5,1089.3 L993.4,1083.3 L990.3,1077.3 L987.2,1071.3 L984.0,1065.4 L980.8,1059.4 L977.6,1053.5 L974.4,1047.6 L971.2,1041.7 L967.9,1035.8 L964.6,1029.9 L961.3,1024.1 L958.0,1018.2 L954.7,1012.4 L951.3,1006.6 L947.9,1000.8 L944.5,995.0 L941.1,989.2 L937.7,983.5 L934.2,977.8 L930.7,972.0 L927.2,966.3 L923.6,960.7 L920.1,955.0 L916.5,949.4 L912.9,943.7 L909.2,938.1 L905.6,932.6 L901.9,927.0 L898.2,921.4 L894.5,915.9 L890.7,910.4 L886.9,904.9 L883.1,899.4 L879.2,894.0 L875.4,888.5 L871.5,883.1 L867.6,877.7 L863.6,872.4 L859.7,867.0 L855.7,861.7 L851.6,856.3 L847.6,851.0 L843.5,845.8 L839.4,840.5 L835.3,835.3 L831.2,830.0 L827.0,824.8 L822.8,819.7 L818.6,814.5 L814.3,809.4 L810.0,804.2 L805.7,799.1 L801.4,794.0 L797.0,789.0 L792.7,783.9 L788.3,778.9 L783.8,773.9 L779.4,768.9 L774.9,763.9 L770.4,758.9 L765.9,754.0 L761.4,749.0 L756.8,744.1 L752.2,739.2 L747.6,734.4 L743.0,729.5 L738.3,724.7 L733.6,719.8 L729.0,715.0 L724.2,710.2 L719.5,705.4 L714.8,700.7 L710.0,695.9 L705.2,691.2 L700.4,686.4 L695.6,681.7 L690.7,677.0 L685.9,672.3 L681.0,667.6 L676.1,663.0 L671.2,658.3 L666.3,653.7 L661.3,649.0 L656.4,644.4 L651.4,639.8 L646.4,635.2 L641.5,630.6 L636.5,626.0 L631.4,621.5 L626.4,616.9 L621.4,612.3 L616.3,607.8 L611.3,603.2 L606.2,598.7 L601.2,594.1 L596.1,589.6 L591.0,585.1 L585.9,580.6 L580.8,576.0 L575.8,571.5 L570.7,567.0 L565.5,562.5 L560.4,558.0 L555.3,553.5 L550.2,549.0 L545.1,544.5 L540.0,540.0" fill="none" stroke="#FFF" stroke-width="40" stroke-linecap="round"/>
<path d="M552.7,1439.9 L554.0,1433.2 L555.3,1426.5 L556.6,1419.9 L557.9,1413.2 L559.2,1406.5 L560.5,1399.8 L561.8,1393.1 L563.1,1386.4 L564.4,1379.7 L565.6,1373.1 L566.9,1366.4 L568.1,1359.7 L569.4,1353.0 L570.6,1346.3 L571.8,1339.6 L573.1,1332.9 L574.3,1326.3 L575.4,1319.6 L576.6,1312.9 L577.8,1306.2 L578.9,1299.5 L580.1,1292.8 L581.2,1286.2 L582.3,1279.5 L583.4,1272.8 L584.4,1266.1 L585.5,1259.4 L586.5,1252.7 L587.5,1246.1 L588.5,1239.4 L589.4,1232.7 L590.4,1226.0 L591.3,1219.3 L592.2,1212.7 L593.1,1206.0 L593.9,1199.3 L594.8,1192.6 L595.6,1185.9 L596.3,1179.3 L597.1,1172.6 L597.8,1165.9 L598.5,1159.2 L599.2,1152.6 L599.8,1145.9 L600.5,1139.2 L601.0,1132.5 L601.6,1125.9 L602.1,1119.2 L602.6,1112.5 L603.1,1105.8 L603.6,1099.2 L604.0,1092.5 L604.4,1085.8 L604.7,1079.1 L605.0,1072.5 L605.3,1065.8 L605.6,1059.1 L605.8,1052.5 L606.0,1045.8 L606.2,1039.1 L606.3,1032.4 L606.4,1025.8 L606.5,1019.1 L606.5,1012.4 L606.5,1005.8 L606.5,999.1 L606.4,992.4 L606.3,985.8 L606.2,979.1 L606.0,972.4 L605.8,965.8 L605.6,959.1 L605.4,952.4 L605.1,945.8 L604.7,939.1 L604.4,932.5 L604.0,925.8 L603.6,919.1 L603.1,912.5 L602.7,905.8 L602.2,899.2 L601.6,892.5 L601.0,885.8 L600.4,879.2 L599.8,872.5 L599.1,865.9 L598.5,859.2 L597.7,852.5 L597.0,845.9 L596.2,839.2 L595.4,832.6 L594.6,825.9 L593.7,819.3 L592.8,812.6 L591.9,806.0 L591.0,799.3 L590.0,792.7 L589.0,786.0 L588.0,779.3 L586.9,772.7 L585.9,766.0 L584.8,759.4 L583.7,752.7 L582.6,746.1 L581.4,739.4 L580.2,732.8 L579.0,726.1 L577.8,719.5 L576.6,712.8 L575.3,706.2 L574.1,699.5 L572.8,692.9 L571.5,686.2 L570.1,679.6 L568.8,672.9 L567.5,666.3 L566.1,659.6 L564.7,653.0 L563.3,646.3 L561.9,639.7 L560.5,633.1 L559.1,626.4 L557.7,619.8 L556.2,613.1 L554.8,606.5 L553.3,599.8 L551.9,593.2 L550.4,586.5 L548.9,579.9 L547.4,573.2 L546.0,566.6 L544.5,559.9 L543.0,553.3 L541.5,546.6 L540.0,540.0" fill="none" stroke="#FFF" stroke-width="40" stroke-linecap="round"/>
<path d="M21.4,1275.5 L26.3,1270.9 L31.3,1266.2 L36.3,1261.6 L41.3,1257.0 L46.3,1252.3 L51.2,1247.7 L56.2,1243.0 L61.2,1238.3 L66.1,1233.7 L71.1,1229.0 L76.0,1224.4 L81.0,1219.7 L85.9,1215.0 L90.8,1210.3 L95.8,1205.6 L100.7,1200.9 L105.6,1196.2 L110.5,1191.5 L115.3,1186.8 L120.2,1182.1 L125.1,1177.3 L129.9,1172.6 L134.7,1167.9 L139.5,1163.1 L144.3,1158.3 L149.1,1153.5 L153.9,1148.7 L158.7,1143.9 L163.4,1139.1 L168.1,1134.3 L172.8,1129.5 L177.5,1124.6 L182.2,1119.8 L186.9,1114.9 L191.5,1110.0 L196.1,1105.1 L200.7,1100.2 L205.3,1095.2 L209.8,1090.3 L214.4,1085.3 L218.9,1080.4 L223.4,1075.4 L227.8,1070.4 L232.3,1065.3 L236.7,1060.3 L241.1,1055.2 L245.5,1050.2 L249.8,1045.1 L254.2,1040.0 L258.5,1034.9 L262.8,1029.7 L267.0,1024.6 L271.2,1019.4 L275.4,1014.2 L279.6,1009.0 L283.8,1003.8 L287.9,998.5 L292.0,993.3 L296.1,988.0 L300.2,982.7 L304.2,977.4 L308.2,972.0 L312.2,966.7 L316.1,961.3 L320.0,955.9 L323.9,950.5 L327.8,945.1 L331.6,939.6 L335.4,934.1 L339.2,928.7 L343.0,923.2 L346.7,917.6 L350.4,912.1 L354.1,906.5 L357.8,901.0 L361.4,895.4 L365.0,889.7 L368.6,884.1 L372.2,878.5 L375.7,872.8 L379.2,867.1 L382.7,861.4 L386.1,855.7 L389.5,849.9 L392.9,844.2 L396.3,838.4 L399.7,832.6 L403.0,826.8 L406.3,821.0 L409.6,815.1 L412.8,809.3 L416.1,803.4 L419.3,797.5 L422.5,791.6 L425.7,785.7 L428.8,779.7 L431.9,773.8 L435.0,767.8 L438.1,761.8 L441.2,755.8 L444.3,749.8 L447.3,743.8 L450.3,737.8 L453.3,731.7 L456.3,725.7 L459.2,719.6 L462.2,713.5 L465.1,707.4 L468.0,701.3 L470.9,695.2 L473.8,689.1 L476.7,682.9 L479.5,676.8 L482.3,670.6 L485.2,664.5 L488.0,658.3 L490.8,652.1 L493.6,645.9 L496.4,639.8 L499.1,633.6 L501.9,627.3 L504.7,621.1 L507.4,614.9 L510.2,608.7 L512.9,602.5 L515.6,596.2 L518.3,590.0 L521.1,583.7 L523.8,577.5 L526.5,571.3 L529.2,565.0 L531.9,558.8 L534.6,552.5 L537.3,546.3 L540.0,540.0" fill="none" stroke="#FFF" stroke-width="40" stroke-linecap="round"/>
<path d="M-311.9,830.2 L-305.2,829.4 L-298.4,828.5 L-291.6,827.7 L-284.9,826.9 L-278.1,826.1 L-271.4,825.2 L-264.6,824.4 L-257.9,823.5 L-251.1,822.7 L-244.4,821.8 L-237.6,820.9 L-230.9,820.1 L-224.1,819.2 L-217.4,818.3 L-210.7,817.4 L-203.9,816.5 L-197.2,815.6 L-190.5,814.6 L-183.7,813.7 L-177.0,812.7 L-170.3,811.7 L-163.6,810.7 L-156.9,809.7 L-150.2,808.7 L-143.5,807.7 L-136.8,806.6 L-130.2,805.5 L-123.5,804.5 L-116.8,803.4 L-110.2,802.2 L-103.5,801.1 L-96.9,799.9 L-90.2,798.7 L-83.6,797.5 L-77.0,796.3 L-70.4,795.0 L-63.8,793.8 L-57.2,792.5 L-50.6,791.1 L-44.0,789.8 L-37.4,788.4 L-30.8,787.0 L-24.3,785.6 L-17.7,784.1 L-11.2,782.7 L-4.7,781.2 L1.9,779.6 L8.4,778.1 L14.9,776.5 L21.4,774.9 L27.9,773.2 L34.3,771.6 L40.8,769.9 L47.2,768.1 L53.7,766.4 L60.1,764.6 L66.5,762.8 L73.0,760.9 L79.4,759.1 L85.8,757.2 L92.1,755.2 L98.5,753.3 L104.9,751.3 L111.2,749.2 L117.6,747.2 L123.9,745.1 L130.2,743.0 L136.5,740.8 L142.8,738.6 L149.1,736.4 L155.4,734.2 L161.7,731.9 L167.9,729.6 L174.2,727.3 L180.4,724.9 L186.6,722.5 L192.9,720.1 L199.1,717.6 L205.3,715.2 L211.5,712.6 L217.6,710.1 L223.8,707.5 L230.0,704.9 L236.1,702.3 L242.2,699.6 L248.4,697.0 L254.5,694.2 L260.6,691.5 L266.7,688.7 L272.8,685.9 L278.9,683.1 L284.9,680.3 L291.0,677.4 L297.1,674.5 L303.1,671.5 L309.1,668.6 L315.2,665.6 L321.2,662.6 L327.2,659.6 L333.2,656.6 L339.2,653.5 L345.2,650.4 L351.2,647.3 L357.2,644.2 L363.1,641.0 L369.1,637.8 L375.0,634.6 L381.0,631.4 L386.9,628.2 L392.9,625.0 L398.8,621.7 L404.7,618.4 L410.6,615.1 L416.6,611.8 L422.5,608.5 L428.4,605.1 L434.3,601.8 L440.2,598.4 L446.1,595.1 L452.0,591.7 L457.8,588.3 L463.7,584.9 L469.6,581.5 L475.5,578.0 L481.4,574.6 L487.2,571.2 L493.1,567.7 L499.0,564.3 L504.8,560.8 L510.7,557.3 L516.6,553.9 L522.4,550.4 L528.3,546.9 L534.1,543.5 L540.0,540.0" fill="none" stroke="#FFF" stroke-width="40" stroke-linecap="round"/>
<path d="M-319.8,274.0 L-313.8,277.3 L-307.9,280.6 L-301.9,283.9 L-296.0,287.2 L-290.0,290.5 L-284.1,293.8 L-278.1,297.1 L-272.1,300.4 L-266.2,303.7 L-260.2,307.0 L-254.2,310.2 L-248.3,313.5 L-242.3,316.7 L-236.3,320.0 L-230.3,323.2 L-224.4,326.4 L-218.4,329.6 L-212.4,332.8 L-206.4,336.0 L-200.4,339.2 L-194.4,342.3 L-188.4,345.5 L-182.4,348.6 L-176.3,351.7 L-170.3,354.8 L-164.3,357.9 L-158.3,360.9 L-152.2,364.0 L-146.2,367.0 L-140.1,370.0 L-134.1,373.0 L-128.0,375.9 L-121.9,378.9 L-115.9,381.8 L-109.8,384.7 L-103.7,387.6 L-97.6,390.4 L-91.5,393.2 L-85.4,396.0 L-79.3,398.8 L-73.1,401.6 L-67.0,404.3 L-60.9,407.0 L-54.7,409.7 L-48.6,412.3 L-42.4,415.0 L-36.2,417.6 L-30.0,420.1 L-23.8,422.7 L-17.6,425.2 L-11.4,427.7 L-5.2,430.1 L1.0,432.5 L7.3,434.9 L13.5,437.3 L19.8,439.6 L26.0,441.9 L32.3,444.2 L38.6,446.5 L44.9,448.7 L51.2,450.9 L57.5,453.0 L63.8,455.2 L70.1,457.3 L76.5,459.3 L82.8,461.3 L89.2,463.4 L95.6,465.3 L101.9,467.3 L108.3,469.2 L114.7,471.0 L121.1,472.9 L127.5,474.7 L134.0,476.5 L140.4,478.2 L146.8,480.0 L153.3,481.7 L159.8,483.3 L166.2,485.0 L172.7,486.6 L179.2,488.1 L185.7,489.7 L192.2,491.2 L198.7,492.7 L205.3,494.1 L211.8,495.6 L218.4,497.0 L224.9,498.3 L231.5,499.7 L238.0,501.0 L244.6,502.3 L251.2,503.5 L257.8,504.8 L264.4,506.0 L271.0,507.2 L277.6,508.3 L284.3,509.5 L290.9,510.6 L297.5,511.7 L304.2,512.7 L310.8,513.8 L317.5,514.8 L324.2,515.8 L330.9,516.8 L337.5,517.7 L344.2,518.7 L350.9,519.6 L357.6,520.5 L364.3,521.4 L371.0,522.2 L377.8,523.1 L384.5,523.9 L391.2,524.7 L397.9,525.5 L404.7,526.3 L411.4,527.1 L418.1,527.9 L424.9,528.6 L431.6,529.3 L438.4,530.1 L445.2,530.8 L451.9,531.5 L458.7,532.2 L465.5,532.8 L472.2,533.5 L479.0,534.2 L485.8,534.8 L492.5,535.5 L499.3,536.2 L506.1,536.8 L512.9,537.4 L519.7,538.1 L526.4,538.7 L533.2,539.4 L540.0,540.0" fill="none" stroke="#FFF" stroke-width="40" stroke-linecap="round"/>
<path d="M0.7,-180.6 L3.6,-174.4 L6.5,-168.2 L9.4,-162.0 L12.2,-155.9 L15.1,-149.7 L18.0,-143.5 L20.9,-137.4 L23.8,-131.2 L26.7,-125.0 L29.6,-118.9 L32.5,-112.7 L35.4,-106.6 L38.4,-100.5 L41.3,-94.3 L44.2,-88.2 L47.2,-82.1 L50.1,-76.0 L53.1,-69.9 L56.1,-63.8 L59.1,-57.7 L62.1,-51.6 L65.1,-45.5 L68.1,-39.5 L71.2,-33.4 L74.2,-27.4 L77.3,-21.3 L80.4,-15.3 L83.5,-9.3 L86.6,-3.3 L89.7,2.7 L92.8,8.7 L96.0,14.6 L99.2,20.6 L102.4,26.5 L105.6,32.4 L108.8,38.3 L112.1,44.2 L115.4,50.1 L118.7,55.9 L122.0,61.8 L125.3,67.6 L128.7,73.4 L132.1,79.2 L135.5,85.0 L138.9,90.8 L142.3,96.5 L145.8,102.2 L149.3,108.0 L152.8,113.7 L156.4,119.3 L159.9,125.0 L163.5,130.6 L167.1,136.3 L170.8,141.9 L174.4,147.4 L178.1,153.0 L181.8,158.6 L185.5,164.1 L189.3,169.6 L193.1,175.1 L196.9,180.6 L200.8,186.0 L204.6,191.5 L208.5,196.9 L212.4,202.3 L216.4,207.6 L220.3,213.0 L224.3,218.3 L228.4,223.7 L232.4,229.0 L236.5,234.2 L240.6,239.5 L244.7,244.7 L248.8,250.0 L253.0,255.2 L257.2,260.3 L261.4,265.5 L265.7,270.6 L270.0,275.8 L274.3,280.9 L278.6,286.0 L283.0,291.0 L287.3,296.1 L291.7,301.1 L296.2,306.1 L300.6,311.1 L305.1,316.1 L309.6,321.1 L314.1,326.0 L318.6,331.0 L323.2,335.9 L327.8,340.8 L332.4,345.6 L337.0,350.5 L341.7,355.3 L346.4,360.2 L351.0,365.0 L355.8,369.8 L360.5,374.6 L365.2,379.3 L370.0,384.1 L374.8,388.8 L379.6,393.6 L384.4,398.3 L389.3,403.0 L394.1,407.7 L399.0,412.4 L403.9,417.0 L408.8,421.7 L413.7,426.3 L418.7,431.0 L423.6,435.6 L428.6,440.2 L433.6,444.8 L438.5,449.4 L443.5,454.0 L448.6,458.5 L453.6,463.1 L458.6,467.7 L463.7,472.2 L468.7,476.8 L473.8,481.3 L478.8,485.9 L483.9,490.4 L489.0,494.9 L494.1,499.4 L499.2,504.0 L504.2,508.5 L509.3,513.0 L514.5,517.5 L519.6,522.0 L524.7,526.5 L529.8,531.0 L534.9,535.5 L540.0,540.0" fill="none" stroke="#FFF" stroke-width="40" stroke-linecap="round"/>
<path d="M527.3,-359.9 L526.0,-353.2 L524.7,-346.5 L523.4,-339.9 L522.1,-333.2 L520.8,-326.5 L519.5,-319.8 L518.2,-313.1 L516.9,-306.4 L515.6,-299.7 L514.4,-293.1 L513.1,-286.4 L511.9,-279.7 L510.6,-273.0 L509.4,-266.3 L508.2,-259.6 L506.9,-252.9 L505.7,-246.3 L504.6,-239.6 L503.4,-232.9 L502.2,-226.2 L501.1,-219.5 L499.9,-212.8 L498.8,-206.2 L497.7,-199.5 L496.6,-192.8 L495.6,-186.1 L494.5,-179.4 L493.5,-172.7 L492.5,-166.1 L491.5,-159.4 L490.6,-152.7 L489.6,-146.0 L488.7,-139.3 L487.8,-132.7 L486.9,-126.0 L486.1,-119.3 L485.2,-112.6 L484.4,-105.9 L483.7,-99.3 L482.9,-92.6 L482.2,-85.9 L481.5,-79.2 L480.8,-72.6 L480.2,-65.9 L479.5,-59.2 L479.0,-52.5 L478.4,-45.9 L477.9,-39.2 L477.4,-32.5 L476.9,-25.8 L476.4,-19.2 L476.0,-12.5 L475.6,-5.8 L475.3,0.9 L475.0,7.5 L474.7,14.2 L474.4,20.9 L474.2,27.5 L474.0,34.2 L473.8,40.9 L473.7,47.6 L473.6,54.2 L473.5,60.9 L473.5,67.6 L473.5,74.2 L473.5,80.9 L473.6,87.6 L473.7,94.2 L473.8,100.9 L474.0,107.6 L474.2,114.2 L474.4,120.9 L474.6,127.6 L474.9,134.2 L475.3,140.9 L475.6,147.5 L476.0,154.2 L476.4,160.9 L476.9,167.5 L477.3,174.2 L477.8,180.8 L478.4,187.5 L479.0,194.2 L479.6,200.8 L480.2,207.5 L480.9,214.1 L481.5,220.8 L482.3,227.5 L483.0,234.1 L483.8,240.8 L484.6,247.4 L485.4,254.1 L486.3,260.7 L487.2,267.4 L488.1,274.0 L489.0,280.7 L490.0,287.3 L491.0,294.0 L492.0,300.7 L493.1,307.3 L494.1,314.0 L495.2,320.6 L496.3,327.3 L497.4,333.9 L498.6,340.6 L499.8,347.2 L501.0,353.9 L502.2,360.5 L503.4,367.2 L504.7,373.8 L505.9,380.5 L507.2,387.1 L508.5,393.8 L509.9,400.4 L511.2,407.1 L512.5,413.7 L513.9,420.4 L515.3,427.0 L516.7,433.7 L518.1,440.3 L519.5,446.9 L520.9,453.6 L522.3,460.2 L523.8,466.9 L525.2,473.5 L526.7,480.2 L528.1,486.8 L529.6,493.5 L531.1,500.1 L532.6,506.8 L534.0,513.4 L535.5,520.1 L537.0,526.7 L538.5,533.4 L540.0,540.0" fill="none" stroke="#FFF" stroke-width="40" stroke-linecap="round"/>
<path d="M1058.6,-195.5 L1053.7,-190.9 L1048.7,-186.2 L1043.7,-181.6 L1038.7,-177.0 L1033.7,-172.3 L1028.8,-167.7 L1023.8,-163.0 L1018.8,-158.3 L1013.9,-153.7 L1008.9,-149.0 L1004.0,-144.4 L999.0,-139.7 L994.1,-135.0 L989.2,-130.3 L984.2,-125.6 L979.3,-120.9 L974.4,-116.2 L969.5,-111.5 L964.7,-106.8 L959.8,-102.1 L954.9,-97.3 L950.1,-92.6 L945.3,-87.9 L940.5,-83.1 L935.7,-78.3 L930.9,-73.5 L926.1,-68.7 L921.3,-63.9 L916.6,-59.1 L911.9,-54.3 L907.2,-49.5 L902.5,-44.6 L897.8,-39.8 L893.1,-34.9 L888.5,-30.0 L883.9,-25.1 L879.3,-20.2 L874.7,-15.2 L870.2,-10.3 L865.6,-5.3 L861.1,-0.4 L856.6,4.6 L852.2,9.6 L847.7,14.7 L843.3,19.7 L838.9,24.8 L834.5,29.8 L830.2,34.9 L825.8,40.0 L821.5,45.1 L817.2,50.3 L813.0,55.4 L808.8,60.6 L804.6,65.8 L800.4,71.0 L796.2,76.2 L792.1,81.5 L788.0,86.7 L783.9,92.0 L779.8,97.3 L775.8,102.6 L771.8,108.0 L767.8,113.3 L763.9,118.7 L760.0,124.1 L756.1,129.5 L752.2,134.9 L748.4,140.4 L744.6,145.9 L740.8,151.3 L737.0,156.8 L733.3,162.4 L729.6,167.9 L725.9,173.5 L722.2,179.0 L718.6,184.6 L715.0,190.3 L711.4,195.9 L707.8,201.5 L704.3,207.2 L700.8,212.9 L697.3,218.6 L693.9,224.3 L690.5,230.1 L687.1,235.8 L683.7,241.6 L680.3,247.4 L677.0,253.2 L673.7,259.0 L670.4,264.9 L667.2,270.7 L663.9,276.6 L660.7,282.5 L657.5,288.4 L654.3,294.3 L651.2,300.3 L648.1,306.2 L645.0,312.2 L641.9,318.2 L638.8,324.2 L635.7,330.2 L632.7,336.2 L629.7,342.2 L626.7,348.3 L623.7,354.3 L620.8,360.4 L617.8,366.5 L614.9,372.6 L612.0,378.7 L609.1,384.8 L606.2,390.9 L603.3,397.1 L600.5,403.2 L597.7,409.4 L594.8,415.5 L592.0,421.7 L589.2,427.9 L586.4,434.1 L583.6,440.2 L580.9,446.4 L578.1,452.7 L575.3,458.9 L572.6,465.1 L569.8,471.3 L567.1,477.5 L564.4,483.8 L561.7,490.0 L558.9,496.3 L556.2,502.5 L553.5,508.7 L550.8,515.0 L548.1,521.2 L545.4,527.5 L542.7,533.7 L540.0,540.0" fill="none" stroke="#FFF" stroke-width="40" stroke-linecap="round"/>
<path d="M1391.9,249.8 L1385.2,250.6 L1378.4,251.5 L1371.6,252.3 L1364.9,253.1 L1358.1,253.9 L1351.4,254.8 L1344.6,255.6 L1337.9,256.5 L1331.1,257.3 L1324.4,258.2 L1317.6,259.1 L1310.9,259.9 L1304.1,260.8 L1297.4,261.7 L1290.7,262.6 L1283.9,263.5 L1277.2,264.4 L1270.5,265.4 L1263.7,266.3 L1257.0,267.3 L1250.3,268.3 L1243.6,269.3 L1236.9,270.3 L1230.2,271.3 L1223.5,272.3 L1216.8,273.4 L1210.2,274.5 L1203.5,275.5 L1196.8,276.6 L1190.2,277.8 L1183.5,278.9 L1176.9,280.1 L1170.2,281.3 L1163.6,282.5 L1157.0,283.7 L1150.4,285.0 L1143.8,286.2 L1137.2,287.5 L1130.6,288.9 L1124.0,290.2 L1117.4,291.6 L1110.8,293.0 L1104.3,294.4 L1097.7,295.9 L1091.2,297.3 L1084.7,298.8 L1078.1,300.4 L1071.6,301.9 L1065.1,303.5 L1058.6,305.1 L1052.1,306.8 L1045.7,308.4 L1039.2,310.1 L1032.8,311.9 L1026.3,313.6 L1019.9,315.4 L1013.5,317.2 L1007.0,319.1 L1000.6,320.9 L994.2,322.8 L987.9,324.8 L981.5,326.7 L975.1,328.7 L968.8,330.8 L962.4,332.8 L956.1,334.9 L949.8,337.0 L943.5,339.2 L937.2,341.4 L930.9,343.6 L924.6,345.8 L918.3,348.1 L912.1,350.4 L905.8,352.7 L899.6,355.1 L893.4,357.5 L887.1,359.9 L880.9,362.4 L874.7,364.8 L868.5,367.4 L862.4,369.9 L856.2,372.5 L850.0,375.1 L843.9,377.7 L837.8,380.4 L831.6,383.0 L825.5,385.8 L819.4,388.5 L813.3,391.3 L807.2,394.1 L801.1,396.9 L795.1,399.7 L789.0,402.6 L782.9,405.5 L776.9,408.5 L770.9,411.4 L764.8,414.4 L758.8,417.4 L752.8,420.4 L746.8,423.4 L740.8,426.5 L734.8,429.6 L728.8,432.7 L722.8,435.8 L716.9,439.0 L710.9,442.2 L705.0,445.4 L699.0,448.6 L693.1,451.8 L687.1,455.0 L681.2,458.3 L675.3,461.6 L669.4,464.9 L663.4,468.2 L657.5,471.5 L651.6,474.9 L645.7,478.2 L639.8,481.6 L633.9,484.9 L628.0,488.3 L622.2,491.7 L616.3,495.1 L610.4,498.5 L604.5,502.0 L598.6,505.4 L592.8,508.8 L586.9,512.3 L581.0,515.7 L575.2,519.2 L569.3,522.7 L563.4,526.1 L557.6,529.6 L551.7,533.1 L545.9,536.5 L540.0,540.0" fill="none" stroke="#FFF" stroke-width="40" stroke-linecap="round"/>
<path d="M1399.8,806.0 L1394.3,801.8 L1389.1,797.2 L1384.1,792.2 L1379.1,787.0 L1374.1,782.0 L1369.0,777.2 L1363.4,773.3 L1357.6,769.6 L1351.7,766.3 L1345.8,762.8 L1340.0,759.3 L1334.1,755.7 L1328.3,752.2 L1322.5,748.6 L1316.7,745.0 L1310.8,741.5 L1305.0,738.0 L1299.2,734.4 L1293.3,730.9 L1287.5,727.4 L1281.6,723.9 L1275.8,720.3 L1270.0,716.8 L1264.1,713.2 L1258.3,709.6 L1252.5,705.9 L1246.7,702.3 L1240.9,698.7 L1235.1,695.1 L1229.2,691.7 L1223.3,688.2 L1217.3,685.0 L1211.3,681.8 L1205.2,678.8 L1199.0,675.8 L1192.9,672.9 L1186.7,670.0 L1180.6,667.1 L1174.4,664.1 L1168.3,661.1 L1162.2,658.1 L1156.1,655.1 L1150.0,652.1 L1143.9,649.2 L1137.7,646.3 L1131.5,643.5 L1125.3,640.7 L1119.1,638.0 L1112.8,635.3 L1106.6,632.6 L1100.3,629.9 L1094.1,627.2 L1087.9,624.5 L1081.6,621.8 L1075.4,619.0 L1069.2,616.3 L1062.9,613.5 L1056.7,610.8 L1050.4,608.1 L1044.2,605.5 L1037.9,602.9 L1031.5,600.4 L1025.2,598.0 L1018.8,595.6 L1012.4,593.3 L1005.9,591.1 L999.4,589.0 L992.9,587.0 L986.4,585.1 L979.8,583.3 L973.2,581.6 L966.6,580.1 L959.9,578.7 L953.2,577.3 L946.6,576.0 L939.9,574.6 L933.2,573.3 L926.5,571.9 L919.9,570.5 L913.2,569.1 L906.6,567.7 L899.9,566.3 L893.3,564.9 L886.6,563.5 L880.0,562.1 L873.3,560.6 L866.7,559.2 L860.0,557.8 L853.4,556.4 L846.7,555.0 L840.1,553.6 L833.4,552.3 L826.7,551.0 L820.0,549.8 L813.3,548.7 L806.5,547.6 L799.8,546.6 L793.1,545.5 L786.3,544.5 L779.6,543.4 L772.9,542.4 L766.1,541.3 L759.3,540.5 L752.5,539.9 L745.7,539.4 L738.9,538.9 L732.1,538.4 L725.2,538.0 L718.4,537.9 L711.5,537.7 L704.7,537.6 L697.8,537.4 L691.0,537.2 L684.1,536.9 L677.3,536.7 L670.5,536.5 L663.6,536.4 L656.8,536.2 L649.9,536.0 L643.1,535.9 L636.2,535.8 L629.4,535.8 L622.5,535.8 L615.7,535.9 L608.8,536.1 L601.9,536.2 L595.1,536.5 L588.2,536.7 L581.3,537.1 L574.5,537.4 L567.6,537.9 L560.7,538.4 L553.8,538.9 L546.9,539.4 L540.0,540.0 L582.4,544.0 L590.8,545.0 L597.6,545.9 L604.3,546.9 L611.1,547.9 L617.8,548.9 L624.5,549.9 L631.2,551.0 L637.9,552.2 L644.6,553.4 L651.3,554.8 L658.0,556.1 L664.7,557.6 L671.3,559.0 L678.0,560.4 L684.6,561.9 L691.2,563.3 L697.9,564.8 L704.5,566.2 L711.1,567.6 L717.7,569.0 L724.4,570.2 L731.0,571.2 L737.6,572.4 L744.3,573.5 L750.9,574.7 L757.5,575.8 L764.1,576.9 L770.7,577.8 L777.4,578.8 L784.0,579.9 L790.5,581.1 L797.1,582.4 L803.6,583.9 L810.1,585.5 L816.6,587.2 L823.0,588.9 L829.5,590.6 L836.0,592.2 L842.4,593.7 L848.9,595.2 L855.4,596.7 L861.8,598.1 L868.3,599.6 L874.8,601.1 L881.2,602.6 L887.7,604.0 L894.1,605.4 L900.6,606.8 L907.0,608.3 L913.5,609.9 L919.9,611.5 L926.2,613.3 L932.6,615.2 L938.9,617.1 L945.2,619.0 L951.5,621.0 L957.8,622.9 L964.1,624.7 L970.5,626.6 L976.8,628.5 L983.1,630.4 L989.3,632.4 L995.6,634.5 L1001.8,636.6 L1008.1,638.8 L1014.3,640.9 L1020.5,643.0 L1026.8,645.2 L1033.0,647.3 L1039.3,649.4 L1045.5,651.6 L1051.7,653.8 L1057.9,656.0 L1064.1,658.3 L1070.3,660.7 L1076.5,663.0 L1082.7,665.4 L1088.9,667.8 L1095.0,670.3 L1101.1,672.8 L1107.2,675.4 L1113.3,678.1 L1119.3,680.9 L1125.3,683.7 L1131.3,686.5 L1137.4,689.2 L1143.5,691.9 L1149.6,694.6 L1155.7,697.2 L1161.8,699.9 L1167.9,702.6 L1174.0,705.3 L1180.0,708.1 L1186.1,711.0 L1192.1,713.9 L1198.1,716.8 L1204.1,719.7 L1210.2,722.6 L1216.2,725.5 L1222.3,728.3 L1228.4,731.2 L1234.5,734.1 L1240.5,737.0 L1246.6,739.9 L1252.6,742.9 L1258.7,745.8 L1264.7,748.8 L1270.8,751.8 L1276.9,754.7 L1283.0,757.7 L1289.0,760.7 L1295.1,763.6 L1301.2,766.6 L1307.3,769.5 L1313.4,772.5 L1319.5,775.5 L1325.6,778.5 L1331.7,781.5 L1337.8,784.5 L1343.9,787.6 L1350.0,790.6 L1356.1,793.5 L1362.7,795.6 L1369.7,797.1 L1376.6,798.6 L1383.5,800.3 L1390.2,802.3 L1398.2,805.4 L1399.8,806.0 Z" fill="#839EA2" fill-opacity="1.0" stroke="none"/>
<path d="M1079.3,1260.6 L1077.1,1254.0 L1075.0,1247.5 L1073.0,1240.9 L1071.1,1234.3 L1069.1,1227.7 L1067.0,1221.2 L1064.4,1214.9 L1061.6,1208.7 L1058.6,1202.5 L1055.7,1196.4 L1052.9,1190.2 L1050.0,1184.0 L1047.1,1177.9 L1044.1,1171.7 L1041.2,1165.6 L1038.3,1159.5 L1035.3,1153.3 L1032.3,1147.2 L1029.3,1141.1 L1026.3,1135.0 L1023.3,1128.9 L1020.2,1122.9 L1017.2,1116.8 L1014.2,1110.7 L1011.2,1104.6 L1008.1,1098.6 L1005.0,1092.5 L1002.0,1086.5 L998.9,1080.5 L995.7,1074.5 L992.6,1068.5 L989.4,1062.5 L986.3,1056.5 L983.1,1050.6 L979.9,1044.6 L976.6,1038.7 L973.3,1032.8 L970.0,1026.9 L966.7,1021.0 L963.4,1015.2 L960.0,1009.3 L956.6,1003.5 L953.1,997.7 L949.7,992.0 L946.2,986.2 L942.7,980.4 L939.2,974.7 L935.7,969.0 L932.1,963.3 L928.5,957.6 L924.9,952.0 L921.2,946.3 L917.5,940.7 L913.8,935.2 L910.1,929.6 L906.3,924.0 L902.6,918.5 L898.8,913.0 L894.9,907.5 L891.1,902.0 L887.2,896.6 L883.3,891.1 L879.3,885.7 L875.4,880.3 L871.4,874.9 L867.5,869.5 L863.5,864.2 L859.5,858.8 L855.4,853.5 L851.4,848.2 L847.3,842.9 L843.1,837.6 L839.0,832.3 L834.8,827.1 L830.6,821.9 L826.4,816.7 L822.2,811.5 L818.0,806.3 L813.7,801.1 L809.4,796.0 L805.1,790.9 L800.8,785.8 L796.4,780.7 L792.0,775.6 L787.5,770.6 L783.1,765.6 L778.6,760.6 L774.0,755.6 L769.5,750.7 L764.9,745.8 L760.3,740.8 L755.7,735.9 L751.1,731.1 L746.4,726.2 L741.8,721.3 L737.1,716.5 L732.4,711.7 L727.6,706.9 L722.9,702.1 L718.1,697.3 L713.3,692.5 L708.5,687.8 L703.7,683.1 L698.8,678.4 L693.8,673.8 L688.9,669.2 L684.0,664.5 L679.0,659.9 L674.0,655.4 L669.0,650.8 L664.0,646.2 L659.0,641.6 L654.0,637.0 L649.0,632.4 L644.0,627.9 L638.9,623.4 L633.8,618.9 L628.7,614.4 L623.6,609.9 L618.4,605.5 L613.3,601.0 L608.1,596.6 L602.9,592.2 L597.7,587.8 L592.5,583.4 L587.3,579.1 L582.0,574.7 L576.8,570.3 L571.5,566.0 L566.3,561.7 L561.0,557.4 L555.7,553.0 L550.5,548.7 L545.2,544.4 L540.0,540.0 L571.3,568.8 L577.5,574.7 L582.4,579.4 L587.3,584.1 L592.2,588.9 L597.0,593.7 L601.9,598.5 L606.7,603.3 L611.5,608.1 L616.2,613.0 L621.0,617.8 L625.7,622.7 L630.4,627.6 L635.2,632.4 L639.9,637.3 L644.6,642.2 L649.3,647.0 L654.1,651.9 L658.8,656.7 L663.5,661.5 L668.2,666.3 L673.0,671.1 L677.9,675.7 L682.7,680.4 L687.6,685.1 L692.4,689.8 L697.2,694.5 L702.0,699.2 L706.8,703.9 L711.5,708.6 L716.2,713.4 L720.9,718.2 L725.5,723.0 L730.2,727.9 L734.8,732.7 L739.4,737.6 L744.0,742.4 L748.5,747.3 L753.1,752.2 L757.6,757.1 L762.1,762.0 L766.6,766.9 L771.1,771.8 L775.6,776.7 L780.1,781.6 L784.6,786.6 L789.0,791.5 L793.5,796.4 L797.9,801.4 L802.2,806.4 L806.6,811.4 L810.9,816.5 L815.1,821.6 L819.3,826.8 L823.5,832.0 L827.6,837.1 L831.7,842.3 L835.8,847.5 L839.9,852.7 L844.0,858.0 L848.0,863.2 L852.0,868.5 L856.0,873.9 L859.9,879.2 L863.8,884.6 L867.6,890.0 L871.4,895.4 L875.2,900.9 L879.0,906.4 L882.7,911.9 L886.3,917.4 L890.0,922.9 L893.6,928.5 L897.2,934.1 L900.8,939.7 L904.4,945.3 L908.0,950.8 L911.6,956.4 L915.2,962.0 L918.8,967.7 L922.3,973.3 L925.9,978.9 L929.3,984.6 L932.8,990.3 L936.2,996.1 L939.6,1001.8 L943.0,1007.5 L946.4,1013.3 L949.9,1019.0 L953.3,1024.7 L956.7,1030.5 L960.1,1036.3 L963.4,1042.1 L966.7,1048.0 L969.9,1053.9 L973.1,1059.8 L976.3,1065.7 L979.5,1071.6 L982.7,1077.5 L985.8,1083.5 L988.9,1089.5 L992.0,1095.5 L995.1,1101.5 L998.2,1107.5 L1001.2,1113.5 L1004.3,1119.5 L1007.4,1125.5 L1010.5,1131.5 L1013.6,1137.5 L1016.7,1143.5 L1019.8,1149.6 L1022.8,1155.6 L1025.8,1161.7 L1028.8,1167.8 L1031.7,1173.9 L1034.7,1180.0 L1037.6,1186.1 L1040.5,1192.3 L1043.5,1198.4 L1046.4,1204.5 L1049.4,1210.6 L1052.3,1216.8 L1055.3,1222.9 L1058.7,1228.8 L1062.5,1234.6 L1066.3,1240.3 L1070.1,1246.0 L1073.8,1251.8 L1078.4,1259.1 L1079.3,1260.6 Z" fill="#455F73" fill-opacity="1.0" stroke="none"/>
<path d="M552.7,1439.9 L554.3,1433.3 L556.0,1426.7 L557.8,1420.1 L559.6,1413.5 L561.3,1406.9 L563.0,1400.3 L564.5,1393.6 L565.9,1387.0 L567.2,1380.3 L568.5,1373.6 L569.9,1366.9 L571.2,1360.3 L572.5,1353.6 L573.8,1346.9 L575.2,1340.2 L576.5,1333.6 L577.8,1326.9 L579.2,1320.2 L580.5,1313.6 L581.8,1306.9 L583.1,1300.2 L584.4,1293.6 L585.7,1286.9 L586.9,1280.2 L588.0,1273.5 L589.2,1266.9 L590.3,1260.2 L591.4,1253.5 L592.5,1246.8 L593.5,1240.1 L594.5,1233.4 L595.5,1226.7 L596.5,1220.1 L597.5,1213.4 L598.5,1206.7 L599.4,1200.0 L600.3,1193.3 L601.2,1186.6 L602.1,1179.9 L602.9,1173.2 L603.7,1166.5 L604.5,1159.8 L605.3,1153.2 L606.0,1146.5 L606.7,1139.8 L607.3,1133.1 L608.0,1126.4 L608.6,1119.7 L609.1,1113.0 L609.7,1106.3 L610.2,1099.6 L610.7,1092.9 L611.1,1086.2 L611.5,1079.5 L611.8,1072.8 L612.1,1066.1 L612.4,1059.4 L612.7,1052.7 L612.9,1046.0 L613.0,1039.3 L613.2,1032.6 L613.2,1025.9 L613.3,1019.2 L613.3,1012.5 L613.2,1005.8 L613.1,999.1 L613.0,992.4 L612.8,985.7 L612.6,979.0 L612.3,972.3 L612.0,965.6 L611.7,958.9 L611.3,952.2 L610.9,945.5 L610.4,938.8 L609.9,932.2 L609.4,925.5 L608.9,918.8 L608.3,912.1 L607.8,905.4 L607.1,898.8 L606.5,892.1 L605.9,885.4 L605.2,878.7 L604.5,872.1 L603.7,865.4 L603.0,858.7 L602.2,852.1 L601.4,845.4 L600.6,838.7 L599.7,832.0 L598.8,825.4 L597.9,818.7 L596.9,812.1 L595.9,805.4 L594.9,798.7 L593.9,792.1 L592.8,785.4 L591.7,778.8 L590.5,772.1 L589.4,765.5 L588.2,758.8 L587.0,752.2 L585.7,745.5 L584.4,738.9 L583.1,732.3 L581.8,725.6 L580.4,719.0 L579.0,712.4 L577.6,705.7 L576.2,699.1 L574.8,692.5 L573.4,685.9 L572.0,679.2 L570.5,672.6 L569.1,666.0 L567.6,659.3 L566.2,652.7 L564.7,646.1 L563.2,639.4 L561.7,632.8 L560.2,626.2 L558.7,619.5 L557.2,612.9 L555.7,606.3 L554.1,599.6 L552.5,593.0 L550.9,586.4 L549.3,579.8 L547.7,573.2 L546.2,566.5 L544.6,559.9 L543.1,553.3 L541.6,546.6 L540.0,540.0 L549.1,581.6 L550.8,589.9 L552.2,596.6 L553.6,603.2 L555.0,609.9 L556.3,616.6 L557.6,623.2 L559.0,629.9 L560.3,636.6 L561.6,643.2 L562.9,649.9 L564.1,656.6 L565.4,663.3 L566.6,669.9 L567.8,676.6 L569.0,683.3 L570.2,689.9 L571.3,696.6 L572.4,703.3 L573.4,710.0 L574.5,716.7 L575.6,723.3 L576.7,730.0 L577.8,736.6 L578.9,743.3 L580.0,749.9 L581.0,756.6 L582.1,763.2 L583.2,769.9 L584.3,776.5 L585.3,783.2 L586.3,789.8 L587.3,796.4 L588.3,803.1 L589.2,809.7 L590.2,816.4 L591.0,823.0 L591.9,829.6 L592.7,836.3 L593.5,842.9 L594.3,849.6 L595.0,856.2 L595.7,862.9 L596.3,869.5 L596.9,876.2 L597.4,882.8 L598.0,889.5 L598.4,896.1 L598.9,902.8 L599.3,909.4 L599.7,916.1 L600.0,922.7 L600.3,929.4 L600.6,936.0 L600.9,942.7 L601.1,949.3 L601.2,955.9 L601.4,962.6 L601.5,969.2 L601.5,975.9 L601.6,982.5 L601.6,989.2 L601.5,995.8 L601.5,1002.5 L601.4,1009.1 L601.4,1015.7 L601.2,1022.4 L601.1,1029.0 L600.9,1035.7 L600.7,1042.3 L600.4,1049.0 L600.1,1055.6 L599.8,1062.2 L599.5,1068.9 L599.1,1075.5 L598.7,1082.2 L598.3,1088.8 L597.8,1095.4 L597.3,1102.1 L596.8,1108.7 L596.2,1115.4 L595.7,1122.0 L595.1,1128.7 L594.5,1135.3 L593.9,1142.0 L593.2,1148.6 L592.5,1155.3 L591.8,1161.9 L590.9,1168.5 L590.0,1175.2 L589.1,1181.8 L588.1,1188.4 L587.1,1195.1 L586.1,1201.7 L585.2,1208.3 L584.2,1215.0 L583.1,1221.6 L582.1,1228.3 L581.1,1234.9 L580.0,1241.5 L578.9,1248.2 L577.9,1254.8 L576.8,1261.5 L575.7,1268.2 L574.7,1274.8 L573.6,1281.5 L572.6,1288.2 L571.6,1294.8 L570.6,1301.5 L569.5,1308.2 L568.5,1314.9 L567.4,1321.6 L566.3,1328.3 L565.2,1335.0 L564.1,1341.7 L563.0,1348.4 L561.8,1355.1 L560.7,1361.7 L559.5,1368.4 L558.3,1375.1 L557.1,1381.8 L555.9,1388.5 L554.8,1395.2 L554.1,1402.0 L554.0,1408.9 L553.9,1415.9 L553.8,1422.8 L553.5,1429.6 L552.9,1438.2 L552.7,1439.9 Z" fill="#663C29" fill-opacity="1.0" stroke="none"/>
<path d="M21.4,1275.5 L27.1,1271.7 L33.0,1268.1 L39.0,1264.5 L45.1,1261.0 L51.0,1257.3 L56.7,1253.5 L62.0,1249.2 L67.1,1244.6 L72.0,1239.9 L76.9,1235.2 L81.9,1230.6 L86.9,1225.9 L91.9,1221.3 L96.8,1216.6 L101.8,1212.0 L106.8,1207.3 L111.7,1202.6 L116.7,1197.9 L121.6,1193.3 L126.5,1188.6 L131.4,1183.9 L136.3,1179.2 L141.2,1174.4 L146.1,1169.7 L151.0,1165.0 L155.8,1160.2 L160.7,1155.5 L165.5,1150.7 L170.3,1145.9 L175.0,1141.0 L179.7,1136.1 L184.4,1131.2 L189.0,1126.3 L193.6,1121.3 L198.2,1116.3 L202.7,1111.3 L207.3,1106.3 L211.8,1101.3 L216.3,1096.2 L220.8,1091.2 L225.3,1086.1 L229.7,1081.1 L234.2,1076.0 L238.6,1070.9 L243.0,1065.8 L247.3,1060.7 L251.7,1055.5 L256.0,1050.4 L260.4,1045.2 L264.7,1040.1 L269.0,1034.9 L273.3,1029.7 L277.5,1024.5 L281.8,1019.3 L286.0,1014.1 L290.2,1008.8 L294.3,1003.5 L298.4,998.2 L302.5,992.9 L306.6,987.6 L310.6,982.2 L314.7,976.9 L318.6,971.5 L322.6,966.1 L326.6,960.6 L330.5,955.2 L334.3,949.7 L338.1,944.2 L341.9,938.6 L345.6,933.1 L349.3,927.5 L353.0,921.8 L356.6,916.2 L360.2,910.5 L363.8,904.9 L367.3,899.2 L370.9,893.5 L374.4,887.8 L377.9,882.0 L381.3,876.3 L384.8,870.5 L388.2,864.8 L391.7,859.0 L395.1,853.2 L398.5,847.4 L401.8,841.6 L405.1,835.7 L408.4,829.9 L411.7,824.0 L414.9,818.1 L418.1,812.2 L421.3,806.3 L424.5,800.3 L427.7,794.4 L430.9,788.5 L434.1,782.5 L437.2,776.6 L440.4,770.6 L443.5,764.6 L446.6,758.6 L449.6,752.5 L452.6,746.5 L455.5,740.4 L458.4,734.3 L461.2,728.1 L464.0,721.9 L466.8,715.8 L469.6,709.6 L472.4,703.4 L475.1,697.2 L477.8,691.0 L480.5,684.7 L483.2,678.5 L485.9,672.3 L488.6,666.1 L491.3,659.8 L493.9,653.6 L496.6,647.3 L499.2,641.0 L501.9,634.8 L504.5,628.5 L507.1,622.2 L509.7,615.9 L512.3,609.6 L514.9,603.3 L517.5,597.0 L520.1,590.7 L522.6,584.4 L525.1,578.1 L527.7,571.8 L530.2,565.4 L532.7,559.1 L535.1,552.7 L537.6,546.4 L540.0,540.0 L522.7,578.9 L519.2,586.6 L516.3,592.8 L513.5,599.0 L510.6,605.2 L507.7,611.3 L504.8,617.5 L501.9,623.6 L498.9,629.7 L496.0,635.8 L493.0,641.9 L490.0,648.0 L486.9,654.1 L483.9,660.2 L480.8,666.2 L477.7,672.3 L474.6,678.3 L471.5,684.3 L468.4,690.3 L465.2,696.3 L462.1,702.2 L459.0,708.2 L456.0,714.3 L452.9,720.3 L449.9,726.3 L446.8,732.3 L443.7,738.3 L440.7,744.3 L437.6,750.3 L434.6,756.2 L431.5,762.2 L428.5,768.2 L425.4,774.1 L422.3,780.1 L419.1,786.0 L416.0,791.9 L412.8,797.8 L409.6,803.7 L406.4,809.5 L403.1,815.3 L399.8,821.1 L396.5,826.9 L393.1,832.7 L389.7,838.4 L386.3,844.1 L382.9,849.8 L379.4,855.5 L376.0,861.2 L372.5,866.9 L369.0,872.6 L365.4,878.2 L361.8,883.8 L358.2,889.3 L354.6,894.9 L350.9,900.4 L347.2,905.9 L343.4,911.4 L339.6,916.9 L335.8,922.3 L332.0,927.7 L328.1,933.1 L324.3,938.5 L320.4,943.9 L316.5,949.2 L312.6,954.6 L308.6,960.0 L304.7,965.3 L300.7,970.6 L296.8,975.9 L292.7,981.2 L288.7,986.5 L284.6,991.7 L280.5,997.0 L276.4,1002.2 L272.3,1007.4 L268.1,1012.6 L264.0,1017.8 L259.8,1023.0 L255.6,1028.1 L251.4,1033.3 L247.2,1038.4 L242.9,1043.5 L238.6,1048.7 L234.3,1053.8 L230.0,1058.8 L225.6,1063.9 L221.2,1068.9 L216.8,1074.0 L212.3,1078.9 L207.8,1083.9 L203.4,1088.9 L198.8,1093.8 L194.3,1098.8 L189.8,1103.7 L185.2,1108.7 L180.6,1113.6 L176.0,1118.5 L171.4,1123.4 L166.8,1128.3 L162.2,1133.2 L157.5,1138.1 L152.9,1143.0 L148.2,1147.8 L143.5,1152.6 L138.7,1157.5 L133.9,1162.2 L129.1,1167.0 L124.3,1171.8 L119.5,1176.5 L114.6,1181.2 L109.7,1185.9 L104.9,1190.6 L100.0,1195.3 L95.1,1200.1 L90.3,1204.8 L85.4,1209.6 L80.6,1214.3 L75.7,1219.0 L70.8,1223.8 L65.9,1228.5 L61.0,1233.2 L56.1,1237.9 L51.2,1242.6 L46.5,1247.6 L42.1,1252.8 L37.6,1258.0 L33.0,1263.1 L28.4,1268.1 L22.5,1274.3 L21.4,1275.5 Z" fill="#9D5F31" fill-opacity="1.0" stroke="none"/>
<path d="M-311.9,830.2 L-305.1,830.2 L-298.1,830.7 L-291.1,831.8 L-284.1,833.1 L-277.1,834.3 L-270.1,835.4 L-263.2,835.6 L-256.4,835.3 L-249.6,834.5 L-242.8,833.9 L-236.0,833.3 L-229.2,832.7 L-222.4,832.1 L-215.6,831.5 L-208.8,830.8 L-202.1,830.1 L-195.3,829.3 L-188.5,828.4 L-181.8,827.5 L-175.0,826.7 L-168.3,825.7 L-161.5,824.8 L-154.8,823.9 L-148.0,822.9 L-141.3,822.0 L-134.6,821.0 L-127.8,820.1 L-121.1,819.1 L-114.4,818.0 L-107.7,816.9 L-101.0,815.8 L-94.3,814.5 L-87.6,813.2 L-81.0,811.8 L-74.3,810.4 L-67.7,808.9 L-61.1,807.4 L-54.5,805.8 L-47.9,804.3 L-41.3,802.7 L-34.7,801.1 L-28.2,799.5 L-21.6,797.9 L-15.0,796.2 L-8.5,794.6 L-1.9,792.9 L4.6,791.2 L11.1,789.5 L17.7,787.8 L24.2,786.1 L30.7,784.4 L37.2,782.7 L43.7,781.0 L50.2,779.3 L56.7,777.5 L63.2,775.6 L69.7,773.7 L76.1,771.7 L82.5,769.7 L88.9,767.7 L95.4,765.7 L101.8,763.7 L108.2,761.7 L114.6,759.6 L120.9,757.4 L127.3,755.2 L133.6,752.9 L139.9,750.6 L146.2,748.3 L152.5,745.9 L158.8,743.5 L165.0,741.1 L171.3,738.7 L177.5,736.2 L183.8,733.7 L190.0,731.2 L196.2,728.6 L202.4,726.0 L208.6,723.4 L214.8,720.8 L220.9,718.1 L227.1,715.4 L233.3,712.8 L239.4,710.1 L245.6,707.3 L251.7,704.6 L257.9,701.9 L264.1,699.2 L270.2,696.4 L276.3,693.6 L282.5,690.8 L288.6,687.9 L294.6,685.0 L300.7,682.1 L306.8,679.1 L312.8,676.1 L318.8,673.0 L324.9,670.0 L330.9,666.9 L336.9,663.9 L343.0,660.9 L349.0,657.8 L355.1,654.7 L361.1,651.6 L367.0,648.4 L373.0,645.2 L379.0,642.0 L384.9,638.7 L390.8,635.4 L396.8,632.0 L402.7,628.7 L408.6,625.4 L414.5,622.0 L420.4,618.7 L426.3,615.2 L432.1,611.8 L438.0,608.3 L443.8,604.7 L449.6,601.2 L455.3,597.5 L461.1,593.9 L466.8,590.2 L472.5,586.5 L478.2,582.8 L483.9,579.0 L489.6,575.2 L495.2,571.4 L500.9,567.5 L506.5,563.6 L512.1,559.7 L517.7,555.8 L523.3,551.8 L528.8,547.8 L534.4,543.9 L540.0,540.0 L502.3,559.9 L494.6,563.6 L488.4,566.5 L482.3,569.4 L476.0,572.2 L469.8,575.0 L463.6,577.8 L457.3,580.6 L451.1,583.4 L444.9,586.2 L438.7,589.0 L432.5,591.8 L426.3,594.6 L420.1,597.4 L413.9,600.2 L407.7,602.8 L401.4,605.5 L395.1,608.1 L388.9,610.7 L382.6,613.3 L376.4,615.8 L370.2,618.6 L364.3,621.7 L358.2,624.6 L352.2,627.6 L346.2,630.4 L340.1,633.4 L334.2,636.4 L328.2,639.4 L322.3,642.4 L316.3,645.4 L310.3,648.3 L304.3,651.3 L298.4,654.3 L292.5,657.3 L286.5,660.3 L280.6,663.2 L274.6,666.1 L268.6,668.9 L262.5,671.6 L256.4,674.1 L250.2,676.6 L244.1,679.0 L237.9,681.4 L231.7,683.8 L225.6,686.2 L219.4,688.6 L213.3,691.0 L207.1,693.3 L200.9,695.6 L194.8,697.9 L188.6,700.2 L182.4,702.5 L176.3,704.8 L170.1,707.1 L163.9,709.4 L157.7,711.6 L151.6,713.8 L145.4,716.0 L139.2,718.2 L133.0,720.3 L126.8,722.5 L120.6,724.6 L114.3,726.7 L108.1,728.7 L101.8,730.7 L95.6,732.7 L89.3,734.7 L83.1,736.7 L76.8,738.9 L70.6,741.1 L64.4,743.3 L58.2,745.5 L51.9,747.6 L45.7,749.7 L39.4,751.6 L33.0,753.4 L26.7,755.2 L20.3,756.9 L13.9,758.6 L7.5,760.2 L1.0,761.8 L-5.4,763.4 L-11.8,765.0 L-18.3,766.6 L-24.7,768.1 L-31.2,769.6 L-37.7,771.0 L-44.2,772.4 L-50.7,773.8 L-57.2,775.2 L-63.7,776.7 L-70.2,778.2 L-76.7,779.7 L-83.2,781.1 L-89.8,782.6 L-96.3,784.0 L-102.8,785.4 L-109.4,786.8 L-116.0,788.3 L-122.5,789.7 L-129.1,791.1 L-135.7,792.6 L-142.3,793.9 L-148.9,795.3 L-155.5,796.5 L-162.1,797.7 L-168.8,798.8 L-175.5,799.9 L-182.1,801.0 L-188.8,802.1 L-195.5,803.3 L-202.1,804.5 L-208.8,805.7 L-215.5,806.9 L-222.2,808.1 L-228.9,809.3 L-235.6,810.4 L-242.3,811.5 L-249.0,812.6 L-255.7,813.7 L-262.4,814.7 L-269.1,816.0 L-275.7,817.9 L-282.2,820.6 L-288.8,823.2 L-295.3,825.6 L-301.9,827.8 L-310.3,829.8 L-311.9,830.2 Z" fill="#839EA2" fill-opacity="1.0" stroke="none"/>
<path d="M-319.8,274.0 L-313.9,277.4 L-308.0,280.8 L-302.1,284.3 L-296.3,287.9 L-290.6,291.5 L-284.8,295.1 L-278.9,298.5 L-273.0,301.9 L-267.0,305.2 L-261.1,308.5 L-255.1,311.8 L-249.2,315.1 L-243.2,318.4 L-237.3,321.7 L-231.3,325.0 L-225.3,328.3 L-219.4,331.5 L-213.4,334.8 L-207.4,338.0 L-201.5,341.2 L-195.5,344.4 L-189.5,347.6 L-183.5,350.8 L-177.5,354.0 L-171.5,357.1 L-165.5,360.2 L-159.5,363.3 L-153.4,366.4 L-147.4,369.4 L-141.3,372.4 L-135.3,375.5 L-129.2,378.5 L-123.2,381.4 L-117.1,384.4 L-111.0,387.3 L-105.0,390.2 L-98.9,393.1 L-92.8,396.0 L-86.7,398.8 L-80.5,401.6 L-74.4,404.4 L-68.3,407.2 L-62.1,409.9 L-56.0,412.6 L-49.8,415.3 L-43.7,418.0 L-37.5,420.6 L-31.3,423.2 L-25.1,425.8 L-18.9,428.3 L-12.7,430.8 L-6.5,433.3 L-0.2,435.7 L6.0,438.1 L12.3,440.5 L18.6,442.8 L24.9,445.1 L31.1,447.4 L37.4,449.7 L43.8,451.9 L50.1,454.1 L56.4,456.2 L62.7,458.3 L69.1,460.4 L75.4,462.5 L81.8,464.5 L88.2,466.6 L94.6,468.5 L101.0,470.5 L107.4,472.4 L113.8,474.2 L120.2,476.1 L126.7,477.9 L133.1,479.6 L139.6,481.4 L146.0,483.1 L152.5,484.8 L159.0,486.5 L165.5,488.1 L171.9,489.7 L178.5,491.3 L185.0,492.9 L191.5,494.4 L198.0,495.9 L204.5,497.4 L211.1,498.9 L217.7,500.3 L224.2,501.6 L230.8,503.0 L237.4,504.3 L244.0,505.6 L250.6,506.8 L257.2,508.1 L263.8,509.3 L270.4,510.5 L277.1,511.7 L283.7,512.9 L290.3,514.0 L297.0,515.1 L303.7,516.1 L310.3,517.2 L317.0,518.2 L323.7,519.1 L330.4,520.0 L337.1,520.9 L343.8,521.7 L350.5,522.6 L357.2,523.3 L364.0,524.0 L370.7,524.7 L377.5,525.4 L384.2,526.1 L391.0,526.8 L397.7,527.4 L404.5,528.1 L411.2,528.7 L418.0,529.3 L424.7,529.9 L431.5,530.6 L438.3,531.2 L445.1,531.8 L451.8,532.4 L458.6,533.0 L465.4,533.6 L472.2,534.1 L478.9,534.7 L485.7,535.3 L492.5,535.8 L499.3,536.4 L506.1,537.1 L512.9,537.7 L519.6,538.3 L526.4,538.9 L533.2,539.5 L540.0,540.0 L497.6,535.9 L489.2,535.1 L482.4,534.4 L475.6,533.7 L468.9,532.9 L462.1,532.2 L455.3,531.4 L448.6,530.6 L441.8,529.8 L435.1,528.9 L428.4,528.1 L421.6,527.2 L414.9,526.2 L408.2,525.3 L401.5,524.3 L394.8,523.3 L388.1,522.3 L381.4,521.3 L374.7,520.2 L368.0,519.2 L361.3,518.1 L354.7,517.0 L348.0,516.0 L341.3,515.0 L334.7,513.9 L328.0,512.9 L321.4,511.8 L314.7,510.7 L308.1,509.7 L301.4,508.6 L294.8,507.5 L288.2,506.4 L281.6,505.3 L275.0,504.2 L268.4,503.0 L261.8,501.8 L255.2,500.6 L248.6,499.3 L242.0,498.1 L235.5,496.8 L228.9,495.5 L222.3,494.2 L215.8,492.9 L209.3,491.5 L202.7,490.2 L196.2,488.7 L189.7,487.3 L183.2,485.8 L176.7,484.3 L170.2,482.7 L163.8,481.1 L157.3,479.5 L150.9,477.8 L144.4,476.1 L138.0,474.3 L131.6,472.5 L125.2,470.7 L118.8,468.9 L112.4,467.0 L106.1,465.1 L99.7,463.2 L93.3,461.2 L87.0,459.2 L80.7,457.2 L74.3,455.1 L68.0,453.0 L61.7,450.9 L55.4,448.7 L49.1,446.6 L42.9,444.3 L36.6,442.0 L30.4,439.7 L24.2,437.3 L18.0,434.9 L11.8,432.5 L5.5,430.1 L-0.7,427.6 L-6.9,425.2 L-13.1,422.7 L-19.3,420.2 L-25.4,417.7 L-31.6,415.2 L-37.8,412.6 L-43.9,410.0 L-50.1,407.4 L-56.2,404.7 L-62.3,402.0 L-68.5,399.3 L-74.6,396.6 L-80.7,393.8 L-86.8,391.1 L-92.9,388.2 L-99.0,385.4 L-105.0,382.5 L-111.1,379.6 L-117.2,376.7 L-123.2,373.8 L-129.3,370.8 L-135.3,367.9 L-141.4,364.9 L-147.4,361.8 L-153.4,358.8 L-159.4,355.7 L-165.4,352.6 L-171.5,349.6 L-177.5,346.5 L-183.5,343.4 L-189.5,340.4 L-195.6,337.3 L-201.6,334.2 L-207.6,331.1 L-213.6,327.9 L-219.6,324.8 L-225.6,321.6 L-231.6,318.4 L-237.6,315.2 L-243.6,312.0 L-249.6,308.8 L-255.6,305.6 L-261.6,302.4 L-267.6,299.2 L-273.6,295.9 L-279.6,292.8 L-285.8,289.9 L-292.1,287.2 L-298.4,284.6 L-304.6,281.7 L-310.7,278.8 L-318.3,274.8 L-319.8,274.0 Z" fill="#2B382D" fill-opacity="1.0" stroke="none"/>
<path d="M0.7,-180.6 L3.1,-174.1 L5.2,-167.6 L7.2,-161.0 L9.1,-154.4 L11.1,-147.8 L13.2,-141.3 L15.8,-135.0 L18.6,-128.8 L21.6,-122.6 L24.5,-116.5 L27.4,-110.3 L30.3,-104.1 L33.2,-98.0 L36.1,-91.8 L39.0,-85.7 L41.9,-79.5 L44.9,-73.4 L47.8,-67.3 L50.8,-61.2 L53.8,-55.1 L56.8,-49.0 L59.8,-42.9 L62.8,-36.8 L65.8,-30.7 L68.9,-24.7 L72.0,-18.6 L75.1,-12.6 L78.2,-6.6 L81.3,-0.6 L84.4,5.4 L87.6,11.4 L90.8,17.4 L93.9,23.4 L97.1,29.3 L100.4,35.3 L103.6,41.2 L106.9,47.1 L110.2,53.0 L113.5,58.9 L116.8,64.7 L120.2,70.5 L123.6,76.4 L127.0,82.2 L130.5,87.9 L134.0,93.7 L137.4,99.5 L140.9,105.2 L144.5,110.9 L148.0,116.6 L151.6,122.3 L155.2,128.0 L158.8,133.6 L162.5,139.3 L166.1,144.9 L169.8,150.5 L173.6,156.0 L177.3,161.6 L181.1,167.1 L184.9,172.6 L188.7,178.1 L192.6,183.6 L196.4,189.1 L200.3,194.5 L204.3,199.9 L208.2,205.3 L212.2,210.7 L216.2,216.1 L220.2,221.5 L224.2,226.8 L228.3,232.1 L232.3,237.4 L236.4,242.7 L240.5,248.0 L244.7,253.3 L248.8,258.6 L253.0,263.8 L257.2,269.0 L261.5,274.2 L265.7,279.3 L270.0,284.5 L274.4,289.6 L278.7,294.7 L283.1,299.8 L287.5,304.8 L292.0,309.9 L296.4,314.9 L300.8,320.0 L305.3,325.0 L309.8,330.0 L314.3,335.0 L318.8,340.0 L323.4,344.9 L328.0,349.8 L332.6,354.8 L337.2,359.6 L341.9,364.5 L346.6,369.4 L351.3,374.2 L356.0,379.0 L360.7,383.8 L365.5,388.7 L370.3,393.5 L375.1,398.2 L379.9,402.9 L384.8,407.6 L389.7,412.3 L394.6,417.0 L399.5,421.6 L404.6,426.2 L409.6,430.7 L414.7,435.2 L419.7,439.8 L424.8,444.3 L429.9,448.8 L434.9,453.3 L440.0,457.8 L445.2,462.3 L450.3,466.7 L455.4,471.2 L460.6,475.6 L465.8,480.0 L471.0,484.4 L476.2,488.8 L481.4,493.2 L486.7,497.5 L492.0,501.8 L497.2,506.1 L502.5,510.4 L507.9,514.7 L513.2,518.9 L518.5,523.2 L523.9,527.4 L529.2,531.6 L534.6,535.8 L540.0,540.0 L508.0,511.9 L501.7,506.2 L496.7,501.6 L491.7,497.0 L486.7,492.4 L481.7,487.7 L476.8,483.0 L471.9,478.3 L467.0,473.6 L462.1,468.9 L457.3,464.1 L452.5,459.3 L447.7,454.5 L442.9,449.6 L438.1,444.8 L433.3,440.0 L428.6,435.2 L423.8,430.4 L419.0,425.6 L414.3,420.8 L409.6,416.0 L404.8,411.2 L400.0,406.5 L395.2,401.8 L390.4,397.0 L385.6,392.2 L380.9,387.5 L376.1,382.7 L371.4,377.9 L366.7,373.1 L362.1,368.3 L357.4,363.5 L352.7,358.7 L348.0,353.9 L343.4,349.1 L338.7,344.2 L334.1,339.4 L329.5,334.5 L325.0,329.6 L320.4,324.7 L315.9,319.8 L311.4,314.9 L306.9,310.0 L302.5,305.0 L298.1,300.0 L293.7,294.9 L289.4,289.9 L285.1,284.8 L280.9,279.7 L276.6,274.5 L272.4,269.4 L268.2,264.3 L263.9,259.2 L259.7,254.0 L255.5,248.9 L251.3,243.8 L247.1,238.6 L243.0,233.4 L238.9,228.2 L234.8,223.0 L230.7,217.7 L226.6,212.5 L222.6,207.2 L218.6,201.8 L214.7,196.5 L210.8,191.1 L206.9,185.7 L203.1,180.3 L199.2,174.9 L195.4,169.5 L191.6,164.0 L187.9,158.5 L184.2,153.0 L180.5,147.4 L176.8,141.9 L173.1,136.4 L169.5,130.8 L165.8,125.2 L162.2,119.6 L158.7,113.9 L155.1,108.3 L151.6,102.6 L148.2,96.9 L144.7,91.2 L141.2,85.5 L137.8,79.7 L134.4,74.0 L131.1,68.2 L127.7,62.4 L124.4,56.5 L121.2,50.7 L117.9,44.8 L114.6,39.0 L111.3,33.1 L108.0,27.3 L104.8,21.4 L101.5,15.5 L98.3,9.6 L95.1,3.7 L91.9,-2.3 L88.7,-8.2 L85.5,-14.2 L82.4,-20.1 L79.2,-26.1 L76.1,-32.1 L73.0,-38.1 L70.0,-44.2 L66.9,-50.2 L63.9,-56.3 L60.9,-62.3 L57.9,-68.4 L54.9,-74.5 L51.9,-80.6 L48.8,-86.6 L45.9,-92.7 L42.9,-98.8 L39.9,-105.0 L37.0,-111.1 L34.0,-117.2 L31.1,-123.4 L28.2,-129.5 L25.3,-135.7 L22.3,-141.8 L19.2,-147.8 L15.8,-153.7 L12.3,-159.7 L8.9,-165.6 L5.6,-171.5 L1.5,-179.0 L0.7,-180.6 Z" fill="#455F73" fill-opacity="1.0" stroke="none"/>
<path d="M527.3,-359.9 L525.1,-353.4 L522.9,-346.9 L520.7,-340.4 L518.4,-333.9 L516.3,-327.3 L514.3,-320.8 L512.7,-314.2 L511.4,-307.5 L510.2,-300.8 L509.0,-294.1 L507.8,-287.4 L506.7,-280.6 L505.5,-273.9 L504.4,-267.2 L503.2,-260.5 L502.1,-253.8 L500.9,-247.1 L499.7,-240.4 L498.6,-233.7 L497.4,-227.0 L496.3,-220.3 L495.2,-213.6 L494.2,-206.9 L493.2,-200.2 L492.2,-193.5 L491.2,-186.8 L490.2,-180.1 L489.2,-173.4 L488.3,-166.7 L487.3,-160.0 L486.3,-153.3 L485.4,-146.6 L484.5,-139.9 L483.5,-133.2 L482.6,-126.5 L481.7,-119.8 L480.8,-113.2 L480.0,-106.5 L479.1,-99.8 L478.2,-93.1 L477.3,-86.4 L476.5,-79.7 L475.6,-73.1 L474.9,-66.4 L474.1,-59.7 L473.4,-53.0 L472.8,-46.3 L472.2,-39.6 L471.6,-32.9 L471.1,-26.2 L470.6,-19.5 L470.2,-12.8 L469.7,-6.1 L469.3,0.6 L468.9,7.3 L468.6,14.0 L468.3,20.7 L468.0,27.3 L467.7,34.0 L467.5,40.7 L467.2,47.4 L467.0,54.1 L466.8,60.8 L466.7,67.5 L466.5,74.2 L466.4,80.9 L466.3,87.6 L466.2,94.4 L466.3,101.1 L466.3,107.8 L466.5,114.5 L466.7,121.2 L466.9,127.9 L467.2,134.6 L467.6,141.3 L468.0,148.0 L468.3,154.7 L468.8,161.4 L469.2,168.1 L469.7,174.8 L470.2,181.4 L470.7,188.1 L471.3,194.8 L471.9,201.5 L472.5,208.2 L473.1,214.9 L473.8,221.6 L474.4,228.3 L475.1,235.0 L475.9,241.7 L476.6,248.4 L477.4,255.1 L478.2,261.8 L479.1,268.5 L480.0,275.2 L480.9,281.9 L481.8,288.6 L482.8,295.2 L483.8,301.9 L484.8,308.6 L485.8,315.3 L486.9,322.0 L488.0,328.7 L489.2,335.3 L490.4,342.0 L491.7,348.7 L493.0,355.3 L494.2,362.0 L495.7,368.6 L497.1,375.2 L498.6,381.9 L500.1,388.5 L501.6,395.1 L503.1,401.8 L504.6,408.4 L506.1,415.0 L507.7,421.6 L509.3,428.3 L510.9,434.9 L512.5,441.5 L514.2,448.1 L515.8,454.7 L517.6,461.3 L519.3,467.9 L521.1,474.4 L522.9,481.0 L524.7,487.6 L526.5,494.2 L528.3,500.7 L530.2,507.3 L532.1,513.9 L534.0,520.4 L535.9,527.0 L537.9,533.5 L540.0,540.0 L530.8,498.4 L529.1,490.1 L527.8,483.4 L526.4,476.8 L525.1,470.1 L523.9,463.4 L522.6,456.7 L521.4,450.0 L520.1,443.3 L518.9,436.7 L517.7,430.0 L516.5,423.3 L515.3,416.6 L514.1,409.9 L513.0,403.2 L511.9,396.6 L510.8,389.9 L509.8,383.2 L508.8,376.5 L507.8,369.8 L506.8,363.1 L505.7,356.4 L504.6,349.8 L503.6,343.1 L502.5,336.5 L501.5,329.8 L500.4,323.2 L499.3,316.5 L498.2,309.9 L497.1,303.3 L496.1,296.6 L495.1,290.0 L494.1,283.4 L493.2,276.7 L492.3,270.1 L491.4,263.4 L490.5,256.8 L489.7,250.2 L488.9,243.5 L488.1,236.9 L487.4,230.2 L486.7,223.6 L485.9,217.0 L485.2,210.3 L484.5,203.7 L483.8,197.1 L483.2,190.4 L482.5,183.8 L481.9,177.2 L481.3,170.5 L480.8,163.9 L480.3,157.3 L479.9,150.6 L479.5,144.0 L479.2,137.3 L478.9,130.7 L478.6,124.1 L478.4,117.4 L478.1,110.8 L477.9,104.1 L477.7,97.5 L477.6,90.8 L477.5,84.2 L477.4,77.5 L477.4,70.9 L477.4,64.2 L477.4,57.6 L477.5,50.9 L477.6,44.3 L477.8,37.6 L478.0,31.0 L478.2,24.3 L478.4,17.7 L478.7,11.0 L479.0,4.4 L479.4,-2.3 L479.8,-8.9 L480.3,-15.6 L480.8,-22.2 L481.4,-28.9 L481.9,-35.5 L482.5,-42.2 L483.2,-48.8 L483.8,-55.5 L484.5,-62.1 L485.3,-68.8 L486.0,-75.4 L486.8,-82.1 L487.5,-88.7 L488.3,-95.4 L489.0,-102.0 L489.9,-108.7 L490.7,-115.3 L491.6,-122.0 L492.6,-128.6 L493.6,-135.3 L494.6,-141.9 L495.7,-148.6 L496.8,-155.2 L497.9,-161.9 L499.1,-168.5 L500.2,-175.1 L501.4,-181.8 L502.6,-188.4 L503.9,-195.1 L505.1,-201.7 L506.4,-208.3 L507.7,-215.0 L509.0,-221.6 L510.3,-228.2 L511.7,-234.9 L513.0,-241.5 L514.4,-248.2 L515.8,-254.8 L517.3,-261.4 L518.7,-268.0 L520.2,-274.7 L521.6,-281.3 L523.1,-288.0 L524.5,-294.6 L525.8,-301.3 L527.2,-307.9 L528.5,-314.6 L528.9,-321.4 L528.7,-328.4 L528.2,-335.4 L527.9,-342.4 L527.6,-349.4 L527.3,-358.2 L527.3,-359.9 Z" fill="#663C29" fill-opacity="1.0" stroke="none"/>
<path d="M1058.6,-195.5 L1052.4,-192.2 L1046.0,-189.1 L1039.4,-186.2 L1032.8,-183.3 L1026.4,-180.1 L1020.4,-176.6 L1015.2,-172.2 L1010.2,-167.5 L1005.5,-162.6 L1000.7,-157.8 L995.8,-153.0 L990.9,-148.2 L986.1,-143.4 L981.2,-138.7 L976.4,-133.9 L971.5,-129.1 L966.7,-124.3 L961.8,-119.5 L957.0,-114.7 L952.1,-110.0 L947.3,-105.2 L942.4,-100.4 L937.5,-95.7 L932.6,-91.0 L927.7,-86.3 L922.8,-81.6 L917.9,-76.9 L913.0,-72.1 L908.2,-67.4 L903.4,-62.6 L898.7,-57.7 L894.0,-52.8 L889.4,-47.8 L884.8,-42.8 L880.2,-37.8 L875.7,-32.8 L871.2,-27.8 L866.6,-22.7 L862.1,-17.7 L857.6,-12.6 L853.1,-7.6 L848.7,-2.5 L844.2,2.6 L839.8,7.7 L835.4,12.8 L831.0,17.9 L826.6,23.0 L822.2,28.1 L817.8,33.3 L813.5,38.4 L809.1,43.5 L804.7,48.7 L800.4,53.8 L796.0,58.9 L791.7,64.0 L787.3,69.2 L783.0,74.3 L778.6,79.5 L774.3,84.7 L770.1,89.9 L765.8,95.1 L761.6,100.4 L757.5,105.7 L753.4,111.0 L749.3,116.3 L745.2,121.7 L741.2,127.1 L737.2,132.6 L733.3,138.1 L729.5,143.6 L725.7,149.2 L722.0,154.8 L718.3,160.4 L714.6,166.1 L711.0,171.8 L707.4,177.4 L703.8,183.1 L700.2,188.8 L696.7,194.6 L693.2,200.3 L689.7,206.1 L686.2,211.9 L682.7,217.6 L679.3,223.4 L675.8,229.2 L672.3,235.0 L668.9,240.8 L665.4,246.6 L662.0,252.4 L658.6,258.2 L655.2,264.1 L651.8,270.0 L648.6,275.9 L645.4,281.9 L642.2,287.9 L639.1,293.9 L636.0,299.9 L633.0,306.0 L630.0,312.1 L627.0,318.2 L624.1,324.3 L621.1,330.4 L618.3,336.6 L615.6,342.8 L613.0,349.1 L610.4,355.3 L607.8,361.6 L605.2,367.9 L602.8,374.3 L600.4,380.7 L597.9,387.0 L595.5,393.4 L593.0,399.7 L590.5,406.1 L588.0,412.4 L585.5,418.7 L582.9,425.0 L580.4,431.4 L577.9,437.7 L575.4,444.0 L573.0,450.4 L570.5,456.7 L568.0,463.1 L565.6,469.4 L563.2,475.8 L560.7,482.2 L558.4,488.6 L556.0,495.0 L553.7,501.4 L551.4,507.8 L549.1,514.3 L546.8,520.7 L544.6,527.2 L542.3,533.6 L540.0,540.0 L557.7,501.3 L561.3,493.6 L564.3,487.4 L567.3,481.3 L570.3,475.2 L573.4,469.1 L576.4,463.1 L579.6,457.0 L582.7,451.0 L585.9,445.0 L589.1,439.0 L592.4,433.0 L595.7,427.1 L599.0,421.2 L602.4,415.2 L605.8,409.4 L609.1,403.5 L612.6,397.6 L616.0,391.8 L619.4,385.9 L622.9,380.1 L626.2,374.2 L629.2,368.2 L632.4,362.3 L635.6,356.4 L638.8,350.5 L641.9,344.5 L645.0,338.6 L648.0,332.6 L651.1,326.7 L654.2,320.7 L657.3,314.8 L660.5,309.0 L663.7,303.1 L666.8,297.2 L670.0,291.3 L673.2,285.5 L676.3,279.6 L679.5,273.8 L682.7,268.0 L685.9,262.1 L689.1,256.3 L692.3,250.5 L695.5,244.6 L698.7,238.8 L701.9,233.0 L705.1,227.2 L708.4,221.4 L711.8,215.7 L715.1,210.0 L718.5,204.3 L722.0,198.7 L725.5,193.1 L729.1,187.5 L732.8,182.0 L736.6,176.6 L740.4,171.2 L744.3,165.8 L748.1,160.4 L752.0,155.0 L755.9,149.7 L759.8,144.3 L763.7,139.0 L767.6,133.7 L771.5,128.4 L775.4,123.0 L779.3,117.7 L783.2,112.3 L787.1,107.0 L791.1,101.7 L795.0,96.4 L799.0,91.1 L803.1,85.9 L807.2,80.7 L811.3,75.5 L815.4,70.3 L819.6,65.2 L823.8,60.1 L828.1,55.0 L832.5,50.0 L836.9,45.0 L841.3,40.0 L845.8,35.2 L850.4,30.3 L855.0,25.5 L859.6,20.7 L864.3,16.0 L868.9,11.2 L873.5,6.4 L878.2,1.6 L882.8,-3.2 L887.5,-8.0 L892.3,-12.7 L897.1,-17.3 L902.1,-21.8 L907.1,-26.2 L912.1,-30.7 L917.2,-35.1 L922.2,-39.5 L927.2,-44.0 L932.2,-48.5 L937.2,-53.0 L942.2,-57.5 L947.2,-62.0 L952.2,-66.5 L957.2,-71.0 L962.2,-75.5 L967.2,-80.0 L972.2,-84.5 L977.2,-89.0 L982.3,-93.5 L987.3,-98.0 L992.4,-102.4 L997.6,-106.8 L1002.8,-111.1 L1008.0,-115.4 L1013.3,-119.7 L1018.5,-124.0 L1023.7,-128.4 L1028.9,-132.8 L1034.0,-137.2 L1039.2,-141.6 L1044.1,-146.3 L1047.5,-152.6 L1049.4,-160.5 L1051.2,-168.6 L1053.0,-176.6 L1055.0,-184.5 L1058.0,-193.7 L1058.6,-195.5 Z" fill="#839EA2" fill-opacity="1.0" stroke="none"/>
<path d="M1391.9,249.8 L1385.1,250.4 L1378.3,250.7 L1371.5,250.9 L1364.6,251.0 L1357.8,251.2 L1351.0,251.4 L1344.2,252.0 L1337.4,252.6 L1330.6,253.4 L1323.8,254.2 L1317.1,255.0 L1310.3,255.7 L1303.6,256.5 L1296.8,257.3 L1290.0,258.1 L1283.3,258.9 L1276.5,259.7 L1269.8,260.6 L1263.0,261.4 L1256.3,262.3 L1249.6,263.2 L1242.8,264.0 L1236.1,265.0 L1229.4,265.9 L1222.7,266.9 L1216.0,267.9 L1209.3,268.9 L1202.6,270.0 L1195.9,271.1 L1189.2,272.3 L1182.6,273.5 L1175.9,274.6 L1169.3,275.8 L1162.6,277.1 L1156.0,278.3 L1149.3,279.6 L1142.7,280.9 L1136.1,282.2 L1129.5,283.6 L1122.9,285.0 L1116.3,286.5 L1109.8,287.9 L1103.2,289.4 L1096.6,290.9 L1090.1,292.4 L1083.5,293.9 L1077.0,295.5 L1070.5,297.1 L1063.9,298.7 L1057.4,300.4 L1050.9,302.1 L1044.5,303.8 L1038.0,305.5 L1031.5,307.3 L1025.1,309.2 L1018.7,311.0 L1012.2,313.0 L1005.8,315.0 L999.5,317.0 L993.1,319.0 L986.7,321.0 L980.3,323.1 L974.0,325.1 L967.6,327.2 L961.3,329.3 L954.9,331.3 L948.6,333.5 L942.2,335.6 L935.9,337.8 L929.6,340.1 L923.4,342.4 L917.1,344.7 L910.8,347.1 L904.6,349.5 L898.4,352.0 L892.2,354.4 L886.0,356.9 L879.8,359.4 L873.6,361.9 L867.4,364.5 L861.2,367.1 L855.0,369.7 L848.9,372.3 L842.7,375.0 L836.6,377.7 L830.5,380.4 L824.4,383.2 L818.3,386.0 L812.2,388.8 L806.1,391.7 L800.0,394.5 L794.0,397.4 L787.9,400.3 L781.9,403.3 L775.8,406.2 L769.8,409.2 L763.7,412.1 L757.7,415.1 L751.7,418.2 L745.7,421.2 L739.6,424.3 L733.6,427.3 L727.6,430.4 L721.6,433.6 L715.7,436.7 L709.7,439.9 L703.7,443.1 L697.8,446.3 L691.8,449.5 L685.9,452.8 L680.0,456.1 L674.0,459.3 L668.1,462.6 L662.2,466.0 L656.3,469.3 L650.4,472.7 L644.5,476.1 L638.6,479.5 L632.8,482.9 L626.9,486.4 L621.1,489.8 L615.2,493.4 L609.4,496.9 L603.6,500.4 L597.8,504.0 L592.0,507.6 L586.2,511.2 L580.5,514.8 L574.7,518.4 L568.9,522.0 L563.2,525.7 L557.4,529.3 L551.6,532.9 L545.8,536.4 L540.0,540.0 L576.7,518.4 L584.0,514.1 L590.0,510.8 L595.9,507.4 L601.8,504.0 L607.7,500.7 L613.7,497.4 L619.6,494.1 L625.6,490.8 L631.5,487.5 L637.5,484.3 L643.4,481.0 L649.4,477.7 L655.3,474.5 L661.3,471.3 L667.3,468.1 L673.2,464.9 L679.2,461.7 L685.2,458.6 L691.2,455.4 L697.2,452.3 L703.2,449.2 L709.2,446.0 L715.1,442.9 L721.1,439.8 L727.1,436.7 L733.1,433.7 L739.1,430.6 L745.1,427.6 L751.1,424.5 L757.2,421.6 L763.2,418.6 L769.2,415.7 L775.3,412.8 L781.4,410.0 L787.5,407.2 L793.5,404.4 L799.6,401.6 L805.8,398.9 L811.9,396.2 L818.0,393.5 L824.1,390.8 L830.3,388.2 L836.4,385.6 L842.6,383.1 L848.8,380.5 L854.9,378.1 L861.1,375.6 L867.3,373.2 L873.6,370.8 L879.8,368.5 L886.0,366.1 L892.2,363.8 L898.5,361.5 L904.7,359.3 L911.0,357.1 L917.3,354.9 L923.5,352.7 L929.8,350.6 L936.1,348.5 L942.4,346.4 L948.7,344.3 L955.1,342.3 L961.4,340.3 L967.7,338.3 L974.0,336.3 L980.4,334.4 L986.7,332.4 L993.1,330.5 L999.4,328.6 L1005.8,326.7 L1012.2,324.8 L1018.6,323.0 L1024.9,321.2 L1031.3,319.4 L1037.8,317.6 L1044.2,315.9 L1050.6,314.2 L1057.0,312.5 L1063.5,310.9 L1070.0,309.3 L1076.5,307.7 L1082.9,306.2 L1089.4,304.7 L1096.0,303.2 L1102.5,301.8 L1109.0,300.4 L1115.6,299.0 L1122.1,297.7 L1128.7,296.4 L1135.2,295.0 L1141.8,293.7 L1148.4,292.4 L1155.0,291.2 L1161.6,289.9 L1168.2,288.7 L1174.8,287.5 L1181.4,286.3 L1188.0,285.1 L1194.6,283.9 L1201.3,282.7 L1207.9,281.5 L1214.5,280.4 L1221.2,279.2 L1227.8,278.0 L1234.5,276.9 L1241.2,275.8 L1247.8,274.7 L1254.5,273.6 L1261.2,272.5 L1267.9,271.4 L1274.6,270.3 L1281.3,269.2 L1288.0,268.1 L1294.7,267.0 L1301.4,266.0 L1308.1,265.0 L1314.8,264.0 L1321.5,263.0 L1328.3,262.0 L1335.0,261.0 L1341.7,260.1 L1348.5,259.0 L1355.2,257.7 L1361.8,256.1 L1368.5,254.5 L1375.2,253.0 L1381.8,251.5 L1390.2,250.1 L1391.9,249.8 Z" fill="#9C8D77" fill-opacity="1.0" stroke="none"/>
<path d="M639.1,540.8 L639.7,562.7 L628.4,578.7 L605.2,588.9 L590.7,601.8 L576.4,616.7 L562.4,633.3 L542.4,634.9 L522.8,632.2 L503.6,625.1 L489.5,610.0 L474.8,595.9 L459.5,582.9 L451.5,564.6 L448.2,545.6 L449.7,525.8 L461.4,509.1 L471.7,492.1 L480.6,474.8 L496.8,464.8 L514.4,455.5 L533.5,447.0 L554.7,442.8 L574.5,446.4 L592.8,457.6 L605.3,474.9 L615.5,493.1 L623.6,512.1 L637.3,531.0 L640.8,550.6 L634.0,570.7 L610.0,585.8 L605.2,588.9 Z M636.0,506.2 L628.2,486.9 L616.7,467.2 L601.7,447.2 L579.1,433.2 L555.2,428.5 L530.0,433.1 L508.7,442.3 L489.1,453.2 L471.1,465.9 L461.6,484.9 L450.5,503.7 L437.8,522.1 L435.0,545.8 L438.4,568.6 L448.0,590.4 L464.7,605.2 L480.9,620.6 L496.7,636.7 L519.0,645.4 L542.7,648.3 L567.9,645.3 L585.3,625.9 L600.2,610.4 L612.8,598.6 L637.6,587.1 L650.1,567.3 L650.4,539.2 L640.7,516.6 L631.3,495.9 L622.5,477.1 L605.1,452.2 L601.7,447.2 Z" fill="#000" fill-rule="evenodd" stroke="none"/>
</svg>