<svg xmlns="http://www.w3.org/2000/svg" viewBox="175 205 775 775" width="1000" height="1000" role="img" aria-label="Traços que partem de focos e se dissipam em comprimentos diferentes"><rect x="-200" y="-200" width="1400" height="1400" fill="#FFF"/>
<g transform="translate(98.4,198.0) scale(0.80400)"><path d="M364.6,454.1 L374.7,453.3 L383,450 L402,453.4 L414,455.3 L419.4,458.3 L417.8,466.9 L414.8,480.2 L411.8,481.4 L412.7,491.2 L409.3,499.5 L404.8,508.1 L399.8,513.8 L401.5,519.8 L396,529 L391.2,531 L385.2,524.9 L383.9,533.6 L377.7,535.8 L370.4,530.8 L366.9,542.8 L359.9,545.4 L352.5,545.8 L345.6,542.3 L333.7,545.4 L326.2,547.3 L321.2,538.4 L316.4,522.4 L316,507.8 L321.9,509 L322.7,506.4 L316.9,504.9 L313,494.6 L313.9,479 L316.9,472.1 L317.4,462.2 L327.7,449.9 L337.2,447.4 Z M267.2,526.1 L268.4,512.3 L273.9,491.6 L285,474.3 L296.7,480.3 L290.2,501.6 L275.8,520.6 Z M593.4,616.1 L589.1,622 L590.4,615.2 L589.7,610.5 L590.1,606.9 L593.1,603.4 L594.1,602.9 L593.8,607.1 L594,608.5 Z M575.4,519.3 L572.5,522.1 L571.7,523.6 L569.3,522.5 L569.8,520.8 L570.4,521 L571.2,516.2 L575.2,516.8 Z M359.7,424.5 L361.6,427.6 L355.2,440 L351.9,441.9 L348,442.2 L343.1,438.5 L335.4,438.8 L333,437.8 L332.9,432.4 L336.1,426.6 L342.4,426.9 L353.5,422.3 Z M335.5,324.7 L331,327.4 L328.5,326.3 L326.2,319.2 L327,313.3 L330.3,311.3 L332.8,311.7 L333.8,312.5 L335.9,322.2 Z M319.1,448.3 L307,460 L303,456.2 L302,453.9 L302.8,451.7 L302.7,450.8 L304,446.8 L310.8,443.4 L314.2,442.9 L318.5,444 L319.3,446.8 Z M372.8,447.2 L361.1,449 L355.7,446 L357,443.5 L361,439.6 L365.8,436.7 L370.2,435.5 L374.7,437 L376,440.4 L375.7,443.8 Z M329.2,432.1 L320.4,437.2 L324.9,425.7 L329.2,415.1 L330.7,405.7 L332.6,405.7 L333.3,425 Z M341.3,417 L336.5,419 L335.8,417.1 L335.8,409.6 L337.1,405.5 L343.1,404.3 L343.8,403.1 L345.5,402.4 L346.6,405 L346.5,409.2 Z M-20,-2.8 L-19,-1 L-17.8,3.2 L-18.7,20.4 L-20,23.4 L-20,-2.8 Z M-20,37.7 L-11,29.9 L-1.1,33.3 L10.6,46.5 L21.1,62.5 L34.6,71.6 L36.6,89 L34.6,109.1 L37.2,103.4 L39.2,92.4 L45.6,82.6 L77.9,89 L92.5,100.1 L92.2,88.6 L104.1,83 L126.2,82.6 L161.1,87.6 L174.2,93.7 L174.2,105.5 L168.8,120.4 L176.8,101.6 L183.3,95.3 L208.3,109.4 L230.3,125.6 L250.6,145.3 L248.9,155.5 L260.6,158.7 L264.6,170.8 L262.6,178.5 L264.7,177.7 L266.5,170.2 L270.7,163.6 L275.9,184.4 L277.7,193.2 L277.6,197.9 L282.6,183 L292.2,188.1 L302.7,221.1 L305.7,256.6 L313,286.7 L316.4,298.4 L318.9,310.2 L319.7,313.1 L323.3,321 L328.3,331.1 L340.4,333.8 L350.5,341.3 L352.6,364.6 L351.1,373.4 L345.2,379.8 L332.9,395.6 L322.3,415.3 L311.9,430.2 L305.2,432.7 L291.2,445.5 L285.9,464 L279.2,473.3 L272,491.6 L267.6,507.2 L262.6,519.4 L258.9,524.1 L235.2,531 L246.1,533.7 L262.2,535.3 L280.5,521.4 L295.1,508.4 L304.3,499.5 L311,500.2 L307.7,507.1 L310.9,513.8 L312.1,522.7 L318.4,538.7 L318,545.7 L322.7,551 L337.1,555.4 L343.5,551.4 L353.1,552.3 L367.1,552.1 L375.5,558.3 L370.9,576.7 L367,594.9 L368.1,597.7 L373.1,590.1 L383.7,555 L393.4,549.8 L410.7,529.4 L416.8,536.9 L421.7,529 L416.4,523.7 L419,513.9 L423.4,502.6 L425.1,494 L431.3,488 L433.9,483.1 L438.7,486.5 L445.5,480.2 L448.9,483 L452.4,483.4 L460.4,485.3 L462.1,483.6 L461.8,479.1 L469.3,479 L475.7,485 L483.9,484.9 L489.8,487 L497.1,495.2 L502.8,500.1 L511.6,502.6 L516.2,506.2 L523.7,506.4 L535.6,515.2 L545.5,520 L554.7,534.1 L557.8,541.9 L562.2,530.5 L569.1,530.9 L577.9,540.3 L582.7,544.1 L582.8,547.6 L588.5,550.5 L591.1,563.2 L587.6,569.1 L583.7,574.4 L584,579.1 L589.4,573.7 L595.6,570 L598.1,581.8 L592.1,588.8 L589.2,594.3 L587.1,605.6 L583.8,631.9 L596.2,616.4 L601.6,592 L607.3,588.1 L610.7,593.4 L606.8,601.7 L606.9,608.4 L618.2,594.9 L627.3,590.9 L640.1,584.7 L649.2,583.1 L667,591.6 L677.7,599.5 L704.1,608.2 L716.4,608.3 L727.2,614.7 L739.9,612.9 L771.8,607.5 L794.3,611.5 L810.3,623.1 L820,630.5 L-20,1020 Z" fill="none" stroke="#131313" stroke-width="1.24" stroke-linejoin="round"/></g>
<path d="M262.0,700.0 C263.3,698.4 267.3,693.4 269.9,690.1 C272.5,686.9 275.2,683.6 277.8,680.3 C280.4,677.0 283.1,673.7 285.7,670.5 C288.3,667.2 291.0,663.9 293.6,660.6 C296.3,657.4 298.9,654.1 301.5,650.9 C304.2,647.6 306.8,644.3 309.5,641.1 C312.1,637.9 314.8,634.6 317.4,631.4 C320.1,628.2 322.7,624.9 325.4,621.7 C328.1,618.5 330.7,615.3 333.4,612.1 C336.1,608.9 338.8,605.7 341.4,602.5 C344.1,599.4 346.8,596.2 349.5,593.1 C352.2,589.9 354.9,586.8 357.6,583.6 C360.3,580.5 363.0,577.4 365.7,574.3 C368.4,571.2 371.1,568.1 373.8,565.0 C376.6,562.0 379.3,558.9 382.0,555.9 C384.8,552.8 387.5,549.8 390.3,546.8 C393.0,543.8 395.8,540.8 398.5,537.9 C401.3,534.9 404.1,531.9 406.8,529.0 C409.6,526.1 412.4,523.1 415.2,520.3 C418.0,517.4 420.8,514.5 423.6,511.6 C426.4,508.8 429.3,505.9 432.1,503.1 C434.9,500.3 437.8,497.5 440.6,494.8 C443.5,492.0 446.3,489.2 449.2,486.5 C452.1,483.8 455.0,481.1 457.8,478.4 C460.7,475.7 463.6,473.1 466.5,470.5 C469.5,467.8 472.4,465.2 475.3,462.7 C478.2,460.1 481.2,457.5 484.1,455.0 C487.1,452.5 490.0,450.0 493.0,447.5 C496.0,445.0 499.0,442.6 502.0,440.2 C505.0,437.8 508.0,435.4 511.0,433.0 C514.0,430.6 517.1,428.3 520.1,426.0 C523.2,423.7 526.2,421.4 529.3,419.2 C532.4,416.9 535.4,414.7 538.5,412.5 C541.6,410.3 544.7,408.1 547.9,406.0 C551.0,403.9 554.1,401.8 557.2,399.7 C560.4,397.6 563.6,395.6 566.7,393.6 C569.9,391.6 573.1,389.6 576.3,387.6 C579.5,385.7 582.7,383.8 585.9,381.9 C589.1,380.0 592.4,378.1 595.6,376.3 C598.9,374.5 602.1,372.7 605.4,370.9 C608.7,369.1 612.0,367.4 615.3,365.7 C618.6,364.0 621.9,362.4 625.2,360.7 C628.5,359.1 631.9,357.5 635.2,355.9 C638.6,354.3 642.0,352.8 645.4,351.3 C648.7,349.8 652.1,348.3 655.6,346.9 C659.0,345.4 662.4,344.0 665.8,342.6 C669.3,341.3 672.7,339.9 676.2,338.6 C679.6,337.3 683.1,336.0 686.6,334.8 C690.1,333.5 693.6,332.3 697.1,331.1 C700.7,329.9 704.2,328.8 707.7,327.6 C711.3,326.5 714.8,325.4 718.4,324.4 C722.0,323.3 725.6,322.3 729.2,321.3 C732.8,320.3 736.4,319.3 740.0,318.4 C743.6,317.5 747.3,316.6 750.9,315.7 C754.6,314.8 758.3,314.0 761.9,313.2 C765.6,312.3 769.3,311.6 773.0,310.8 C776.7,310.1 780.4,309.3 784.1,308.6 C787.9,307.9 791.6,307.3 795.4,306.7 C799.1,306.0 802.9,305.4 806.7,304.8 C810.4,304.3 814.2,303.7 818.0,303.2 C821.8,302.7 825.6,302.2 829.5,301.7 C833.3,301.2 837.1,300.8 841.0,300.4 C844.8,300.0 848.7,299.6 852.6,299.2 C856.4,298.9 860.3,298.5 864.2,298.2 C868.1,297.9 872.0,297.7 875.9,297.4 C879.8,297.1 883.7,296.9 887.7,296.7 C891.6,296.5 895.5,296.3 899.5,296.1 C903.4,296.0 907.4,295.8 911.4,295.7 C915.4,295.6 919.3,295.5 923.3,295.4 C927.3,295.4 931.3,295.3 935.3,295.3 C939.3,295.3 943.4,295.2 947.4,295.3 C951.4,295.3 955.4,295.3 959.5,295.3 C963.5,295.4 967.6,295.5 971.6,295.5 C975.7,295.6 979.8,295.7 983.8,295.9 C987.9,296.0 992.0,296.1 996.1,296.3 C1000.1,296.4 1004.2,296.6 1008.3,296.8 C1012.4,297.0 1016.5,297.2 1020.7,297.4 C1024.8,297.6 1028.9,297.8 1033.0,298.1 C1037.1,298.3 1041.3,298.6 1045.4,298.8 C1049.5,299.1 1053.7,299.4 1057.8,299.7 C1062.0,300.0 1066.1,300.3 1070.3,300.6 C1074.4,300.9 1078.6,301.2 1082.7,301.5 C1086.9,301.9 1091.1,302.2 1095.2,302.5 C1099.4,302.9 1103.6,303.2 1107.7,303.6 C1111.9,304.0 1116.1,304.3 1120.3,304.7 C1124.4,305.1 1128.6,305.5 1132.8,305.8 C1137.0,306.2 1141.2,306.6 1145.4,307.0 C1149.5,307.4 1153.7,307.8 1157.9,308.2 C1162.1,308.6 1166.3,309.0 1170.5,309.4 C1174.7,309.8 1181.0,310.4 1183.1,310.6" fill="none" stroke="#FFF" stroke-width="82" stroke-linecap="round"/>
<path d="M378.0,566.0 C379.4,564.9 383.7,561.8 386.5,559.7 C389.4,557.6 392.2,555.5 395.0,553.4 C397.9,551.3 400.7,549.1 403.6,547.0 C406.4,544.9 409.2,542.8 412.1,540.8 C414.9,538.7 417.8,536.6 420.6,534.5 C423.5,532.4 426.3,530.3 429.2,528.2 C432.0,526.1 434.8,524.1 437.7,522.0 C440.5,519.9 443.4,517.9 446.2,515.8 C449.1,513.8 452.0,511.7 454.8,509.7 C457.7,507.6 460.5,505.6 463.4,503.6 C466.2,501.5 469.1,499.5 472.0,497.5 C474.8,495.5 477.7,493.5 480.6,491.5 C483.4,489.5 486.3,487.5 489.2,485.5 C492.0,483.6 494.9,481.6 497.8,479.7 C500.7,477.7 503.6,475.8 506.4,473.8 C509.3,471.9 512.2,470.0 515.1,468.1 C518.0,466.2 520.9,464.3 523.8,462.4 C526.7,460.5 529.6,458.6 532.5,456.8 C535.4,454.9 538.3,453.1 541.2,451.3 C544.1,449.4 547.0,447.6 549.9,445.8 C552.8,444.0 555.8,442.3 558.7,440.5 C561.6,438.7 564.5,437.0 567.5,435.2 C570.4,433.5 573.3,431.8 576.3,430.1 C579.2,428.4 582.1,426.7 585.1,425.0 C588.0,423.4 591.0,421.7 594.0,420.1 C596.9,418.5 599.9,416.8 602.8,415.3 C605.8,413.7 608.8,412.1 611.7,410.5 C614.7,409.0 617.7,407.4 620.7,405.9 C623.7,404.4 626.6,402.9 629.6,401.4 C632.6,399.9 635.6,398.5 638.6,397.0 C641.6,395.6 644.6,394.1 647.7,392.7 C650.7,391.3 653.7,390.0 656.7,388.6 C659.7,387.2 662.8,385.9 665.8,384.6 C668.8,383.3 671.9,382.0 674.9,380.7 C678.0,379.4 681.0,378.2 684.1,376.9 C687.1,375.7 690.2,374.5 693.2,373.3 C696.3,372.1 699.4,371.0 702.4,369.8 C705.5,368.7 708.6,367.6 711.7,366.5 C714.8,365.4 719.4,363.8 721.0,363.2" fill="none" stroke="#FFF" stroke-width="58" stroke-linecap="round"/>
<path d="M262.0,700.0 C262.5,698.2 264.2,692.7 265.2,689.0 C266.3,685.3 267.4,681.7 268.5,678.0 C269.6,674.3 270.6,670.7 271.7,667.0 C272.8,663.3 273.9,659.7 275.0,656.0 C276.1,652.4 277.2,648.7 278.3,645.1 C279.4,641.5 280.5,637.8 281.6,634.2 C282.7,630.6 283.8,626.9 284.9,623.3 C286.1,619.7 287.2,616.1 288.3,612.5 C289.5,608.9 290.6,605.4 291.7,601.8 C292.9,598.2 294.0,594.6 295.2,591.1 C296.4,587.5 297.5,584.0 298.7,580.5 C299.9,577.0 301.1,573.4 302.3,569.9 C303.5,566.4 304.7,563.0 305.9,559.5 C307.1,556.0 308.3,552.6 309.6,549.1 C310.8,545.7 312.1,542.3 313.3,538.9 C314.6,535.5 315.9,532.1 317.1,528.7 C318.4,525.4 319.7,522.0 321.0,518.7 C322.4,515.4 323.7,512.0 325.0,508.8 C326.4,505.5 327.7,502.2 329.1,498.9 C330.5,495.7 331.8,492.5 333.2,489.3 C334.6,486.1 336.0,482.9 337.5,479.7 C338.9,476.6 340.4,473.4 341.8,470.3 C343.3,467.2 344.8,464.1 346.3,461.1 C347.7,458.0 349.3,455.0 350.8,452.0 C352.3,449.0 353.9,446.0 355.4,443.0 C357.0,440.1 358.6,437.1 360.2,434.2 C361.8,431.3 363.4,428.4 365.1,425.6 C366.7,422.8 369.2,418.6 370.1,417.1" fill="none" stroke="#FFF" stroke-width="48" stroke-linecap="round"/>
<path d="M206.0,812.0 C207.3,811.3 211.3,809.2 214.0,807.9 C216.7,806.5 219.3,805.1 222.0,803.7 C224.7,802.4 227.4,801.0 230.0,799.6 C232.7,798.3 235.4,796.9 238.0,795.5 C240.7,794.2 243.4,792.8 246.0,791.4 C248.7,790.1 251.4,788.7 254.1,787.4 C256.7,786.0 259.4,784.7 262.1,783.3 C264.8,782.0 267.4,780.6 270.1,779.3 C272.8,777.9 275.4,776.6 278.1,775.3 C280.8,774.0 283.5,772.6 286.2,771.3 C288.8,770.0 291.5,768.7 294.2,767.4 C296.9,766.1 299.5,764.8 302.2,763.5 C304.9,762.2 307.6,761.0 310.3,759.7 C312.9,758.4 315.6,757.2 318.3,755.9 C321.0,754.6 323.7,753.4 326.4,752.2 C329.1,750.9 331.7,749.7 334.4,748.5 C337.1,747.3 339.8,746.0 342.5,744.8 C345.2,743.7 347.9,742.5 350.6,741.3 C353.3,740.1 357.3,738.4 358.7,737.8" fill="none" stroke="#FFF" stroke-width="42" stroke-linecap="round"/>
<path d="M378.0,566.0 C378.0,564.2 378.0,559.0 377.9,555.5 C377.9,552.0 377.9,548.5 377.9,545.0 C377.9,541.5 377.8,538.0 377.8,534.5 C377.8,531.0 377.8,527.5 377.8,524.0 C377.8,520.5 377.8,517.0 377.8,513.5 C377.8,510.0 377.8,506.6 377.8,503.1 C377.8,499.6 377.9,496.2 377.9,492.7 C377.9,489.3 377.9,485.8 378.0,482.4 C378.0,479.0 378.1,475.6 378.2,472.1 C378.2,468.7 378.3,465.3 378.4,461.9 C378.5,458.6 378.5,455.2 378.7,451.8 C378.8,448.5 378.9,445.1 379.0,441.8 C379.1,438.4 379.4,433.5 379.4,431.8" fill="none" stroke="#FFF" stroke-width="37" stroke-linecap="round"/>
<path d="M700.0,820.0 L699.7,836.3 L699.0,852.7 L697.7,868.9 L695.9,885.2 L693.6,901.3 L690.8,917.4 L687.5,933.4 L683.7,949.3 L679.4,965.1 L674.5,980.7 L669.3,996.1 L663.5,1011.4 L657.2,1026.5 L650.5,1041.4 L643.3,1056.1 L635.7,1070.5 L627.6,1084.7 L619.1,1098.6 L610.1,1112.3 L600.7,1125.6 L590.9,1138.7 L580.7,1151.5 L570.1,1163.9 L559.1,1176.0 L547.7,1187.7 L536.0,1199.1 L523.9,1210.1 L511.5,1220.7 L498.7,1230.9 L485.6,1240.7 L472.3,1250.1 L458.6,1259.1 L444.7,1267.6 L430.5,1275.7 L416.1,1283.3 L401.4,1290.5 L386.5,1297.2 L371.4,1303.5 L356.1,1309.3 L340.7,1314.5 L325.1,1319.4 L309.3,1323.7 L293.4,1327.5 L277.4,1330.8 L261.3,1333.6 L245.2,1335.9 L228.9,1337.7 L212.6,1339.0 L196.3,1339.7 L180.0,1340.0 L163.7,1339.7 L147.3,1339.0 L131.1,1337.7 L114.8,1335.9 L98.7,1333.6 L82.6,1330.8 L66.6,1327.5 L50.7,1323.7 L34.9,1319.4 L19.3,1314.5 L3.9,1309.3 L-11.4,1303.5 L-26.5,1297.2 L-41.4,1290.5 L-56.1,1283.3 L-70.5,1275.7 L-84.7,1267.6 L-98.6,1259.0 L-112.3,1250.1 L-125.7,1240.7 L-138.7,1230.9 L-151.5,1220.7 L-163.9,1210.1 L-176.0,1199.1 L-187.7,1187.7 L-199.1,1176.0 L-210.1,1163.9 L-220.7,1151.5 L-230.9,1138.7 L-240.7,1125.6 L-250.1,1112.3 L-259.1,1098.6 L-267.6,1084.7 L-275.7,1070.5 L-283.3,1056.1 L-290.5,1041.4 L-297.2,1026.5 L-303.5,1011.4 L-309.3,996.1 L-314.6,980.7 L-319.4,965.1 L-323.7,949.3 L-327.5,933.4 L-330.8,917.4 L-333.6,901.3 L-335.9,885.2 L-337.7,868.9 L-339.0,852.6 L-339.7,836.3 L-340.0,820.0 L-339.7,803.7 L-339.0,787.3 L-337.7,771.1 L-335.9,754.8 L-333.6,738.7 L-330.8,722.6 L-327.5,706.6 L-323.7,690.7 L-319.4,674.9 L-314.5,659.3 L-309.3,643.9 L-303.5,628.6 L-297.2,613.5 L-290.5,598.6 L-283.3,583.9 L-275.7,569.5 L-267.6,555.3 L-259.0,541.4 L-250.1,527.7 L-240.7,514.3 L-230.9,501.3 L-220.7,488.5 L-210.1,476.1 L-199.1,464.0 L-187.7,452.3 L-176.0,440.9 L-163.9,429.9 L-151.5,419.3 L-138.7,409.1 L-125.6,399.3 L-112.3,389.9 L-98.6,380.9 L-84.7,372.4 L-70.5,364.3 L-56.1,356.7 L-41.4,349.5 L-26.5,342.8 L-11.4,336.5 L3.9,330.7 L19.3,325.4 L34.9,320.6 L50.7,316.3 L66.6,312.5 L82.6,309.2 L98.7,306.4 L114.8,304.1 L131.1,302.3 L147.4,301.0 L163.7,300.3 L180.0,300.0 L196.3,300.3 L212.7,301.0 L228.9,302.3 L245.2,304.1 L261.4,306.4 L277.4,309.2 L293.4,312.5 L309.3,316.3 L325.1,320.6 L340.7,325.5 L356.1,330.7 L371.4,336.5 L386.5,342.8 L401.4,349.5 L416.1,356.7 L430.5,364.3 L444.7,372.4 L458.6,381.0 L472.3,389.9 L485.7,399.3 L498.7,409.1 L511.5,419.3 L523.9,429.9 L536.0,440.9 L547.7,452.3 L559.1,464.0 L570.1,476.1 L580.7,488.5 L590.9,501.3 L600.7,514.4 L610.1,527.7 L619.1,541.4 L627.6,555.3 L635.7,569.5 L643.3,583.9 L650.5,598.6 L657.2,613.5 L663.5,628.6 L669.3,643.9 L674.6,659.3 L679.4,674.9 L683.7,690.7 L687.5,706.6 L690.8,722.6 L693.6,738.7 L695.9,754.8 L697.7,771.1 L699.0,787.4 L699.7,803.7 L700.0,820.0" fill="none" stroke="#0F0F0F" stroke-width="1.7"/>
<path d="M262.0,700.0 C263.7,698.7 268.7,694.6 272.4,692.1 C276.0,689.7 280.0,687.4 283.9,685.2 C287.8,682.9 292.0,680.9 295.9,678.6 C299.8,676.4 303.8,674.3 307.3,671.7 C310.7,669.0 313.4,665.9 316.3,662.8 C319.1,659.7 321.6,656.4 324.3,653.2 C327.1,650.1 329.8,646.9 332.6,643.8 C335.3,640.7 338.1,637.6 340.9,634.6 C343.7,631.5 346.5,628.5 349.4,625.4 C352.2,622.4 355.0,619.4 357.9,616.5 C360.8,613.5 363.6,610.5 366.5,607.6 C369.4,604.6 372.2,601.7 375.1,598.8 C378.0,595.9 380.9,593.0 383.8,590.1 C386.6,587.2 389.5,584.4 392.4,581.5 C395.3,578.7 398.2,575.9 401.1,573.1 C404.0,570.3 406.9,567.5 409.9,564.8 C412.8,562.0 415.7,559.3 418.7,556.6 C421.6,553.9 424.6,551.3 427.6,548.7 C430.6,546.0 433.6,543.5 436.6,540.9 C439.6,538.4 442.6,535.9 445.7,533.4 C448.7,530.9 451.8,528.5 454.9,526.1 C458.0,523.7 461.1,521.3 464.1,519.0 C467.2,516.6 470.3,514.3 473.3,511.9 C476.4,509.6 479.4,507.3 482.4,505.0 C485.4,502.6 488.4,500.3 491.3,497.9 C494.3,495.6 497.2,493.2 500.1,490.8 C502.9,488.4 505.8,486.1 508.7,483.7 C511.5,481.3 514.4,479.0 517.2,476.7 C520.1,474.3 523.0,472.0 525.8,469.7 C528.7,467.5 531.6,465.2 534.5,463.0 C537.4,460.9 540.4,458.7 543.4,456.7 C546.3,454.6 549.3,452.6 552.3,450.6 C555.3,448.6 558.4,446.7 561.4,444.8 C564.4,442.9 567.5,441.0 570.5,439.2 C573.6,437.3 576.6,435.5 579.7,433.7 C582.7,431.9 585.8,430.1 588.8,428.3 C591.8,426.6 594.8,424.8 597.9,423.0 C600.9,421.3 603.9,419.5 607.0,417.8 C610.0,416.1 613.1,414.5 616.2,412.9 C619.2,411.2 622.3,409.7 625.4,408.2 C628.5,406.6 631.7,405.1 634.8,403.7 C638.0,402.3 641.1,400.9 644.3,399.6 C647.5,398.2 650.7,397.0 653.9,395.7 C657.1,394.5 660.3,393.3 663.6,392.2 C666.8,391.0 670.1,390.0 673.3,388.9 C676.6,387.8 679.8,386.8 683.1,385.8 C686.4,384.8 689.7,383.8 692.9,382.8 C696.2,381.8 699.5,380.9 702.8,380.0 C706.1,379.0 709.4,378.1 712.7,377.2 C715.9,376.2 719.2,375.3 722.5,374.4 C725.8,373.5 729.2,372.6 732.5,371.8 C735.8,370.9 739.1,370.0 742.4,369.1 C745.7,368.3 749.1,367.4 752.4,366.5 C755.8,365.6 759.1,364.7 762.5,363.9 C765.8,363.0 769.2,362.1 772.5,361.2 C775.9,360.4 779.3,359.4 782.7,358.5 C786.1,357.6 789.5,356.7 792.9,355.7 C796.3,354.8 799.8,353.9 803.2,353.0 C806.7,352.1 810.1,351.2 813.6,350.4 C817.1,349.6 820.6,348.7 824.2,348.0 C827.7,347.2 831.3,346.5 834.9,345.9 C838.4,345.3 842.0,344.7 845.7,344.1 C849.3,343.5 852.9,343.2 856.6,342.5 C860.2,341.9 863.8,341.0 867.5,340.3 C871.2,339.6 874.9,338.9 878.6,338.3 C882.3,337.6 886.0,337.1 889.8,336.5 C893.5,335.9 897.3,335.4 901.1,334.9 C904.9,334.4 908.7,333.9 912.5,333.5 C916.3,333.0 920.1,332.6 924.0,332.3 C927.9,331.9 931.7,331.5 935.6,331.2 C939.5,330.9 943.4,330.6 947.3,330.2 C951.2,329.9 955.1,329.8 959.1,329.3 C963.0,328.9 967.0,328.2 971.0,327.6 C974.9,327.1 978.9,326.6 982.9,326.1 C986.9,325.7 991.0,325.2 995.0,324.8 C999.0,324.3 1003.1,323.9 1007.1,323.5 C1011.2,323.1 1015.3,322.8 1019.4,322.4 C1023.4,322.1 1027.5,321.7 1031.6,321.4 C1035.7,321.1 1039.9,320.8 1044.0,320.5 C1048.1,320.3 1052.3,320.0 1056.4,319.7 C1060.6,319.4 1064.7,319.2 1068.9,318.9 C1073.1,318.6 1077.2,318.3 1081.4,318.1 C1085.6,317.8 1089.8,317.5 1094.0,317.2 C1098.2,316.9 1102.4,316.6 1106.6,316.3 C1110.9,316.0 1115.1,315.7 1119.3,315.4 C1123.5,315.1 1127.8,314.8 1132.0,314.4 C1136.3,314.1 1140.5,313.8 1144.8,313.4 C1149.0,313.1 1153.3,312.8 1157.5,312.4 C1161.8,312.1 1166.0,311.7 1170.3,311.4 C1174.6,311.1 1180.9,310.7 1183.1,310.6 L1132.8,305.9 C1130.7,305.7 1124.5,304.9 1120.3,304.4 C1116.1,303.9 1112.0,303.4 1107.8,302.8 C1103.6,302.3 1099.5,301.7 1095.3,301.2 C1091.2,300.6 1087.0,300.0 1082.9,299.4 C1078.8,298.8 1074.6,298.1 1070.5,297.5 C1066.4,296.9 1062.2,296.2 1058.1,295.6 C1054.0,294.9 1049.8,294.3 1045.7,293.7 C1041.6,293.0 1037.5,292.4 1033.4,291.7 C1029.3,291.0 1025.2,290.4 1021.1,289.7 C1017.0,289.0 1012.9,288.3 1008.8,287.5 C1004.7,286.8 1000.6,286.0 996.5,285.1 C992.4,284.3 988.3,283.5 984.2,282.6 C980.1,281.8 976.0,280.9 972.0,280.1 C967.9,279.4 963.8,278.5 959.7,277.9 C955.6,277.3 951.5,277.0 947.4,276.6 C943.3,276.3 939.3,275.9 935.2,275.7 C931.1,275.4 927.0,275.1 923.0,274.9 C918.9,274.7 914.8,274.6 910.8,274.4 C906.7,274.3 902.6,274.2 898.6,274.1 C894.5,274.0 890.5,274.0 886.5,274.0 C882.4,274.0 878.4,274.1 874.4,274.2 C870.4,274.3 866.3,274.5 862.3,274.7 C858.3,274.9 854.3,275.0 850.3,275.3 C846.4,275.7 842.4,276.2 838.4,276.6 C834.5,277.0 830.5,277.4 826.6,277.8 C822.6,278.2 818.7,278.5 814.7,278.9 C810.8,279.3 806.8,279.7 802.9,280.1 C799.0,280.6 795.0,281.0 791.1,281.5 C787.2,282.0 783.3,282.6 779.4,283.2 C775.5,283.8 771.7,284.5 767.8,285.2 C764.0,286.0 760.1,286.8 756.3,287.7 C752.5,288.5 748.7,289.4 744.9,290.4 C741.1,291.3 737.3,292.3 733.5,293.2 C729.8,294.2 726.0,295.1 722.2,296.1 C718.5,297.1 714.7,298.1 711.0,299.2 C707.2,300.3 703.5,301.4 699.8,302.5 C696.1,303.7 692.4,304.9 688.7,306.2 C685.1,307.4 681.4,308.7 677.8,310.1 C674.2,311.4 670.6,312.8 667.0,314.3 C663.4,315.7 659.8,317.2 656.2,318.7 C652.7,320.2 649.1,321.8 645.6,323.3 C642.1,324.9 638.5,326.5 635.0,328.1 C631.5,329.7 628.0,331.4 624.6,333.1 C621.1,334.7 617.6,336.4 614.2,338.2 C610.7,339.9 607.3,341.7 603.9,343.5 C600.4,345.3 597.0,347.2 593.6,349.0 C590.2,350.9 586.8,352.8 583.5,354.7 C580.1,356.5 576.7,358.5 573.3,360.4 C569.9,362.3 566.6,364.2 563.2,366.2 C559.8,368.1 556.4,370.0 553.0,372.0 C549.6,373.9 546.3,375.9 542.9,378.0 C539.6,380.0 536.3,382.1 533.0,384.2 C529.7,386.4 526.4,388.6 523.2,390.9 C520.0,393.1 516.8,395.5 513.7,397.8 C510.5,400.2 507.4,402.6 504.3,405.1 C501.2,407.5 498.1,410.0 495.0,412.5 C491.9,415.0 488.8,417.5 485.8,420.1 C482.7,422.6 479.6,425.1 476.6,427.7 C473.5,430.3 470.4,432.8 467.4,435.4 C464.3,438.0 461.2,440.6 458.2,443.2 C455.2,445.8 452.1,448.5 449.1,451.2 C446.1,453.9 443.2,456.6 440.2,459.4 C437.3,462.2 434.4,465.0 431.5,467.9 C428.6,470.7 425.7,473.6 422.9,476.5 C420.0,479.4 417.2,482.3 414.4,485.3 C411.6,488.2 408.8,491.2 406.0,494.2 C403.1,497.2 400.3,500.2 397.5,503.2 C394.8,506.2 392.0,509.2 389.2,512.3 C386.4,515.3 383.7,518.4 381.0,521.5 C378.2,524.6 375.5,527.7 372.8,530.9 C370.1,534.0 367.4,537.2 364.8,540.3 C362.1,543.5 359.4,546.7 356.8,549.9 C354.2,553.2 351.6,556.4 348.9,559.7 C346.3,562.9 343.7,566.2 341.2,569.5 C338.6,572.8 336.0,576.0 333.4,579.4 C330.9,582.7 328.3,586.0 325.7,589.3 C323.2,592.6 320.7,596.0 318.1,599.3 C315.6,602.7 313.0,606.0 310.5,609.4 C308.0,612.7 305.4,616.1 302.9,619.4 C300.4,622.8 297.9,626.2 295.3,629.5 C292.8,632.9 290.1,636.1 287.7,639.6 C285.4,643.1 283.0,646.6 281.1,650.5 C279.3,654.5 278.0,658.9 276.6,663.1 C275.2,667.4 273.9,671.8 272.5,676.0 C271.0,680.2 269.5,684.4 267.8,688.4 C266.0,692.4 263.0,698.1 262.0,700.0 Z" fill="#DF7E35" fill-opacity="1.0" stroke="none"/>
<path d="M378.0,566.0 C380.4,566.3 387.7,567.2 392.4,567.6 C397.1,568.0 402.6,569.5 406.3,568.6 C410.1,567.7 412.0,564.4 414.8,562.3 C417.7,560.2 420.6,558.2 423.4,556.2 C426.3,554.1 429.2,552.1 432.0,550.0 C434.8,547.9 437.6,545.7 440.4,543.6 C443.2,541.5 446.0,539.3 448.8,537.3 C451.6,535.2 454.4,533.1 457.3,531.1 C460.1,529.1 463.0,527.1 465.8,525.1 C468.7,523.1 471.6,521.1 474.4,519.1 C477.3,517.1 480.1,515.1 483.0,513.1 C485.8,511.2 488.7,509.2 491.5,507.2 C494.3,505.2 497.1,503.2 499.9,501.2 C502.7,499.1 505.4,497.1 508.2,495.0 C511.0,492.9 513.7,490.9 516.5,488.8 C519.3,486.8 522.0,484.8 524.8,482.8 C527.6,480.8 530.4,478.9 533.2,476.9 C536.0,474.9 538.7,472.9 541.5,471.0 C544.3,469.0 547.1,467.0 549.9,465.1 C552.7,463.2 555.5,461.3 558.3,459.4 C561.1,457.5 563.9,455.6 566.7,453.7 C569.5,451.9 572.3,450.1 575.2,448.3 C578.1,446.6 581.0,444.9 583.9,443.2 C586.8,441.6 589.7,439.9 592.6,438.3 C595.5,436.6 598.3,434.8 601.2,433.2 C604.1,431.5 607.0,429.9 609.9,428.3 C612.8,426.8 615.8,425.4 618.7,423.8 C621.6,422.2 624.4,420.4 627.2,418.7 C630.0,417.0 632.8,415.2 635.6,413.5 C638.4,411.7 641.2,410.0 644.0,408.2 C646.8,406.5 649.6,404.8 652.4,403.0 C655.2,401.3 658.0,399.4 660.8,397.7 C663.6,396.1 666.5,394.5 669.4,392.9 C672.3,391.4 675.2,389.8 678.1,388.3 C681.0,386.7 683.9,385.2 686.8,383.6 C689.6,382.1 692.5,380.5 695.4,378.9 C698.3,377.3 701.1,375.6 704.0,374.0 C706.8,372.3 709.7,370.6 712.5,368.8 C715.3,367.0 719.6,364.2 721.0,363.2 L701.4,367.0 C699.7,367.2 694.7,368.0 691.3,368.4 C687.9,368.8 684.5,369.2 681.1,369.5 C677.6,369.9 674.1,370.2 670.6,370.4 C667.0,370.6 663.4,370.7 659.8,370.8 C656.2,371.0 652.5,371.0 648.9,371.3 C645.4,371.6 641.7,371.9 638.3,372.7 C634.9,373.4 631.7,374.7 628.5,375.8 C625.2,377.0 622.0,378.2 618.8,379.6 C615.7,380.9 612.6,382.4 609.5,384.0 C606.4,385.5 603.4,387.2 600.4,389.0 C597.5,390.7 594.6,392.6 591.6,394.3 C588.6,396.0 585.5,397.6 582.5,399.3 C579.5,401.1 576.6,402.9 573.6,404.7 C570.7,406.6 567.8,408.5 564.8,410.2 C561.8,412.0 558.7,413.6 555.6,415.3 C552.6,416.9 549.5,418.6 546.4,420.2 C543.3,421.8 540.2,423.4 537.1,425.0 C534.0,426.6 530.8,428.2 527.8,429.9 C524.7,431.6 521.6,433.3 518.7,435.2 C515.7,437.1 512.8,439.1 509.9,441.1 C507.1,443.1 504.2,445.2 501.3,447.2 C498.4,449.2 495.4,451.0 492.5,453.0 C489.7,455.1 486.9,457.2 484.1,459.5 C481.4,461.7 478.8,464.2 476.0,466.4 C473.3,468.6 470.5,470.8 467.6,472.9 C464.8,475.0 461.9,477.0 459.0,479.1 C456.2,481.1 453.3,483.2 450.4,485.2 C447.5,487.3 444.6,489.3 441.8,491.4 C438.9,493.5 436.1,495.7 433.4,497.9 C430.6,500.2 428.0,502.6 425.3,504.9 C422.6,507.2 420.0,509.6 417.2,511.9 C414.5,514.2 411.7,516.3 408.9,518.5 C406.1,520.7 403.2,522.7 400.4,524.9 C397.6,527.1 394.9,529.4 392.1,531.6 C389.3,533.8 385.6,534.7 383.7,538.1 C381.8,541.4 381.5,547.0 380.6,551.7 C379.6,556.3 378.4,563.6 378.0,566.0 Z" fill="#A76432" fill-opacity="1.0" stroke="none"/>
<path d="M262.0,700.0 C263.3,698.4 267.8,693.7 270.0,690.4 C272.2,687.0 273.6,683.5 275.1,679.9 C276.6,676.4 277.6,672.7 279.0,669.2 C280.3,665.6 281.7,662.0 283.2,658.5 C284.7,655.0 286.4,651.5 287.9,648.0 C289.5,644.5 291.1,641.0 292.5,637.5 C294.0,634.0 295.3,630.5 296.7,627.0 C298.0,623.5 299.3,619.9 300.7,616.4 C302.1,612.9 303.5,609.5 305.0,606.0 C306.4,602.6 307.9,599.1 309.3,595.7 C310.7,592.3 312.1,588.9 313.5,585.4 C314.9,582.0 316.3,578.6 317.7,575.2 C319.0,571.8 320.3,568.4 321.6,565.0 C322.9,561.6 324.2,558.2 325.4,554.8 C326.6,551.4 327.8,548.1 328.9,544.7 C330.0,541.3 331.0,537.8 332.0,534.4 C333.1,531.0 334.0,527.6 335.0,524.2 C335.9,520.8 336.9,517.4 337.8,514.0 C338.8,510.6 339.7,507.2 340.7,503.8 C341.6,500.5 342.6,497.1 343.5,493.7 C344.4,490.4 345.2,487.0 346.1,483.6 C347.0,480.3 348.1,477.0 349.1,473.7 C350.0,470.4 351.0,467.1 352.0,463.9 C353.0,460.6 354.0,457.4 355.1,454.2 C356.2,451.0 357.4,447.8 358.6,444.7 C359.7,441.5 360.9,438.4 362.2,435.3 C363.4,432.2 364.6,429.1 365.9,426.1 C367.2,423.1 369.4,418.6 370.1,417.1 L364.7,425.4 C363.8,426.8 361.0,430.9 359.0,433.6 C357.1,436.3 355.0,439.0 353.0,441.7 C350.9,444.4 348.8,447.2 346.8,449.9 C344.7,452.7 342.6,455.4 340.6,458.3 C338.7,461.2 336.8,464.2 335.1,467.2 C333.3,470.2 331.7,473.3 330.0,476.3 C328.3,479.4 326.4,482.4 324.7,485.6 C323.0,488.7 321.4,491.8 319.8,495.1 C318.3,498.3 316.9,501.5 315.4,504.8 C313.9,508.1 312.3,511.4 310.9,514.7 C309.4,518.0 307.9,521.3 306.5,524.7 C305.1,528.0 303.8,531.5 302.5,534.9 C301.1,538.3 299.7,541.7 298.3,545.1 C297.0,548.5 295.6,552.0 294.2,555.4 C292.8,558.8 291.3,562.2 289.9,565.7 C288.6,569.2 287.5,572.8 286.2,576.3 C284.9,579.8 283.6,583.3 282.1,586.8 C280.6,590.3 278.7,593.6 277.1,597.1 C275.5,600.5 274.0,604.0 272.5,607.6 C271.1,611.1 269.6,614.6 268.2,618.1 C266.8,621.7 265.4,625.3 264.3,628.9 C263.2,632.6 262.4,636.3 261.4,640.0 C260.5,643.7 259.7,647.5 258.8,651.2 C257.9,654.9 257.0,658.6 256.0,662.3 C255.1,666.0 253.5,669.6 253.1,673.4 C252.7,677.3 252.0,681.1 253.5,685.5 C254.9,689.9 260.6,697.6 262.0,700.0 Z" fill="#8F5931" fill-opacity="1.0" stroke="none"/>
<path d="M206.0,812.0 C208.5,813.5 217.1,820.4 220.9,821.2 C224.7,822.1 226.2,818.4 228.8,817.0 C231.5,815.7 234.3,814.4 237.0,813.2 C239.7,811.9 242.5,810.7 245.2,809.5 C247.9,808.2 250.7,807.1 253.3,805.7 C255.9,804.2 258.3,802.4 260.8,800.7 C263.4,799.1 265.9,797.4 268.4,795.8 C270.9,794.3 273.5,792.7 276.1,791.3 C278.7,789.8 281.4,788.6 284.1,787.3 C286.7,786.0 289.4,784.7 292.1,783.5 C294.8,782.2 297.5,781.1 300.2,779.7 C302.8,778.3 305.3,776.8 307.8,775.2 C310.3,773.6 312.8,772.0 315.3,770.3 C317.8,768.7 320.2,767.0 322.7,765.2 C325.1,763.5 327.5,761.7 329.9,759.9 C332.4,758.1 334.8,756.3 337.2,754.6 C339.6,752.8 342.1,751.2 344.5,749.4 C346.9,747.6 349.3,745.6 351.6,743.7 C354.0,741.8 357.5,738.8 358.7,737.8 L350.2,740.5 C348.7,740.8 344.3,741.7 341.3,742.2 C338.3,742.6 335.1,742.8 332.1,743.2 C329.0,743.7 325.9,744.1 323.0,744.8 C320.0,745.4 317.1,746.3 314.3,747.3 C311.4,748.2 308.6,749.3 305.8,750.4 C303.1,751.4 300.3,752.6 297.5,753.7 C294.7,754.8 291.8,755.7 289.0,756.8 C286.2,757.9 283.5,759.2 280.8,760.4 C278.1,761.7 275.4,763.0 272.7,764.4 C270.1,765.8 267.5,767.4 264.9,768.9 C262.4,770.5 259.8,772.1 257.2,773.7 C254.7,775.2 252.0,776.7 249.5,778.3 C246.9,779.9 244.4,781.5 241.9,783.2 C239.3,784.9 236.9,786.7 234.3,788.2 C231.7,789.7 229.0,791.0 226.3,792.5 C223.7,794.0 221.2,795.6 218.7,797.2 C216.1,798.8 213.1,799.6 211.0,802.1 C208.9,804.6 206.8,810.4 206.0,812.0 Z" fill="#7D5030" fill-opacity="1.0" stroke="none"/>
<path d="M378.0,566.0 C378.6,564.2 380.6,559.0 381.3,555.5 C382.0,551.9 382.0,548.4 382.2,544.9 C382.5,541.4 382.6,537.9 382.6,534.4 C382.7,530.9 382.7,527.5 382.5,524.0 C382.4,520.5 382.0,517.0 381.8,513.5 C381.7,510.1 381.6,506.6 381.6,503.1 C381.6,499.7 381.6,496.2 381.6,492.8 C381.6,489.3 381.7,485.9 381.6,482.5 C381.6,479.0 381.5,475.6 381.4,472.2 C381.2,468.8 381.0,465.4 380.8,462.0 C380.7,458.6 380.5,455.2 380.3,451.9 C380.2,448.5 380.2,445.2 380.0,441.8 C379.9,438.5 379.5,433.5 379.4,431.8 L378.2,441.7 C377.8,443.4 376.6,448.4 375.8,451.7 C375.0,455.1 374.1,458.4 373.3,461.8 C372.6,465.2 371.6,468.6 371.1,472.0 C370.7,475.4 370.6,478.9 370.5,482.3 C370.3,485.8 370.1,489.2 370.2,492.7 C370.3,496.1 370.8,499.6 370.9,503.1 C371.1,506.6 371.1,510.0 371.2,513.5 C371.3,517.0 371.4,520.5 371.7,524.0 C372.0,527.5 372.5,531.0 372.9,534.5 C373.3,538.0 373.6,541.5 373.9,545.0 C374.3,548.5 374.5,552.0 375.2,555.5 C375.9,559.0 377.5,564.2 378.0,566.0 Z" fill="#6F4A2F" fill-opacity="1.0" stroke="none"/>
<path d="M309.6,699.7 C309.6,702.5 311.0,711.4 309.4,716.4 C307.9,721.4 304.0,725.9 300.4,729.6 C296.8,733.4 292.1,736.4 287.6,738.8 C283.1,741.2 278.2,743.4 273.4,744.3 C268.7,745.1 263.7,745.1 258.9,744.0 C254.2,742.8 250.2,738.8 245.0,737.4 C239.8,735.9 232.8,737.2 227.7,735.2 C222.6,733.2 217.2,729.7 214.3,725.4 C211.5,721.2 209.8,715.0 210.5,709.6 C211.2,704.3 216.6,698.7 218.5,693.4 C220.4,688.1 220.1,682.5 221.8,677.6 C223.4,672.7 224.8,667.1 228.6,664.0 C232.4,660.9 239.7,662.2 244.6,659.1 C249.5,655.9 253.2,646.9 258.2,645.2 C263.2,643.5 269.4,646.5 274.5,648.7 C279.6,651.0 284.2,655.3 289.0,658.6 C293.9,661.8 299.4,664.4 303.7,668.2 C307.9,672.0 313.7,676.2 314.7,681.4 C315.7,686.7 310.5,693.9 309.6,699.7 C308.7,705.5 311.0,711.4 309.4,716.4 C307.9,721.4 301.9,727.4 300.4,729.6 Z M320.3,680.5 C318.1,677.7 312.1,668.5 307.4,664.1 C302.7,659.7 297.2,657.5 292.1,654.0 C287.0,650.6 282.8,645.8 276.8,643.3 C270.9,640.8 262.2,637.2 256.2,638.9 C250.2,640.5 246.3,649.9 240.9,653.2 C235.6,656.5 228.4,654.9 224.1,658.6 C219.8,662.2 217.2,669.8 215.1,675.2 C213.1,680.6 213.7,685.4 211.7,691.0 C209.7,696.6 203.7,702.3 203.0,708.8 C202.4,715.2 204.2,724.1 207.8,729.7 C211.3,735.4 218.7,740.1 224.5,742.8 C230.3,745.4 237.2,744.0 242.6,745.6 C248.0,747.2 251.7,751.2 257.1,752.3 C262.5,753.4 269.3,753.4 275.0,752.2 C280.7,751.0 286.3,748.2 291.3,745.1 C296.3,742.1 301.2,738.3 305.0,733.7 C308.7,729.1 312.4,723.2 313.8,717.6 C315.2,712.1 312.3,706.5 313.3,700.3 C314.4,694.1 321.3,686.5 320.3,680.5 C319.3,674.4 312.1,668.5 307.4,664.1 C302.7,659.7 294.6,655.7 292.1,654.0 Z" fill="#000" fill-rule="evenodd" stroke="none"/>
<path d="M401.6,566.1 C402.1,567.7 405.0,572.7 404.8,575.5 C404.7,578.3 402.7,581.3 400.4,583.1 C398.1,584.9 393.7,584.4 391.1,586.1 C388.5,587.8 387.2,592.4 384.8,593.4 C382.3,594.4 378.9,593.1 376.2,592.1 C373.5,591.0 371.5,587.8 368.5,587.1 C365.4,586.4 359.6,589.4 357.6,587.9 C355.7,586.4 357.4,580.9 356.6,578.0 C355.8,575.0 353.2,573.0 352.8,570.3 C352.4,567.6 354.2,564.9 354.2,561.9 C354.2,558.9 352.0,555.0 353.0,552.3 C353.9,549.7 357.7,548.5 359.8,546.1 C362.0,543.8 363.5,539.8 366.0,538.2 C368.6,536.6 372.2,535.9 375.2,536.5 C378.2,537.2 380.9,541.5 384.0,542.4 C387.1,543.3 391.8,540.4 394.0,541.7 C396.2,543.0 396.2,547.6 397.5,550.2 C398.7,552.9 400.9,554.9 401.6,557.6 C402.3,560.2 401.0,563.1 401.6,566.1 C402.1,569.1 405.0,572.7 404.8,575.5 C404.7,578.3 401.2,581.8 400.4,583.1 Z M405.5,556.9 C404.9,555.4 403.1,551.4 401.6,548.3 C400.0,545.1 399.1,539.4 396.3,537.7 C393.6,536.1 388.4,539.2 384.9,538.5 C381.5,537.8 379.1,533.9 375.7,533.5 C372.3,533.2 367.6,534.3 364.7,536.2 C361.9,538.1 360.7,542.4 358.5,544.9 C356.3,547.5 352.6,549.0 351.5,551.8 C350.5,554.6 352.6,558.7 352.4,561.8 C352.2,565.0 350.1,567.7 350.3,570.5 C350.5,573.4 352.7,575.5 353.6,578.8 C354.5,582.1 353.4,588.5 355.7,590.4 C358.1,592.2 364.6,589.2 367.8,589.9 C371.1,590.6 372.3,593.7 375.3,594.7 C378.2,595.7 382.9,597.1 385.8,596.1 C388.7,595.0 390.0,590.3 392.7,588.5 C395.4,586.7 399.7,587.2 402.1,585.1 C404.5,582.9 406.8,578.9 407.0,575.7 C407.2,572.5 403.7,569.0 403.5,565.9 C403.2,562.7 405.9,559.8 405.5,556.9 C405.2,553.9 403.1,551.4 401.6,548.3 C400.0,545.1 397.2,539.5 396.3,537.7 Z" fill="#000" fill-rule="evenodd" stroke="none"/>
<path d="M221.2,811.8 C221.3,812.8 221.8,816.0 221.8,818.1 C221.8,820.1 221.9,822.4 221.1,824.2 C220.3,826.1 218.7,827.7 217.0,829.0 C215.3,830.3 213.1,831.4 211.0,832.1 C208.9,832.8 206.5,833.9 204.6,833.2 C202.6,832.5 201.2,829.2 199.4,827.8 C197.7,826.4 195.7,825.9 194.1,824.7 C192.4,823.5 190.6,822.3 189.5,820.7 C188.3,819.2 187.1,817.3 187.1,815.4 C187.1,813.4 189.2,811.3 189.5,809.2 C189.8,807.1 188.0,804.3 188.8,802.7 C189.6,801.0 192.7,800.8 194.3,799.4 C195.9,797.9 196.7,795.2 198.4,794.1 C200.0,793.0 202.2,792.7 204.2,792.9 C206.2,793.0 208.2,794.3 210.2,795.0 C212.2,795.7 214.2,796.1 216.1,796.9 C218.0,797.8 220.1,798.7 221.3,800.2 C222.5,801.6 223.4,803.6 223.3,805.5 C223.3,807.5 221.4,809.7 221.2,811.8 C220.9,813.9 221.8,816.0 221.8,818.1 C221.8,820.1 221.3,823.2 221.1,824.2 Z M227.0,805.3 C226.5,804.1 225.4,799.9 223.8,798.1 C222.1,796.2 219.4,795.2 217.3,794.2 C215.2,793.3 213.3,792.9 211.1,792.2 C209.0,791.4 206.8,789.9 204.4,789.8 C202.0,789.7 198.8,790.3 196.8,791.5 C194.8,792.7 194.0,795.3 192.2,796.9 C190.4,798.5 186.8,799.1 185.8,801.1 C184.8,803.1 186.5,806.4 186.2,808.7 C185.9,811.1 183.8,813.2 183.9,815.5 C184.1,817.8 185.7,820.6 187.1,822.5 C188.5,824.4 190.7,825.7 192.5,826.9 C194.3,828.1 196.0,828.4 197.8,829.8 C199.7,831.3 201.4,834.8 203.7,835.6 C206.0,836.4 209.3,835.4 211.8,834.7 C214.3,834.0 216.7,832.9 218.8,831.5 C220.9,830.0 223.1,828.0 224.4,825.8 C225.6,823.6 225.9,820.5 226.1,818.3 C226.3,816.0 225.6,814.4 225.7,812.2 C225.9,810.1 227.4,807.6 227.0,805.3 C226.7,802.9 225.4,799.9 223.8,798.1 C222.1,796.2 218.4,794.9 217.3,794.2 Z" fill="#000" fill-rule="evenodd" stroke="none"/>
<path d="M294.1,584.4 L465.3,-32.3" stroke="#0F0F0F" stroke-width="1.3"/><path d="M308.7,589.5 L558.0,0.0" stroke="#0F0F0F" stroke-width="1.3"/><path d="M322.6,596.4 L645.7,44.0" stroke="#0F0F0F" stroke-width="1.3"/><path d="M335.4,605.1 L727.1,98.9" stroke="#0F0F0F" stroke-width="1.3"/><path d="M347.0,615.3 L800.6,163.8" stroke="#0F0F0F" stroke-width="1.3"/><path d="M357.3,627.0 L865.3,237.7" stroke="#0F0F0F" stroke-width="1.3"/><path d="M365.9,639.9 L919.8,319.3" stroke="#0F0F0F" stroke-width="1.3"/><path d="M372.7,653.8 L963.4,407.3" stroke="#0F0F0F" stroke-width="1.3"/><path d="M377.8,668.4 L995.2,500.1" stroke="#0F0F0F" stroke-width="1.3"/><path d="M380.9,683.6 L1014.9,596.3" stroke="#0F0F0F" stroke-width="1.3"/><path d="M382.0,699.1 L1022.0,694.2" stroke="#0F0F0F" stroke-width="1.3"/><path d="M381.1,714.5 L1016.4,792.1" stroke="#0F0F0F" stroke-width="1.3"/><path d="M378.2,729.8 L998.2,888.6" stroke="#0F0F0F" stroke-width="1.3"/><path d="M373.4,744.5 L967.8,981.9" stroke="#0F0F0F" stroke-width="1.3"/><path d="M287.5,552.2 L291.0,552.8 L294.6,553.6 L298.1,554.4 L301.5,555.3 L305.0,556.3 L308.4,557.4 L311.9,558.5 L315.2,559.8 L318.6,561.1 L321.9,562.5 L325.2,564.0 L328.4,565.5 L331.6,567.1 L334.8,568.9 L337.9,570.6 L341.0,572.5 L344.1,574.4 L347.0,576.4 L350.0,578.5 L352.9,580.7 L355.7,582.9 L358.5,585.2 L361.2,587.5 L363.9,589.9 L366.5,592.4 L369.1,594.9 L371.5,597.5 L374.0,600.2 L376.3,602.9 L378.6,605.7 L380.9,608.5 L383.0,611.4 L385.1,614.3 L387.1,617.3 L389.1,620.3 L391.0,623.4 L392.8,626.5 L394.5,629.7 L396.1,632.9 L397.7,636.1 L399.2,639.4 L400.6,642.7 L402.0,646.0 L403.2,649.4 L404.4,652.8 L405.5,656.2 L406.5,659.7 L407.4,663.2 L408.3,666.7 L409.0,670.2 L409.7,673.7 L410.3,677.3 L410.8,680.9 L411.2,684.4 L411.5,688.0 L411.8,691.6 L411.9,695.2 L412.0,698.8 L412.0,702.4 L411.9,706.0 L411.7,709.6 L411.4,713.2 L411.1,716.8 L410.6,720.3 L410.1,723.9 L409.5,727.4 L408.8,731.0 L408.0,734.5 L407.1,738.0 L406.2,741.5 L405.1,744.9 L404.0,748.3 L402.8,751.7 L401.5,755.1 L400.2,758.4 L398.7,761.7 L397.2,765.0 L395.6,768.2 L393.9,771.4 L392.2,774.5 L390.3,777.6 L388.4,780.7 L386.5,783.7 L384.4,786.7 L382.3,789.6 L380.1,792.4 L377.9,795.2 L375.6,798.0 L373.2,800.7 L370.7,803.3" fill="none" stroke="#050505" stroke-width="1.7"/>
<path d="M368.4,335.3 L372.5,337.0 L376.6,338.6 L380.7,340.3 L384.8,342.0 L388.8,343.8 L392.9,345.6 L396.9,347.4 L400.9,349.3 L404.9,351.2 L408.9,353.1 L412.9,355.0 L416.8,357.0 L420.7,359.1 L424.6,361.1 L428.5,363.2 L432.4,365.4 L436.3,367.5 L440.1,369.7 L443.9,371.9 L447.7,374.2 L451.5,376.5 L455.2,378.8 L459.0,381.2 L462.7,383.6 L466.4,386.0 L470.1,388.4 L473.7,390.9 L477.4,393.4 L481.0,396.0 L484.6,398.5 L488.2,401.1 L491.7,403.8 L495.2,406.4 L498.7,409.1 L502.2,411.9 L505.7,414.6 L509.1,417.4 L512.5,420.2 L515.9,423.1 L519.3,425.9 L522.6,428.8 L525.9,431.7 L529.2,434.7 L532.5,437.7 L535.7,440.7 L538.9,443.7 L542.1,446.8 L545.3,449.9 L548.4,453.0 L551.5,456.1 L554.6,459.3 L557.6,462.5 L560.7,465.7 L563.7,469.0 L566.6,472.3 L569.6,475.6 L572.5,478.9 L575.4,482.2 L578.2,485.6 L581.0,489.0 L583.8,492.4 L586.6,495.9 L589.4,499.3 L592.1,502.8 L594.7,506.3 L597.4,509.9 L600.0,513.4 L602.6,517.0 L605.2,520.6 L607.7,524.2 L610.2,527.9 L612.7,531.6 L615.1,535.2 L617.5,539.0 L619.9,542.7 L622.2,546.4 L624.5,550.2 L626.8,554.0 L629.1,557.8 L631.3,561.6 L633.4,565.5 L635.6,569.3 L637.7,573.2 L639.8,577.1 L641.8,581.0 L643.9,585.0 L645.8,588.9 L647.8,592.9 L649.7,596.9 L651.6,600.9 L653.4,604.9 L655.2,608.9 L657.0,613.0 L658.7,617.0 L660.5,621.1 L662.1,625.2 L663.8,629.3 L665.4,633.4 L666.9,637.5 L668.5,641.7 L670.0,645.9 L671.4,650.0 L672.9,654.2 L674.3,658.4 L675.6,662.6 L676.9,666.8 L678.2,671.1 L679.5,675.3 L680.7,679.5 L681.8,683.8 L683.0,688.1 L684.1,692.4 L685.2,696.6 L686.2,700.9 L687.2,705.3 L688.1,709.6 L689.1,713.9 L689.9,718.2 L690.8,722.6 L691.6,726.9 L692.4,731.3 L693.1,735.6 L693.8,740.0 L694.5,744.3 L695.1,748.7 L695.7,753.1 L696.2,757.5 L696.7,761.9 L697.2,766.3 L697.7,770.7 L698.1,775.1 L698.4,779.5 L698.7,783.9 L699.0,788.3 L699.3,792.7 L699.5,797.1 L699.7,801.5 L699.8,806.0 L699.9,810.4 L700.0,814.8 L700.0,819.2 L700.0,823.6 L699.9,828.1 L699.9,832.5 L699.7,836.9 L699.6,841.3 L699.4,845.7 L699.1,850.1 L698.9,854.6 L698.5,859.0 L698.2,863.4 L697.8,867.8 L697.4,872.2 L696.9,876.6 L696.4,881.0 L695.9,885.3 L695.3,889.7 L694.7,894.1 L694.0,898.5 L693.4,902.8 L692.6,907.2 L691.9,911.6 L691.1,915.9 L690.2,920.2 L689.4,924.6 L688.5,928.9 L687.5,933.2 L686.5,937.5 L685.5,941.8 L684.5,946.1 L683.4,950.4 L682.3,954.7 L681.1,959.0 L679.9,963.2 L678.7,967.4 L677.4,971.7 L676.1,975.9 L674.7,980.1 L673.4,984.3 L671.9,988.5 L670.5,992.7 L669.0,996.8 L667.5,1001.0 L665.9,1005.1 L664.3,1009.3 L662.7,1013.4 L661.1,1017.5 L659.4,1021.5 L657.6,1025.6 L655.9,1029.7 L654.1,1033.7 L652.2,1037.7 L650.4,1041.7 L648.5,1045.7 L646.5,1049.7 L644.6,1053.6 L642.6,1057.6 L640.5,1061.5 L638.4,1065.4 L636.3,1069.3" fill="none" stroke="#0F0F0F" stroke-width="1.7"/>
<path d="M362.6,350.4 L374.3,320.2" stroke="#111111" stroke-width="1.3"/><path d="M417.8,367.7 L426.2,351.8" stroke="#111111" stroke-width="1.3"/><path d="M467.5,397.5 L477.6,382.6" stroke="#111111" stroke-width="1.3"/><path d="M513.4,432.7 L525.1,419.1" stroke="#111111" stroke-width="1.3"/><path d="M555.1,472.9 L568.3,460.7" stroke="#111111" stroke-width="1.3"/><path d="M586.1,521.8 L612.2,502.7" stroke="#111111" stroke-width="1.3"/><path d="M623.5,566.1 L639.1,557.2" stroke="#111111" stroke-width="1.3"/><path d="M649.3,617.9 L665.9,610.8" stroke="#111111" stroke-width="1.3"/><path d="M669.2,672.2 L686.4,667.0" stroke="#111111" stroke-width="1.3"/><path d="M682.7,728.5 L700.5,725.3" stroke="#111111" stroke-width="1.3"/><path d="M682.7,786.4 L715.0,784.3" stroke="#111111" stroke-width="1.3"/><path d="M690.4,843.8 L708.4,844.7" stroke="#111111" stroke-width="1.3"/><path d="M684.5,901.4 L702.2,904.3" stroke="#111111" stroke-width="1.3"/><path d="M672.0,957.9 L689.4,962.8" stroke="#111111" stroke-width="1.3"/><path d="M653.3,1012.7 L669.9,1019.5" stroke="#111111" stroke-width="1.3"/><path d="M622.1,1061.5 L650.6,1077.1" stroke="#111111" stroke-width="1.3"/>
</svg>