<svg xmlns="http://www.w3.org/2000/svg" viewBox="95 100 810 810" width="1000" height="1000" role="img" aria-label="Dois conjuntos que se cruzam em diagonal com massas muito diferentes"><rect x="-200" y="-200" width="1400" height="1400" fill="#FFF"/>
<path d="M-140.0,120.0 C-137.5,121.2 -130.0,124.8 -125.1,127.2 C-120.1,129.7 -115.1,132.1 -110.1,134.5 C-105.2,136.9 -100.2,139.3 -95.2,141.7 C-90.2,144.2 -85.2,146.6 -80.3,149.0 C-75.3,151.4 -70.3,153.8 -65.3,156.2 C-60.4,158.7 -55.4,161.1 -50.4,163.5 C-45.4,165.9 -40.5,168.4 -35.5,170.8 C-30.5,173.2 -25.6,175.6 -20.6,178.1 C-15.6,180.5 -10.7,182.9 -5.7,185.4 C-0.7,187.8 4.2,190.2 9.2,192.7 C14.2,195.1 19.1,197.6 24.1,200.0 C29.1,202.4 34.0,204.9 39.0,207.3 C43.9,209.8 48.9,212.2 53.8,214.7 C58.8,217.2 63.7,219.6 68.7,222.1 C73.6,224.5 78.6,227.0 83.5,229.5 C88.5,231.9 93.4,234.4 98.4,236.9 C103.3,239.4 108.3,241.8 113.2,244.3 C118.1,246.8 123.1,249.3 128.0,251.8 C132.9,254.3 137.9,256.8 142.8,259.3 C147.7,261.8 152.6,264.3 157.6,266.8 C162.5,269.3 167.4,271.8 172.3,274.3 C177.2,276.8 182.2,279.4 187.1,281.9 C192.0,284.4 196.9,286.9 201.8,289.5 C206.7,292.0 211.6,294.6 216.5,297.1 C221.4,299.7 226.3,302.2 231.2,304.8 C236.1,307.3 241.0,309.9 245.9,312.5 C250.8,315.0 255.6,317.6 260.5,320.2 C265.4,322.8 270.3,325.3 275.2,327.9 C280.0,330.5 284.9,333.1 289.8,335.7 C294.6,338.3 299.5,340.9 304.4,343.5 C309.2,346.2 314.1,348.8 318.9,351.4 C323.8,354.0 328.6,356.7 333.5,359.3 C338.3,361.9 343.2,364.6 348.0,367.2 C352.8,369.9 357.7,372.6 362.5,375.2 C367.3,377.9 372.1,380.6 377.0,383.2 C381.8,385.9 386.6,388.6 391.4,391.3 C396.2,394.0 401.0,396.7 405.9,399.4 C410.7,402.1 415.5,404.8 420.3,407.5 C425.1,410.2 429.9,413.0 434.6,415.7 C439.4,418.4 444.2,421.2 449.0,423.9 C453.8,426.7 458.6,429.4 463.3,432.2 C468.1,434.9 472.9,437.7 477.6,440.5 C482.4,443.2 487.2,446.0 491.9,448.8 C496.7,451.6 501.4,454.4 506.2,457.2 C510.9,460.0 515.7,462.8 520.4,465.6 C525.2,468.4 529.9,471.2 534.6,474.1 C539.4,476.9 544.1,479.7 548.8,482.6 C553.5,485.4 558.3,488.3 563.0,491.1 C567.7,494.0 572.4,496.8 577.1,499.7 C581.8,502.6 586.5,505.5 591.2,508.4 C595.9,511.2 600.6,514.1 605.3,517.0 C610.0,519.9 614.7,522.8 619.4,525.7 C624.1,528.7 628.7,531.6 633.4,534.5 C638.1,537.4 642.8,540.4 647.4,543.3 C652.1,546.2 656.8,549.2 661.4,552.1 C666.1,555.1 670.7,558.0 675.4,561.0 C680.0,564.0 684.7,566.9 689.3,569.9 C694.0,572.9 698.6,575.9 703.2,578.9 C707.9,581.9 712.5,584.9 717.1,587.9 C721.8,590.9 726.4,593.9 731.0,596.9 C735.6,599.9 740.3,602.9 744.9,605.9 C749.5,609.0 754.1,612.0 758.7,615.0 C763.3,618.1 767.9,621.1 772.5,624.2 C777.1,627.2 781.7,630.3 786.3,633.3 C790.9,636.4 795.5,639.5 800.1,642.5 C804.7,645.6 809.3,648.7 813.8,651.8 C818.4,654.9 823.0,657.9 827.6,661.0 C832.2,664.1 836.7,667.2 841.3,670.3 C845.9,673.4 850.4,676.5 855.0,679.7 C859.6,682.8 864.1,685.9 868.7,689.0 C873.2,692.1 877.8,695.3 882.4,698.4 C886.9,701.5 891.5,704.6 896.0,707.8 C900.6,710.9 905.1,714.1 909.6,717.2 C914.2,720.4 918.7,723.5 923.3,726.7 C927.8,729.8 932.3,733.0 936.9,736.1 C941.4,739.3 945.9,742.5 950.5,745.6 C955.0,748.8 959.5,752.0 964.1,755.1 C968.6,758.3 973.1,761.5 977.6,764.7 C982.2,767.9 986.7,771.0 991.2,774.2 C995.7,777.4 1000.2,780.6 1004.8,783.8 C1009.3,787.0 1013.8,790.2 1018.3,793.4 C1022.8,796.6 1027.3,799.8 1031.9,803.0 C1036.4,806.2 1040.9,809.4 1045.4,812.6 C1049.9,815.8 1054.4,819.0 1058.9,822.2 C1063.4,825.4 1067.9,828.6 1072.4,831.8 C1076.9,835.0 1081.4,838.2 1086.0,841.4 C1090.5,844.6 1095.0,847.9 1099.5,851.1 C1104.0,854.3 1108.5,857.5 1113.0,860.7 C1117.5,863.9 1122.0,867.1 1126.5,870.4 C1131.0,873.6 1137.7,878.4 1140.0,880.0" fill="none" stroke="#FFF" stroke-width="32" stroke-linecap="round"/>
<path d="M-140.0,210.0 C-137.5,210.9 -130.1,213.5 -125.2,215.3 C-120.3,217.1 -115.3,218.8 -110.4,220.6 C-105.5,222.3 -100.5,224.1 -95.6,225.9 C-90.6,227.6 -85.7,229.4 -80.8,231.2 C-75.8,232.9 -70.9,234.7 -66.0,236.5 C-61.0,238.2 -56.1,240.0 -51.2,241.8 C-46.3,243.6 -41.3,245.3 -36.4,247.1 C-31.5,248.9 -26.5,250.7 -21.6,252.4 C-16.7,254.2 -11.8,256.0 -6.8,257.8 C-1.9,259.6 3.0,261.3 7.9,263.1 C12.9,264.9 17.8,266.7 22.7,268.5 C27.6,270.3 32.6,272.1 37.5,273.9 C42.4,275.7 47.3,277.5 52.2,279.3 C57.1,281.1 62.1,282.9 67.0,284.7 C71.9,286.5 76.8,288.4 81.7,290.2 C86.6,292.0 91.5,293.8 96.4,295.6 C101.3,297.5 106.2,299.3 111.1,301.1 C116.0,303.0 120.9,304.8 125.8,306.6 C130.7,308.5 135.6,310.3 140.5,312.2 C145.4,314.0 150.3,315.9 155.2,317.8 C160.1,319.6 165.0,321.5 169.9,323.4 C174.8,325.2 179.6,327.1 184.5,329.0 C189.4,330.9 194.3,332.8 199.2,334.6 C204.0,336.5 208.9,338.4 213.8,340.3 C218.6,342.2 223.5,344.1 228.4,346.1 C233.2,348.0 238.1,349.9 243.0,351.8 C247.8,353.7 252.7,355.7 257.5,357.6 C262.4,359.5 267.3,361.5 272.1,363.4 C277.0,365.4 281.8,367.3 286.6,369.3 C291.5,371.3 296.3,373.2 301.2,375.2 C306.0,377.2 310.8,379.2 315.7,381.1 C320.5,383.1 325.3,385.1 330.2,387.1 C335.0,389.1 339.8,391.1 344.6,393.1 C349.5,395.2 354.3,397.2 359.1,399.2 C363.9,401.2 368.7,403.3 373.5,405.3 C378.3,407.3 383.1,409.4 387.9,411.5 C392.7,413.5 397.5,415.6 402.3,417.6 C407.1,419.7 411.9,421.8 416.7,423.9 C421.5,425.9 426.3,428.0 431.0,430.1 C435.8,432.2 440.6,434.3 445.4,436.4 C450.2,438.6 454.9,440.7 459.7,442.8 C464.5,444.9 469.2,447.1 474.0,449.2 C478.7,451.3 483.5,453.5 488.3,455.7 C493.0,457.8 497.8,460.0 502.5,462.1 C507.3,464.3 512.0,466.5 516.7,468.7 C521.5,470.9 526.2,473.1 531.0,475.3 C535.7,477.5 540.4,479.7 545.1,481.9 C549.9,484.1 554.6,486.3 559.3,488.5 C564.0,490.8 568.8,493.0 573.5,495.2 C578.2,497.5 582.9,499.7 587.6,502.0 C592.3,504.3 597.0,506.5 601.7,508.8 C606.4,511.1 611.1,513.4 615.8,515.6 C620.5,517.9 625.2,520.2 629.9,522.5 C634.6,524.8 639.2,527.1 643.9,529.5 C648.6,531.8 653.3,534.1 658.0,536.4 C662.6,538.7 667.3,541.1 672.0,543.4 C676.6,545.8 681.3,548.1 686.0,550.5 C690.6,552.8 695.3,555.2 699.9,557.6 C704.6,559.9 709.2,562.3 713.9,564.7 C718.5,567.1 723.2,569.5 727.8,571.9 C732.5,574.3 737.1,576.7 741.8,579.1 C746.4,581.5 751.0,583.9 755.7,586.3 C760.3,588.7 764.9,591.2 769.5,593.6 C774.2,596.0 778.8,598.5 783.4,600.9 C788.0,603.4 792.7,605.8 797.3,608.3 C801.9,610.7 806.5,613.2 811.1,615.7 C815.7,618.1 820.3,620.6 824.9,623.1 C829.5,625.6 834.1,628.1 838.7,630.5 C843.3,633.0 847.9,635.5 852.5,638.0 C857.1,640.5 861.7,643.0 866.3,645.5 C870.9,648.0 875.5,650.6 880.1,653.1 C884.7,655.6 889.3,658.1 893.8,660.6 C898.4,663.2 903.0,665.7 907.6,668.2 C912.2,670.8 916.7,673.3 921.3,675.9 C925.9,678.4 930.5,681.0 935.0,683.5 C939.6,686.1 944.2,688.6 948.7,691.2 C953.3,693.7 957.9,696.3 962.5,698.9 C967.0,701.4 971.6,704.0 976.1,706.6 C980.7,709.1 985.3,711.7 989.8,714.3 C994.4,716.9 998.9,719.4 1003.5,722.0 C1008.1,724.6 1012.6,727.2 1017.2,729.8 C1021.7,732.4 1026.3,735.0 1030.8,737.5 C1035.4,740.1 1039.9,742.7 1044.5,745.3 C1049.0,747.9 1053.6,750.5 1058.1,753.1 C1062.7,755.7 1067.2,758.3 1071.8,760.9 C1076.3,763.5 1080.9,766.1 1085.4,768.7 C1090.0,771.3 1094.5,773.9 1099.1,776.5 C1103.6,779.1 1108.2,781.7 1112.7,784.4 C1117.3,787.0 1121.8,789.6 1126.4,792.2 C1130.9,794.8 1137.7,798.7 1140.0,800.0" fill="none" stroke="#FFF" stroke-width="32" stroke-linecap="round"/>
<path d="M-140.0,300.0 C-137.6,300.6 -130.2,302.2 -125.3,303.3 C-120.5,304.5 -115.6,305.6 -110.7,306.7 C-105.8,307.8 -100.9,308.9 -96.0,310.0 C-91.1,311.1 -86.3,312.3 -81.4,313.4 C-76.5,314.5 -71.6,315.6 -66.7,316.7 C-61.8,317.9 -57.0,319.0 -52.1,320.1 C-47.2,321.2 -42.3,322.3 -37.4,323.5 C-32.5,324.6 -27.7,325.7 -22.8,326.9 C-17.9,328.0 -13.0,329.1 -8.1,330.3 C-3.3,331.4 1.6,332.5 6.5,333.7 C11.4,334.8 16.2,336.0 21.1,337.1 C26.0,338.2 30.9,339.4 35.7,340.5 C40.6,341.7 45.5,342.8 50.4,344.0 C55.2,345.2 60.1,346.3 65.0,347.5 C69.8,348.7 74.7,349.8 79.6,351.0 C84.4,352.2 89.3,353.3 94.2,354.5 C99.0,355.7 103.9,356.9 108.8,358.1 C113.6,359.3 118.5,360.5 123.3,361.7 C128.2,362.9 133.0,364.1 137.9,365.3 C142.8,366.5 147.6,367.7 152.5,368.9 C157.3,370.1 162.2,371.3 167.0,372.6 C171.9,373.8 176.7,375.0 181.6,376.3 C186.4,377.5 191.2,378.7 196.1,380.0 C200.9,381.2 205.8,382.5 210.6,383.8 C215.4,385.0 220.3,386.3 225.1,387.6 C229.9,388.8 234.8,390.1 239.6,391.4 C244.4,392.7 249.3,394.0 254.1,395.3 C258.9,396.5 263.7,397.8 268.6,399.2 C273.4,400.5 278.2,401.8 283.0,403.1 C287.8,404.4 292.7,405.8 297.5,407.1 C302.3,408.4 307.1,409.8 311.9,411.1 C316.7,412.5 321.5,413.8 326.3,415.2 C331.1,416.5 335.9,417.9 340.7,419.3 C345.5,420.7 350.3,422.0 355.1,423.4 C359.9,424.8 364.7,426.2 369.5,427.6 C374.3,429.0 379.1,430.4 383.9,431.9 C388.6,433.3 393.4,434.7 398.2,436.1 C403.0,437.6 407.8,439.0 412.5,440.5 C417.3,441.9 422.1,443.4 426.9,444.8 C431.6,446.3 436.4,447.8 441.2,449.2 C445.9,450.7 450.7,452.2 455.5,453.7 C460.2,455.2 465.0,456.7 469.7,458.2 C474.5,459.7 479.2,461.2 484.0,462.8 C488.7,464.3 493.5,465.8 498.2,467.4 C503.0,468.9 507.7,470.4 512.5,472.0 C517.2,473.5 521.9,475.1 526.7,476.7 C531.4,478.3 536.2,479.8 540.9,481.4 C545.6,483.0 550.3,484.6 555.1,486.2 C559.8,487.8 564.5,489.4 569.2,491.0 C574.0,492.6 578.7,494.3 583.4,495.9 C588.1,497.5 592.8,499.2 597.5,500.8 C602.2,502.5 607.0,504.1 611.7,505.8 C616.4,507.5 621.1,509.1 625.8,510.8 C630.5,512.5 635.2,514.2 639.9,515.9 C644.6,517.5 649.2,519.2 653.9,521.0 C658.6,522.7 663.3,524.4 668.0,526.1 C672.7,527.8 677.4,529.5 682.1,531.3 C686.7,533.0 691.4,534.8 696.1,536.5 C700.8,538.3 705.4,540.0 710.1,541.8 C714.8,543.5 719.5,545.3 724.1,547.1 C728.8,548.9 733.5,550.6 738.1,552.4 C742.8,554.2 747.5,556.0 752.1,557.8 C756.8,559.6 761.4,561.4 766.1,563.3 C770.7,565.1 775.4,566.9 780.0,568.7 C784.7,570.5 789.4,572.4 794.0,574.2 C798.6,576.1 803.3,577.9 807.9,579.8 C812.6,581.6 817.2,583.5 821.9,585.3 C826.5,587.2 831.1,589.1 835.8,590.9 C840.4,592.8 845.0,594.7 849.7,596.6 C854.3,598.5 858.9,600.3 863.6,602.2 C868.2,604.1 872.8,606.0 877.5,607.9 C882.1,609.8 886.7,611.7 891.3,613.7 C896.0,615.6 900.6,617.5 905.2,619.4 C909.8,621.3 914.4,623.3 919.1,625.2 C923.7,627.1 928.3,629.1 932.9,631.0 C937.5,632.9 942.1,634.9 946.7,636.8 C951.4,638.8 956.0,640.7 960.6,642.7 C965.2,644.6 969.8,646.6 974.4,648.5 C979.0,650.5 983.6,652.5 988.2,654.4 C992.8,656.4 997.4,658.4 1002.0,660.3 C1006.6,662.3 1011.3,664.3 1015.9,666.3 C1020.5,668.2 1025.1,670.2 1029.7,672.2 C1034.3,674.2 1038.9,676.2 1043.5,678.1 C1048.1,680.1 1052.7,682.1 1057.3,684.1 C1061.9,686.1 1066.5,688.1 1071.1,690.1 C1075.7,692.1 1080.2,694.1 1084.8,696.0 C1089.4,698.0 1094.0,700.0 1098.6,702.0 C1103.2,704.0 1107.8,706.0 1112.4,708.0 C1117.0,710.0 1121.6,712.0 1126.2,714.0 C1130.8,716.0 1137.7,719.0 1140.0,720.0" fill="none" stroke="#FFF" stroke-width="32" stroke-linecap="round"/>
<path d="M-140.0,960.0 C-137.5,958.8 -130.0,955.0 -125.1,952.5 C-120.1,950.0 -115.1,947.5 -110.1,945.0 C-105.1,942.6 -100.1,940.1 -95.2,937.6 C-90.2,935.1 -85.2,932.6 -80.2,930.1 C-75.2,927.6 -70.3,925.1 -65.3,922.6 C-60.3,920.1 -55.3,917.6 -50.3,915.1 C-45.4,912.6 -40.4,910.1 -35.4,907.6 C-30.4,905.1 -25.5,902.6 -20.5,900.1 C-15.5,897.6 -10.5,895.1 -5.6,892.6 C-0.6,890.0 4.4,887.5 9.3,885.0 C14.3,882.5 19.3,880.0 24.2,877.5 C29.2,874.9 34.2,872.4 39.1,869.9 C44.1,867.4 49.1,864.8 54.0,862.3 C59.0,859.8 63.9,857.2 68.9,854.7 C73.8,852.2 78.8,849.6 83.7,847.1 C88.7,844.5 93.6,842.0 98.6,839.4 C103.5,836.9 108.5,834.3 113.4,831.8 C118.4,829.2 123.3,826.6 128.2,824.1 C133.2,821.5 138.1,818.9 143.0,816.4 C148.0,813.8 152.9,811.2 157.8,808.6 C162.8,806.0 167.7,803.4 172.6,800.9 C177.5,798.3 182.4,795.7 187.3,793.1 C192.3,790.5 197.2,787.9 202.1,785.2 C207.0,782.6 211.9,780.0 216.8,777.4 C221.7,774.8 226.6,772.1 231.5,769.5 C236.4,766.9 241.3,764.2 246.2,761.6 C251.1,758.9 256.0,756.3 260.8,753.6 C265.7,751.0 270.6,748.3 275.5,745.7 C280.4,743.0 285.2,740.3 290.1,737.6 C295.0,735.0 299.8,732.3 304.7,729.6 C309.6,726.9 314.4,724.2 319.3,721.5 C324.1,718.8 329.0,716.1 333.8,713.4 C338.7,710.7 343.5,707.9 348.3,705.2 C353.2,702.5 358.0,699.7 362.9,697.0 C367.7,694.3 372.5,691.5 377.3,688.8 C382.2,686.0 387.0,683.3 391.8,680.5 C396.6,677.7 401.4,674.9 406.2,672.2 C411.0,669.4 415.8,666.6 420.6,663.8 C425.4,661.0 430.2,658.2 435.0,655.4 C439.8,652.6 444.6,649.8 449.4,647.0 C454.2,644.2 458.9,641.3 463.7,638.5 C468.5,635.7 473.3,632.8 478.0,630.0 C482.8,627.1 487.6,624.3 492.3,621.4 C497.1,618.5 501.8,615.7 506.6,612.8 C511.3,609.9 516.1,607.0 520.8,604.2 C525.6,601.3 530.3,598.4 535.0,595.5 C539.8,592.6 544.5,589.7 549.2,586.7 C553.9,583.8 558.7,580.9 563.4,578.0 C568.1,575.0 572.8,572.1 577.5,569.2 C582.2,566.2 586.9,563.3 591.6,560.3 C596.3,557.3 601.0,554.4 605.7,551.4 C610.4,548.4 615.1,545.5 619.8,542.5 C624.4,539.5 629.1,536.5 633.8,533.5 C638.5,530.5 643.1,527.5 647.8,524.5 C652.5,521.5 657.1,518.5 661.8,515.4 C666.4,512.4 671.1,509.4 675.7,506.3 C680.4,503.3 685.0,500.3 689.7,497.2 C694.3,494.2 699.0,491.1 703.6,488.0 C708.2,485.0 712.9,481.9 717.5,478.8 C722.1,475.8 726.7,472.7 731.4,469.6 C736.0,466.5 740.6,463.4 745.2,460.3 C749.8,457.2 754.4,454.1 759.0,451.0 C763.6,447.9 768.2,444.8 772.8,441.6 C777.4,438.5 782.0,435.4 786.6,432.2 C791.2,429.1 795.8,426.0 800.4,422.8 C805.0,419.7 809.6,416.5 814.1,413.4 C818.7,410.2 823.3,407.1 827.9,403.9 C832.4,400.7 837.0,397.6 841.6,394.4 C846.1,391.2 850.7,388.0 855.3,384.9 C859.8,381.7 864.4,378.5 868.9,375.3 C873.5,372.1 878.0,368.9 882.6,365.7 C887.1,362.5 891.7,359.3 896.2,356.1 C900.8,352.9 905.3,349.7 909.9,346.4 C914.4,343.2 918.9,340.0 923.5,336.8 C928.0,333.5 932.5,330.3 937.1,327.1 C941.6,323.8 946.1,320.6 950.7,317.4 C955.2,314.1 959.7,310.9 964.2,307.6 C968.8,304.4 973.3,301.1 977.8,297.9 C982.3,294.6 986.8,291.4 991.4,288.1 C995.9,284.9 1000.4,281.6 1004.9,278.3 C1009.4,275.1 1013.9,271.8 1018.4,268.6 C1022.9,265.3 1027.5,262.0 1032.0,258.7 C1036.5,255.5 1041.0,252.2 1045.5,248.9 C1050.0,245.7 1054.5,242.4 1059.0,239.1 C1063.5,235.8 1068.0,232.5 1072.5,229.3 C1077.0,226.0 1081.5,222.7 1086.0,219.4 C1090.5,216.1 1095.0,212.9 1099.5,209.6 C1104.0,206.3 1108.5,203.0 1113.0,199.7 C1117.5,196.4 1122.0,193.1 1126.5,189.9 C1131.0,186.6 1137.8,181.6 1140.0,180.0" fill="none" stroke="#FFF" stroke-width="74" stroke-linecap="round"/>
<path d="M-140.0,870.0 C-137.5,869.1 -130.1,866.3 -125.2,864.5 C-120.2,862.6 -115.3,860.8 -110.4,859.0 C-105.4,857.1 -100.5,855.3 -95.5,853.4 C-90.6,851.6 -85.7,849.8 -80.7,847.9 C-75.8,846.1 -70.8,844.2 -65.9,842.4 C-61.0,840.5 -56.0,838.7 -51.1,836.8 C-46.2,835.0 -41.2,833.1 -36.3,831.3 C-31.3,829.4 -26.4,827.6 -21.5,825.7 C-16.5,823.9 -11.6,822.0 -6.7,820.2 C-1.8,818.3 3.2,816.4 8.1,814.6 C13.0,812.7 18.0,810.8 22.9,809.0 C27.8,807.1 32.7,805.2 37.7,803.4 C42.6,801.5 47.5,799.6 52.4,797.7 C57.4,795.8 62.3,794.0 67.2,792.1 C72.1,790.2 77.0,788.3 81.9,786.4 C86.9,784.5 91.8,782.6 96.7,780.7 C101.6,778.8 106.5,776.9 111.4,775.0 C116.3,773.1 121.2,771.1 126.1,769.2 C131.0,767.3 135.9,765.4 140.8,763.5 C145.7,761.5 150.6,759.6 155.5,757.7 C160.4,755.7 165.3,753.8 170.2,751.8 C175.1,749.9 180.0,747.9 184.8,746.0 C189.7,744.0 194.6,742.1 199.5,740.1 C204.4,738.1 209.2,736.1 214.1,734.2 C219.0,732.2 223.9,730.2 228.7,728.2 C233.6,726.2 238.5,724.2 243.3,722.2 C248.2,720.2 253.1,718.2 257.9,716.2 C262.8,714.2 267.6,712.2 272.5,710.2 C277.3,708.1 282.2,706.1 287.0,704.1 C291.9,702.0 296.7,700.0 301.6,697.9 C306.4,695.9 311.2,693.8 316.1,691.8 C320.9,689.7 325.7,687.6 330.6,685.6 C335.4,683.5 340.2,681.4 345.1,679.3 C349.9,677.2 354.7,675.1 359.5,673.0 C364.3,670.9 369.1,668.8 373.9,666.7 C378.8,664.6 383.6,662.5 388.4,660.3 C393.2,658.2 398.0,656.1 402.8,653.9 C407.6,651.8 412.4,649.6 417.1,647.5 C421.9,645.3 426.7,643.2 431.5,641.0 C436.3,638.8 441.1,636.6 445.8,634.4 C450.6,632.3 455.4,630.1 460.2,627.9 C464.9,625.7 469.7,623.5 474.4,621.2 C479.2,619.0 484.0,616.8 488.7,614.6 C493.5,612.3 498.2,610.1 503.0,607.9 C507.7,605.6 512.5,603.4 517.2,601.1 C521.9,598.8 526.7,596.6 531.4,594.3 C536.2,592.0 540.9,589.8 545.6,587.5 C550.3,585.2 555.1,582.9 559.8,580.6 C564.5,578.3 569.2,576.0 573.9,573.6 C578.6,571.3 583.4,569.0 588.1,566.7 C592.8,564.3 597.5,562.0 602.2,559.7 C606.9,557.3 611.6,555.0 616.3,552.6 C620.9,550.2 625.6,547.9 630.3,545.5 C635.0,543.1 639.7,540.7 644.4,538.3 C649.0,536.0 653.7,533.6 658.4,531.2 C663.1,528.8 667.7,526.3 672.4,523.9 C677.1,521.5 681.7,519.1 686.4,516.7 C691.0,514.2 695.7,511.8 700.4,509.3 C705.0,506.9 709.7,504.5 714.3,502.0 C719.0,499.5 723.6,497.1 728.2,494.6 C732.9,492.1 737.5,489.7 742.1,487.2 C746.8,484.7 751.4,482.2 756.0,479.7 C760.7,477.2 765.3,474.7 769.9,472.2 C774.5,469.7 779.2,467.2 783.8,464.7 C788.4,462.2 793.0,459.6 797.6,457.1 C802.2,454.6 806.8,452.0 811.5,449.5 C816.1,447.0 820.7,444.4 825.3,441.9 C829.9,439.3 834.5,436.8 839.1,434.2 C843.7,431.6 848.3,429.1 852.8,426.5 C857.4,423.9 862.0,421.3 866.6,418.8 C871.2,416.2 875.8,413.6 880.4,411.0 C885.0,408.4 889.5,405.8 894.1,403.2 C898.7,400.6 903.3,398.0 907.8,395.4 C912.4,392.8 917.0,390.2 921.6,387.6 C926.1,385.0 930.7,382.3 935.3,379.7 C939.8,377.1 944.4,374.5 949.0,371.8 C953.5,369.2 958.1,366.6 962.7,363.9 C967.2,361.3 971.8,358.7 976.3,356.0 C980.9,353.4 985.4,350.7 990.0,348.1 C994.6,345.4 999.1,342.8 1003.7,340.1 C1008.2,337.5 1012.8,334.8 1017.3,332.2 C1021.9,329.5 1026.4,326.8 1031.0,324.2 C1035.5,321.5 1040.1,318.8 1044.6,316.2 C1049.2,313.5 1053.7,310.8 1058.2,308.2 C1062.8,305.5 1067.3,302.8 1071.9,300.2 C1076.4,297.5 1081.0,294.8 1085.5,292.1 C1090.0,289.5 1094.6,286.8 1099.1,284.1 C1103.7,281.4 1108.2,278.8 1112.8,276.1 C1117.3,273.4 1121.8,270.7 1126.4,268.0 C1130.9,265.4 1137.7,261.3 1140.0,260.0" fill="none" stroke="#FFF" stroke-width="74" stroke-linecap="round"/>
<path d="M-140.0,780.0 C-137.6,779.4 -130.2,777.6 -125.3,776.4 C-120.4,775.2 -115.5,774.1 -110.6,772.9 C-105.8,771.7 -100.9,770.5 -96.0,769.3 C-91.1,768.1 -86.2,766.9 -81.3,765.7 C-76.4,764.5 -71.5,763.3 -66.6,762.1 C-61.7,760.9 -56.9,759.7 -52.0,758.5 C-47.1,757.3 -42.2,756.1 -37.3,754.9 C-32.4,753.7 -27.5,752.5 -22.6,751.3 C-17.8,750.1 -12.9,748.9 -8.0,747.7 C-3.1,746.5 1.8,745.3 6.7,744.0 C11.6,742.8 16.4,741.6 21.3,740.4 C26.2,739.2 31.1,737.9 36.0,736.7 C40.8,735.5 45.7,734.3 50.6,733.0 C55.5,731.8 60.3,730.6 65.2,729.3 C70.1,728.1 75.0,726.8 79.8,725.6 C84.7,724.3 89.6,723.1 94.4,721.8 C99.3,720.6 104.2,719.3 109.0,718.0 C113.9,716.8 118.8,715.5 123.6,714.2 C128.5,713.0 133.4,711.7 138.2,710.4 C143.1,709.1 147.9,707.8 152.8,706.5 C157.7,705.2 162.5,703.9 167.4,702.6 C172.2,701.3 177.1,700.0 181.9,698.7 C186.8,697.4 191.6,696.1 196.5,694.8 C201.3,693.4 206.2,692.1 211.0,690.8 C215.8,689.4 220.7,688.1 225.5,686.8 C230.4,685.4 235.2,684.1 240.0,682.7 C244.9,681.3 249.7,680.0 254.5,678.6 C259.3,677.2 264.2,675.9 269.0,674.5 C273.8,673.1 278.7,671.7 283.5,670.3 C288.3,668.9 293.1,667.5 297.9,666.1 C302.7,664.7 307.6,663.3 312.4,661.8 C317.2,660.4 322.0,659.0 326.8,657.6 C331.6,656.1 336.4,654.7 341.2,653.2 C346.0,651.8 350.8,650.3 355.6,648.9 C360.4,647.4 365.2,645.9 370.0,644.4 C374.8,643.0 379.6,641.5 384.4,640.0 C389.2,638.5 393.9,637.0 398.7,635.5 C403.5,634.0 408.3,632.4 413.1,630.9 C417.8,629.4 422.6,627.9 427.4,626.3 C432.2,624.8 436.9,623.3 441.7,621.7 C446.5,620.1 451.2,618.6 456.0,617.0 C460.7,615.4 465.5,613.9 470.3,612.3 C475.0,610.7 479.8,609.1 484.5,607.5 C489.3,605.9 494.0,604.3 498.8,602.7 C503.5,601.1 508.3,599.5 513.0,597.8 C517.7,596.2 522.5,594.6 527.2,592.9 C532.0,591.3 536.7,589.6 541.4,588.0 C546.1,586.3 550.9,584.6 555.6,583.0 C560.3,581.3 565.0,579.6 569.8,577.9 C574.5,576.2 579.2,574.5 583.9,572.8 C588.6,571.1 593.3,569.4 598.1,567.7 C602.8,565.9 607.5,564.2 612.2,562.5 C616.9,560.7 621.6,559.0 626.3,557.3 C631.0,555.5 635.7,553.7 640.4,552.0 C645.1,550.2 649.8,548.4 654.4,546.7 C659.1,544.9 663.8,543.1 668.5,541.3 C673.2,539.5 677.9,537.7 682.5,535.9 C687.2,534.1 691.9,532.3 696.6,530.4 C701.3,528.6 705.9,526.8 710.6,525.0 C715.3,523.1 719.9,521.3 724.6,519.4 C729.3,517.6 733.9,515.7 738.6,513.9 C743.2,512.0 747.9,510.1 752.6,508.2 C757.2,506.4 761.9,504.5 766.5,502.6 C771.2,500.7 775.8,498.8 780.5,496.9 C785.1,495.0 789.8,493.1 794.4,491.2 C799.0,489.3 803.7,487.4 808.3,485.4 C813.0,483.5 817.6,481.6 822.2,479.7 C826.9,477.7 831.5,475.8 836.1,473.8 C840.8,471.9 845.4,469.9 850.0,468.0 C854.7,466.0 859.3,464.1 863.9,462.1 C868.5,460.1 873.2,458.2 877.8,456.2 C882.4,454.2 887.0,452.2 891.6,450.2 C896.3,448.2 900.9,446.3 905.5,444.3 C910.1,442.3 914.7,440.3 919.3,438.3 C923.9,436.3 928.6,434.3 933.2,432.2 C937.8,430.2 942.4,428.2 947.0,426.2 C951.6,424.2 956.2,422.2 960.8,420.1 C965.4,418.1 970.0,416.1 974.6,414.1 C979.2,412.0 983.8,410.0 988.4,407.9 C993.0,405.9 997.6,403.9 1002.2,401.8 C1006.8,399.8 1011.4,397.7 1016.0,395.7 C1020.6,393.6 1025.2,391.6 1029.8,389.5 C1034.4,387.5 1039.0,385.4 1043.6,383.4 C1048.2,381.3 1052.8,379.3 1057.4,377.2 C1062.0,375.1 1066.6,373.1 1071.1,371.0 C1075.7,369.0 1080.3,366.9 1084.9,364.8 C1089.5,362.8 1094.1,360.7 1098.7,358.6 C1103.3,356.6 1107.9,354.5 1112.5,352.4 C1117.1,350.3 1121.6,348.3 1126.2,346.2 C1130.8,344.1 1137.7,341.0 1140.0,340.0" fill="none" stroke="#FFF" stroke-width="74" stroke-linecap="round"/>
<path d="M-140.0,120.0 C-137.5,121.2 -130.1,125.0 -125.2,127.4 C-120.2,129.9 -115.2,132.3 -110.3,134.8 C-105.3,137.2 -100.3,139.6 -95.4,142.1 C-90.4,144.6 -85.6,147.2 -80.7,149.8 C-75.8,152.4 -70.9,154.9 -65.9,157.4 C-61.0,159.9 -56.0,162.4 -51.1,164.9 C-46.1,167.3 -41.2,169.8 -36.2,172.3 C-31.3,174.8 -26.4,177.3 -21.4,179.8 C-16.5,182.3 -11.6,184.8 -6.6,187.3 C-1.7,189.8 3.2,192.3 8.2,194.8 C13.1,197.3 18.0,199.8 23.0,202.3 C27.9,204.8 32.8,207.3 37.7,209.9 C42.7,212.4 47.6,214.9 52.5,217.4 C57.4,219.9 62.3,222.5 67.3,225.0 C72.2,227.5 77.1,230.0 82.0,232.6 C86.9,235.1 91.8,237.7 96.7,240.2 C101.6,242.8 106.5,245.3 111.4,247.9 C116.3,250.4 121.2,253.0 126.1,255.6 C131.0,258.1 135.9,260.7 140.8,263.3 C145.7,265.8 150.5,268.4 155.4,271.0 C160.3,273.6 165.2,276.1 170.1,278.7 C175.0,281.2 179.9,283.8 184.8,286.3 C189.7,288.9 194.6,291.4 199.5,294.0 C204.4,296.5 209.3,299.1 214.2,301.6 C219.0,304.2 223.9,306.7 228.8,309.3 C233.7,311.9 238.6,314.4 243.5,317.0 C248.3,319.6 253.2,322.2 258.1,324.8 C262.9,327.4 267.8,330.0 272.6,332.6 C277.5,335.3 282.4,337.9 287.2,340.5 C292.1,343.1 296.9,345.8 301.7,348.4 C306.6,351.0 311.4,353.7 316.3,356.3 C321.1,358.9 326.0,361.6 330.8,364.2 C335.6,366.9 340.5,369.5 345.3,372.2 C350.1,374.8 354.9,377.5 359.8,380.2 C364.6,382.9 369.4,385.5 374.2,388.2 C379.0,391.0 383.8,393.7 388.6,396.4 C393.4,399.1 398.1,401.8 402.9,404.6 C407.7,407.3 412.5,410.1 417.2,412.9 C422.0,415.6 426.8,418.4 431.5,421.2 C436.3,424.0 441.0,426.7 445.8,429.5 C450.5,432.3 455.3,435.1 460.0,437.9 C464.7,440.7 469.5,443.5 474.2,446.3 C479.0,449.1 483.7,452.0 488.4,454.8 C493.2,457.6 497.9,460.4 502.6,463.3 C507.3,466.1 512.1,468.9 516.8,471.7 C521.5,474.6 526.2,477.4 531.0,480.2 C535.7,483.1 540.4,485.9 545.1,488.7 C549.8,491.6 554.6,494.4 559.3,497.2 C564.0,500.0 568.7,502.9 573.5,505.7 C578.2,508.5 582.9,511.4 587.6,514.2 C592.3,517.1 597.0,519.9 601.7,522.8 C606.4,525.7 611.1,528.5 615.8,531.4 C620.5,534.3 625.2,537.2 629.9,540.1 C634.6,543.0 639.2,545.9 643.9,548.9 C648.6,551.8 653.2,554.7 657.9,557.7 C662.6,560.6 667.2,563.6 671.9,566.5 C676.5,569.5 681.2,572.4 685.8,575.4 C690.4,578.4 695.1,581.4 699.7,584.4 C704.3,587.4 709.0,590.4 713.6,593.4 C718.2,596.4 722.8,599.4 727.4,602.4 C732.0,605.4 736.6,608.4 741.2,611.5 C745.9,614.5 750.5,617.5 755.1,620.6 C759.7,623.6 764.3,626.6 768.9,629.7 C773.5,632.7 778.1,635.8 782.7,638.8 C787.3,641.8 791.9,644.9 796.5,648.0 C801.0,651.0 805.6,654.1 810.2,657.2 C814.8,660.2 819.4,663.3 823.9,666.4 C828.5,669.5 833.1,672.6 837.6,675.7 C842.2,678.8 846.8,681.9 851.3,685.0 C855.9,688.1 860.4,691.3 865.0,694.4 C869.6,697.5 874.1,700.6 878.7,703.8 C883.2,706.9 887.7,710.0 892.3,713.2 C896.9,716.3 901.4,719.4 906.0,722.5 C910.6,725.6 915.1,728.7 919.7,731.8 C924.2,735.0 928.8,738.1 933.3,741.3 C937.9,744.4 942.4,747.5 946.9,750.7 C951.5,753.9 956.0,757.0 960.5,760.2 C965.1,763.4 969.6,766.5 974.1,769.7 C978.6,772.9 983.1,776.1 987.7,779.3 C992.2,782.5 996.7,785.6 1001.2,788.8 C1005.7,792.0 1010.2,795.2 1014.7,798.4 C1019.3,801.6 1023.8,804.8 1028.3,808.0 C1032.8,811.1 1037.4,814.3 1041.9,817.5 C1046.4,820.7 1051.0,823.8 1055.5,827.0 C1060.0,830.2 1064.6,833.3 1069.1,836.5 C1073.7,839.6 1078.2,842.7 1082.8,845.8 C1087.4,849.0 1092.0,852.1 1096.6,855.1 C1101.2,858.2 1105.8,861.2 1110.5,864.2 C1115.2,867.2 1119.7,870.3 1124.6,872.9 C1129.6,875.6 1137.4,878.8 1140.0,880.0 L1085.9,841.5 C1083.7,839.8 1077.0,834.9 1072.5,831.7 C1068.1,828.4 1063.6,825.1 1059.1,821.9 C1054.7,818.6 1050.2,815.4 1045.7,812.1 C1041.3,808.8 1036.8,805.6 1032.3,802.3 C1027.8,799.1 1023.4,795.8 1018.9,792.5 C1014.4,789.3 1010.0,786.0 1005.5,782.8 C1001.0,779.5 996.6,776.2 992.1,773.0 C987.6,769.7 983.2,766.4 978.7,763.2 C974.2,759.9 969.8,756.7 965.3,753.4 C960.8,750.2 956.3,746.9 951.8,743.7 C947.3,740.5 942.9,737.2 938.4,734.0 C933.9,730.8 929.4,727.6 924.9,724.4 C920.4,721.2 915.8,718.0 911.3,714.8 C906.8,711.6 902.3,708.4 897.7,705.3 C893.2,702.1 888.6,699.0 884.1,695.9 C879.5,692.7 875.0,689.6 870.4,686.5 C865.8,683.4 861.3,680.3 856.7,677.1 C852.1,674.0 847.6,670.9 843.0,667.8 C838.4,664.7 833.9,661.6 829.3,658.5 C824.7,655.4 820.1,652.4 815.5,649.3 C810.9,646.2 806.4,643.1 801.8,640.0 C797.2,636.9 792.6,633.8 788.1,630.7 C783.5,627.6 778.9,624.5 774.3,621.4 C769.8,618.3 765.2,615.2 760.6,612.1 C756.1,609.0 751.5,605.9 746.9,602.9 C742.3,599.8 737.7,596.7 733.1,593.7 C728.5,590.6 723.9,587.6 719.3,584.6 C714.6,581.6 710.0,578.6 705.4,575.6 C700.7,572.6 696.1,569.6 691.5,566.6 C686.8,563.6 682.2,560.6 677.5,557.6 C672.9,554.7 668.2,551.7 663.5,548.8 C658.9,545.9 654.2,542.9 649.5,540.0 C644.8,537.1 640.1,534.2 635.4,531.3 C630.7,528.3 626.1,525.4 621.4,522.5 C616.7,519.6 612.0,516.7 607.3,513.8 C602.6,510.9 597.9,508.0 593.2,505.1 C588.5,502.2 583.8,499.3 579.1,496.4 C574.4,493.5 569.7,490.6 565.0,487.8 C560.3,484.9 555.6,482.1 550.8,479.3 C546.1,476.4 541.3,473.6 536.6,470.8 C531.9,468.0 527.1,465.1 522.4,462.3 C517.6,459.5 512.9,456.7 508.1,453.9 C503.4,451.1 498.6,448.3 493.8,445.5 C489.1,442.7 484.3,440.0 479.6,437.2 C474.8,434.4 470.0,431.6 465.2,428.9 C460.4,426.1 455.7,423.4 450.9,420.7 C446.1,417.9 441.3,415.2 436.5,412.5 C431.7,409.7 426.9,407.0 422.1,404.3 C417.3,401.6 412.4,398.9 407.6,396.2 C402.8,393.5 398.0,390.8 393.2,388.1 C388.4,385.4 383.5,382.8 378.7,380.1 C373.9,377.4 369.1,374.7 364.2,372.1 C359.4,369.4 354.6,366.7 349.7,364.1 C344.9,361.4 340.0,358.8 335.2,356.1 C330.4,353.5 325.5,350.8 320.7,348.2 C315.8,345.5 311.0,342.9 306.1,340.2 C301.3,337.6 296.4,335.0 291.6,332.3 C286.7,329.7 281.8,327.1 277.0,324.5 C272.1,321.9 267.2,319.3 262.3,316.8 C257.4,314.2 252.5,311.6 247.6,309.1 C242.7,306.5 237.8,304.0 232.9,301.4 C228.0,298.9 223.1,296.4 218.2,293.8 C213.3,291.3 208.4,288.7 203.5,286.2 C198.6,283.7 193.7,281.1 188.8,278.6 C183.8,276.1 178.9,273.6 174.0,271.1 C169.1,268.6 164.1,266.1 159.2,263.6 C154.3,261.1 149.3,258.6 144.4,256.1 C139.4,253.7 134.5,251.2 129.5,248.7 C124.6,246.3 119.6,243.8 114.7,241.4 C109.7,238.9 104.8,236.5 99.8,234.0 C94.9,231.6 89.9,229.1 84.9,226.7 C80.0,224.3 75.0,221.8 70.0,219.4 C65.0,217.0 60.1,214.6 55.1,212.2 C50.1,209.8 45.1,207.4 40.1,205.0 C35.2,202.6 30.2,200.2 25.2,197.8 C20.2,195.4 15.2,193.1 10.2,190.7 C5.2,188.3 0.2,185.9 -4.8,183.5 C-9.8,181.2 -14.8,178.8 -19.8,176.4 C-24.8,174.1 -29.8,171.7 -34.8,169.3 C-39.8,167.0 -44.8,164.6 -49.8,162.2 C-54.8,159.9 -59.8,157.4 -64.8,155.1 C-69.8,152.8 -74.9,150.5 -79.9,148.2 C-84.9,145.9 -90.0,143.8 -95.0,141.4 C-100.1,139.1 -105.0,136.6 -110.0,134.2 C-115.0,131.9 -120.0,129.5 -125.0,127.1 C-130.0,124.7 -137.5,121.2 -140.0,120.0 Z" fill="#000" fill-opacity="0.3" stroke="none"/>
<path d="M-140.0,210.0 C-137.6,211.0 -130.2,213.8 -125.4,215.8 C-120.5,217.8 -115.7,219.8 -110.9,221.9 C-106.0,224.0 -101.2,226.1 -96.4,228.2 C-91.6,230.3 -86.8,232.6 -82.0,234.6 C-77.2,236.6 -72.3,238.5 -67.4,240.3 C-62.5,242.2 -57.5,243.9 -52.6,245.7 C-47.7,247.5 -42.8,249.3 -37.8,251.1 C-32.9,252.9 -28.0,254.7 -23.1,256.5 C-18.2,258.3 -13.3,260.1 -8.3,262.0 C-3.4,263.8 1.5,265.6 6.4,267.4 C11.3,269.2 16.2,271.0 21.2,272.8 C26.1,274.6 31.0,276.4 35.9,278.2 C40.8,280.0 45.7,281.8 50.6,283.6 C55.5,285.5 60.5,287.3 65.4,289.1 C70.3,290.9 75.2,292.7 80.1,294.6 C85.0,296.4 89.9,298.3 94.8,300.1 C99.7,301.9 104.6,303.8 109.5,305.6 C114.3,307.5 119.2,309.3 124.1,311.2 C129.0,313.1 133.9,314.9 138.8,316.8 C143.7,318.6 148.6,320.5 153.4,322.4 C158.3,324.3 163.2,326.1 168.1,328.0 C173.0,329.9 177.8,331.8 182.7,333.7 C187.6,335.5 192.5,337.4 197.3,339.3 C202.2,341.2 207.1,343.1 211.9,345.0 C216.8,346.9 221.7,348.8 226.5,350.7 C231.4,352.6 236.3,354.5 241.1,356.4 C246.0,358.4 250.9,360.3 255.7,362.2 C260.6,364.1 265.4,366.0 270.3,368.0 C275.1,369.9 280.0,371.8 284.8,373.8 C289.7,375.7 294.5,377.6 299.4,379.6 C304.2,381.6 309.1,383.5 313.9,385.5 C318.7,387.5 323.6,389.4 328.4,391.4 C333.2,393.4 338.0,395.4 342.9,397.4 C347.7,399.4 352.5,401.4 357.3,403.4 C362.1,405.4 367.0,407.4 371.8,409.4 C376.6,411.4 381.4,413.4 386.2,415.4 C391.0,417.5 395.8,419.5 400.6,421.6 C405.4,423.6 410.2,425.7 415.0,427.7 C419.8,429.8 424.6,431.8 429.4,433.9 C434.2,436.0 439.0,438.1 443.7,440.2 C448.5,442.2 453.3,444.3 458.1,446.4 C462.8,448.6 467.6,450.7 472.4,452.8 C477.1,454.9 481.9,457.1 486.6,459.2 C491.4,461.4 496.1,463.5 500.9,465.7 C505.6,467.9 510.4,470.1 515.1,472.2 C519.8,474.4 524.6,476.6 529.3,478.9 C534.0,481.1 538.7,483.3 543.4,485.5 C548.2,487.7 552.9,490.0 557.6,492.2 C562.3,494.4 567.0,496.7 571.7,498.9 C576.4,501.2 581.1,503.5 585.8,505.8 C590.5,508.0 595.2,510.3 599.9,512.6 C604.5,514.9 609.2,517.3 613.9,519.6 C618.6,521.9 623.2,524.2 627.9,526.5 C632.6,528.9 637.2,531.2 641.9,533.6 C646.6,535.9 651.2,538.2 655.9,540.6 C660.5,542.9 665.2,545.3 669.9,547.6 C674.5,550.0 679.2,552.4 683.8,554.7 C688.5,557.1 693.1,559.5 697.8,561.9 C702.4,564.2 707.0,566.6 711.7,569.0 C716.3,571.4 721.0,573.8 725.6,576.2 C730.2,578.6 734.9,581.0 739.5,583.4 C744.1,585.8 748.8,588.2 753.4,590.7 C758.0,593.1 762.6,595.5 767.3,598.0 C771.9,600.4 776.5,602.8 781.1,605.3 C785.7,607.7 790.3,610.2 794.9,612.7 C799.5,615.1 804.2,617.6 808.8,620.1 C813.4,622.5 818.0,625.0 822.6,627.5 C827.2,629.9 831.8,632.4 836.4,634.9 C841.0,637.4 845.6,639.9 850.2,642.4 C854.8,644.9 859.4,647.4 864.0,649.9 C868.5,652.4 873.1,654.9 877.7,657.4 C882.3,659.9 886.9,662.4 891.5,664.9 C896.1,667.4 900.7,669.9 905.3,672.5 C909.8,675.0 914.4,677.5 919.0,680.1 C923.5,682.6 928.1,685.2 932.6,687.8 C937.2,690.4 941.7,693.0 946.3,695.5 C950.9,698.1 955.4,700.7 960.0,703.3 C964.5,705.8 969.1,708.4 973.7,711.0 C978.2,713.5 982.8,716.1 987.4,718.6 C991.9,721.2 996.5,723.8 1001.1,726.3 C1005.6,728.9 1010.2,731.4 1014.8,734.0 C1019.4,736.5 1023.9,739.1 1028.5,741.6 C1033.1,744.2 1037.7,746.7 1042.2,749.3 C1046.8,751.8 1051.4,754.4 1056.0,756.9 C1060.5,759.5 1065.1,762.0 1069.7,764.5 C1074.3,767.1 1078.9,769.6 1083.5,772.1 C1088.1,774.6 1092.8,777.0 1097.4,779.5 C1102.0,782.0 1106.7,784.4 1111.3,786.8 C1116.0,789.2 1120.6,791.7 1125.4,793.9 C1130.2,796.1 1137.6,799.0 1140.0,800.0 L1086.6,766.7 C1084.4,765.3 1077.7,761.1 1073.3,758.4 C1068.8,755.6 1064.4,752.8 1059.9,750.0 C1055.5,747.3 1051.0,744.5 1046.5,741.7 C1042.1,739.0 1037.6,736.2 1033.2,733.4 C1028.7,730.6 1024.3,727.9 1019.8,725.1 C1015.4,722.3 1010.9,719.6 1006.5,716.8 C1002.0,714.0 997.5,711.3 993.1,708.5 C988.6,705.8 984.1,703.0 979.7,700.3 C975.2,697.6 970.7,694.8 966.2,692.1 C961.7,689.4 957.3,686.7 952.8,684.0 C948.2,681.3 943.7,678.7 939.2,676.0 C934.7,673.4 930.2,670.7 925.6,668.1 C921.1,665.5 916.5,662.9 912.0,660.3 C907.4,657.7 902.9,655.1 898.3,652.6 C893.7,650.1 889.0,647.7 884.4,645.2 C879.8,642.8 875.2,640.3 870.5,637.8 C865.9,635.4 861.3,632.9 856.6,630.5 C852.0,628.0 847.4,625.6 842.7,623.2 C838.1,620.7 833.5,618.3 828.9,615.8 C824.2,613.3 819.6,610.8 815.0,608.4 C810.4,605.9 805.8,603.4 801.2,600.9 C796.6,598.5 791.9,596.0 787.3,593.6 C782.7,591.1 778.1,588.7 773.4,586.2 C768.8,583.8 764.2,581.4 759.5,578.9 C754.9,576.5 750.2,574.1 745.6,571.7 C740.9,569.3 736.3,566.9 731.6,564.6 C726.9,562.2 722.3,559.8 717.6,557.5 C712.9,555.1 708.2,552.8 703.6,550.5 C698.9,548.1 694.2,545.8 689.5,543.5 C684.8,541.2 680.1,538.9 675.4,536.7 C670.7,534.4 665.9,532.1 661.2,529.9 C656.5,527.6 651.8,525.4 647.1,523.1 C642.3,520.9 637.6,518.7 632.9,516.4 C628.1,514.2 623.4,512.0 618.7,509.7 C614.0,507.5 609.2,505.2 604.5,503.0 C599.8,500.7 595.1,498.5 590.4,496.2 C585.6,494.0 580.9,491.8 576.2,489.6 C571.4,487.4 566.7,485.1 562.0,482.9 C557.2,480.8 552.5,478.6 547.7,476.4 C543.0,474.2 538.2,472.0 533.5,469.9 C528.7,467.7 523.9,465.5 519.2,463.4 C514.4,461.2 509.7,459.0 504.9,456.9 C500.2,454.7 495.4,452.5 490.7,450.4 C485.9,448.2 481.1,446.0 476.4,443.9 C471.6,441.7 466.9,439.6 462.1,437.4 C457.3,435.3 452.5,433.2 447.8,431.0 C443.0,428.9 438.2,426.7 433.5,424.6 C428.7,422.5 423.9,420.4 419.1,418.3 C414.4,416.1 409.6,414.0 404.8,411.9 C400.0,409.8 395.2,407.7 390.4,405.7 C385.6,403.6 380.8,401.5 376.0,399.5 C371.2,397.5 366.3,395.4 361.5,393.4 C356.7,391.4 351.9,389.4 347.0,387.4 C342.2,385.4 337.4,383.4 332.5,381.4 C327.7,379.4 322.9,377.4 318.0,375.4 C313.2,373.5 308.3,371.5 303.5,369.5 C298.7,367.5 293.8,365.5 289.0,363.6 C284.1,361.6 279.3,359.7 274.4,357.8 C269.5,355.8 264.6,353.9 259.8,352.0 C254.9,350.2 250.0,348.3 245.1,346.4 C240.2,344.5 235.4,342.6 230.5,340.7 C225.6,338.9 220.7,337.0 215.8,335.1 C210.9,333.2 206.1,331.3 201.2,329.4 C196.3,327.5 191.4,325.7 186.5,323.8 C181.6,321.9 176.8,320.0 171.9,318.2 C167.0,316.3 162.1,314.4 157.2,312.6 C152.3,310.7 147.4,308.9 142.5,307.0 C137.6,305.2 132.7,303.3 127.8,301.5 C122.9,299.6 118.0,297.8 113.1,296.0 C108.1,294.2 103.2,292.4 98.3,290.6 C93.4,288.8 88.5,287.0 83.5,285.2 C78.6,283.4 73.7,281.7 68.7,279.9 C63.8,278.2 58.9,276.4 53.9,274.6 C49.0,272.9 44.1,271.1 39.1,269.4 C34.2,267.6 29.3,265.9 24.3,264.1 C19.4,262.4 14.4,260.6 9.5,258.8 C4.6,257.1 -0.4,255.3 -5.3,253.5 C-10.2,251.8 -15.2,250.0 -20.1,248.3 C-25.0,246.5 -30.0,244.8 -34.9,243.0 C-39.9,241.3 -44.8,239.6 -49.8,237.8 C-54.7,236.1 -59.6,234.3 -64.6,232.6 C-69.6,231.0 -74.5,229.3 -79.6,227.8 C-84.6,226.3 -89.7,224.9 -94.7,223.5 C-99.8,222.1 -104.9,220.7 -109.9,219.3 C-115.0,217.8 -120.0,216.3 -125.0,214.7 C-130.0,213.2 -137.5,210.8 -140.0,210.0 Z" fill="#000" fill-opacity="0.4" stroke="none"/>
<path d="M-140.0,300.0 C-137.6,300.6 -130.2,302.3 -125.4,303.5 C-120.5,304.7 -115.6,305.9 -110.8,307.2 C-105.9,308.4 -101.1,309.7 -96.3,311.0 C-91.4,312.3 -86.6,313.7 -81.7,314.9 C-76.9,316.2 -72.0,317.4 -67.1,318.6 C-62.3,319.7 -57.4,320.9 -52.5,322.0 C-47.6,323.2 -42.8,324.4 -37.9,325.5 C-33.0,326.7 -28.2,327.9 -23.3,329.0 C-18.4,330.2 -13.6,331.4 -8.7,332.6 C-3.8,333.8 1.0,334.9 5.9,336.1 C10.8,337.3 15.6,338.5 20.5,339.7 C25.4,340.9 30.2,342.2 35.1,343.4 C39.9,344.6 44.8,345.8 49.6,347.1 C54.5,348.3 59.3,349.5 64.2,350.8 C69.0,352.0 73.9,353.3 78.7,354.5 C83.6,355.7 88.4,357.0 93.3,358.2 C98.1,359.4 103.0,360.7 107.8,361.9 C112.7,363.1 117.5,364.3 122.4,365.6 C127.2,366.8 132.1,368.0 136.9,369.3 C141.7,370.5 146.6,371.8 151.4,373.0 C156.3,374.2 161.1,375.5 166.0,376.7 C170.8,378.0 175.6,379.3 180.5,380.5 C185.3,381.8 190.1,383.1 195.0,384.3 C199.8,385.6 204.6,386.9 209.4,388.2 C214.3,389.5 219.1,390.8 223.9,392.1 C228.7,393.4 233.5,394.7 238.4,396.0 C243.2,397.4 248.0,398.7 252.8,400.0 C257.6,401.3 262.4,402.7 267.2,404.0 C272.1,405.3 276.9,406.7 281.7,408.0 C286.5,409.4 291.3,410.7 296.1,412.1 C300.9,413.5 305.7,414.8 310.5,416.2 C315.3,417.6 320.1,419.0 324.9,420.4 C329.6,421.7 334.4,423.1 339.2,424.5 C344.0,425.9 348.8,427.3 353.6,428.8 C358.4,430.2 363.1,431.6 367.9,433.0 C372.7,434.4 377.5,435.9 382.2,437.3 C387.0,438.7 391.8,440.2 396.6,441.6 C401.3,443.1 406.1,444.5 410.9,446.0 C415.6,447.5 420.4,449.0 425.1,450.4 C429.9,451.9 434.7,453.4 439.4,454.9 C444.2,456.4 448.9,457.9 453.7,459.4 C458.4,460.9 463.2,462.4 467.9,463.9 C472.7,465.4 477.4,466.9 482.2,468.4 C486.9,469.9 491.7,471.5 496.4,473.0 C501.2,474.5 505.9,476.0 510.6,477.6 C515.4,479.1 520.1,480.7 524.8,482.2 C529.6,483.8 534.3,485.4 539.0,486.9 C543.8,488.5 548.5,490.1 553.2,491.6 C558.0,493.2 562.7,494.8 567.4,496.4 C572.1,498.0 576.8,499.6 581.6,501.2 C586.3,502.8 591.0,504.4 595.7,506.0 C600.4,507.6 605.1,509.3 609.9,510.9 C614.6,512.5 619.3,514.2 624.0,515.8 C628.7,517.5 633.4,519.2 638.1,520.8 C642.8,522.5 647.4,524.2 652.1,525.9 C656.8,527.6 661.5,529.3 666.2,531.0 C670.9,532.7 675.6,534.4 680.2,536.2 C684.9,537.9 689.6,539.6 694.3,541.4 C698.9,543.1 703.6,544.9 708.3,546.6 C713.0,548.4 717.6,550.2 722.3,551.9 C727.0,553.7 731.6,555.5 736.3,557.2 C740.9,559.0 745.6,560.8 750.3,562.6 C754.9,564.4 759.6,566.2 764.3,568.0 C768.9,569.7 773.6,571.5 778.2,573.3 C782.9,575.1 787.6,576.9 792.2,578.7 C796.9,580.5 801.5,582.3 806.2,584.2 C810.8,586.0 815.5,587.8 820.1,589.6 C824.8,591.4 829.4,593.3 834.1,595.1 C838.7,597.0 843.4,598.8 848.0,600.6 C852.7,602.5 857.3,604.3 862.0,606.2 C866.6,608.1 871.2,609.9 875.9,611.8 C880.5,613.7 885.1,615.5 889.8,617.4 C894.4,619.3 899.1,621.1 903.7,623.0 C908.3,624.9 913.0,626.8 917.6,628.6 C922.2,630.5 926.9,632.4 931.5,634.4 C936.1,636.3 940.7,638.2 945.4,640.1 C950.0,642.0 954.6,644.0 959.2,645.9 C963.8,647.8 968.4,649.8 973.0,651.7 C977.7,653.7 982.3,655.7 986.9,657.6 C991.5,659.6 996.1,661.6 1000.7,663.6 C1005.3,665.5 1009.9,667.5 1014.5,669.5 C1019.1,671.5 1023.7,673.5 1028.3,675.5 C1032.9,677.4 1037.4,679.4 1042.1,681.4 C1046.7,683.4 1051.3,685.3 1055.9,687.3 C1060.5,689.2 1065.1,691.2 1069.7,693.1 C1074.3,695.1 1079.0,697.0 1083.6,698.9 C1088.2,700.8 1092.9,702.7 1097.5,704.6 C1102.2,706.5 1106.8,708.4 1111.5,710.2 C1116.1,712.1 1120.8,714.0 1125.5,715.6 C1130.3,717.3 1137.6,719.3 1140.0,720.0 L1085.4,694.8 C1083.1,693.8 1076.3,690.7 1071.7,688.6 C1067.1,686.5 1062.6,684.4 1058.0,682.4 C1053.4,680.3 1048.9,678.3 1044.3,676.2 C1039.7,674.1 1035.2,672.1 1030.6,670.0 C1026.0,668.0 1021.4,665.9 1016.9,663.9 C1012.3,661.9 1007.7,659.8 1003.1,657.8 C998.5,655.8 994.0,653.8 989.4,651.8 C984.8,649.7 980.2,647.7 975.6,645.7 C971.0,643.7 966.4,641.7 961.8,639.7 C957.2,637.7 952.6,635.7 948.1,633.7 C943.5,631.7 938.9,629.7 934.3,627.7 C929.7,625.6 925.1,623.6 920.6,621.6 C916.0,619.6 911.4,617.6 906.8,615.6 C902.2,613.6 897.6,611.6 893.0,609.7 C888.4,607.7 883.7,605.9 879.1,604.0 C874.5,602.1 869.8,600.2 865.2,598.3 C860.6,596.4 855.9,594.5 851.3,592.6 C846.6,590.8 842.0,588.9 837.4,587.0 C832.7,585.1 828.1,583.3 823.4,581.5 C818.8,579.6 814.1,577.8 809.5,575.9 C804.8,574.1 800.1,572.3 795.5,570.5 C790.8,568.7 786.2,566.9 781.5,565.0 C776.8,563.2 772.2,561.4 767.5,559.6 C762.8,557.8 758.2,556.1 753.5,554.3 C748.8,552.5 744.1,550.7 739.5,548.9 C734.8,547.2 730.1,545.4 725.4,543.7 C720.8,541.9 716.1,540.2 711.4,538.4 C706.7,536.7 702.0,534.9 697.4,533.2 C692.7,531.4 688.0,529.7 683.3,527.9 C678.6,526.2 673.9,524.4 669.3,522.7 C664.6,521.0 659.9,519.2 655.2,517.5 C650.5,515.8 645.8,514.1 641.1,512.4 C636.4,510.7 631.7,509.0 627.0,507.3 C622.3,505.6 617.6,503.9 612.9,502.2 C608.2,500.5 603.5,498.8 598.8,497.1 C594.1,495.5 589.4,493.8 584.7,492.2 C580.0,490.5 575.3,488.9 570.5,487.2 C565.8,485.6 561.1,484.0 556.4,482.3 C551.7,480.7 546.9,479.1 542.2,477.5 C537.5,475.9 532.8,474.2 528.0,472.6 C523.3,471.0 518.6,469.4 513.8,467.9 C509.1,466.3 504.4,464.7 499.6,463.1 C494.9,461.6 490.1,460.0 485.4,458.5 C480.6,457.0 475.9,455.4 471.1,453.9 C466.3,452.4 461.6,450.9 456.8,449.4 C452.1,447.8 447.3,446.3 442.5,444.8 C437.8,443.3 433.0,441.8 428.2,440.3 C423.5,438.9 418.7,437.4 413.9,435.9 C409.1,434.5 404.4,433.0 399.6,431.5 C394.8,430.1 390.0,428.6 385.2,427.2 C380.5,425.8 375.7,424.3 370.9,422.9 C366.1,421.4 361.3,420.0 356.5,418.6 C351.7,417.2 346.9,415.8 342.1,414.4 C337.3,413.0 332.5,411.6 327.7,410.2 C322.9,408.8 318.1,407.5 313.3,406.1 C308.5,404.8 303.7,403.4 298.9,402.1 C294.0,400.7 289.2,399.4 284.4,398.0 C279.6,396.7 274.8,395.4 270.0,394.0 C265.1,392.7 260.3,391.3 255.5,389.9 C250.7,388.6 245.9,387.2 241.1,385.9 C236.3,384.5 231.4,383.1 226.6,381.8 C221.8,380.4 217.0,379.1 212.2,377.8 C207.3,376.5 202.5,375.2 197.7,373.9 C192.8,372.6 188.0,371.3 183.1,370.0 C178.3,368.7 173.5,367.5 168.6,366.2 C163.8,365.0 158.9,363.7 154.1,362.5 C149.2,361.2 144.4,360.0 139.5,358.7 C134.7,357.5 129.8,356.3 124.9,355.1 C120.1,353.9 115.2,352.7 110.4,351.5 C105.5,350.3 100.6,349.2 95.7,348.0 C90.9,346.9 86.0,345.8 81.1,344.6 C76.2,343.5 71.3,342.4 66.4,341.3 C61.6,340.2 56.7,339.2 51.8,338.1 C46.9,337.0 42.0,335.9 37.1,334.8 C32.2,333.7 27.3,332.6 22.4,331.6 C17.5,330.5 12.6,329.4 7.7,328.3 C2.8,327.3 -2.1,326.2 -7.0,325.1 C-11.9,324.1 -16.7,323.0 -21.6,321.9 C-26.5,320.9 -31.4,319.8 -36.3,318.7 C-41.2,317.7 -46.1,316.6 -51.0,315.6 C-55.9,314.5 -60.8,313.3 -65.7,312.4 C-70.6,311.4 -75.6,310.4 -80.5,309.6 C-85.5,308.8 -90.5,308.3 -95.5,307.6 C-100.5,306.9 -105.4,306.2 -110.4,305.5 C-115.4,304.7 -120.3,303.9 -125.3,303.0 C-130.2,302.1 -137.5,300.5 -140.0,300.0 Z" fill="#000" fill-opacity="0.5" stroke="none"/>
<path d="M-140.0,960.0 C-137.4,958.9 -129.8,955.4 -124.7,953.2 C-119.6,951.0 -114.4,948.9 -109.2,946.9 C-104.0,944.8 -98.7,942.8 -93.5,940.8 C-88.3,938.8 -83.0,937.0 -77.8,934.8 C-72.7,932.7 -67.6,930.4 -62.6,928.0 C-57.5,925.6 -52.6,923.1 -47.6,920.6 C-42.5,918.2 -37.5,915.8 -32.5,913.3 C-27.5,910.9 -22.5,908.4 -17.5,906.0 C-12.5,903.5 -7.5,901.1 -2.5,898.7 C2.5,896.2 7.5,893.8 12.5,891.3 C17.5,888.9 22.5,886.4 27.5,884.0 C32.5,881.5 37.5,879.1 42.6,876.6 C47.6,874.2 52.6,871.7 57.6,869.2 C62.6,866.8 67.5,864.3 72.5,861.8 C77.5,859.4 82.5,856.9 87.5,854.4 C92.5,852.0 97.5,849.5 102.5,847.0 C107.5,844.5 112.5,842.0 117.4,839.5 C122.4,837.1 127.4,834.6 132.4,832.1 C137.4,829.6 142.3,827.0 147.3,824.5 C152.3,822.0 157.2,819.5 162.2,816.9 C167.1,814.3 172.1,811.8 177.0,809.2 C181.9,806.6 186.8,804.0 191.8,801.4 C196.7,798.8 201.6,796.1 206.5,793.5 C211.4,790.9 216.3,788.2 221.2,785.6 C226.1,782.9 231.0,780.3 235.9,777.6 C240.8,775.0 245.7,772.3 250.5,769.6 C255.4,767.0 260.3,764.3 265.2,761.7 C270.1,759.0 275.0,756.3 279.8,753.6 C284.7,750.9 289.6,748.3 294.5,745.6 C299.3,742.9 304.2,740.2 309.1,737.5 C313.9,734.8 318.8,732.1 323.6,729.4 C328.5,726.7 333.4,723.9 338.2,721.2 C343.1,718.5 347.9,715.8 352.8,713.1 C357.6,710.4 362.5,707.7 367.4,704.9 C372.2,702.2 377.1,699.5 381.9,696.8 C386.8,694.1 391.6,691.3 396.5,688.6 C401.3,685.9 406.1,683.1 411.0,680.4 C415.8,677.6 420.6,674.9 425.5,672.1 C430.3,669.4 435.1,666.6 439.9,663.8 C444.8,661.0 449.6,658.3 454.4,655.5 C459.2,652.7 464.0,649.9 468.8,647.1 C473.6,644.3 478.4,641.5 483.2,638.7 C488.1,635.9 492.9,633.1 497.7,630.3 C502.4,627.5 507.2,624.6 512.0,621.8 C516.8,619.0 521.6,616.1 526.4,613.3 C531.1,610.4 535.9,607.5 540.6,604.6 C545.4,601.7 550.1,598.8 554.9,595.9 C559.6,593.0 564.3,590.1 569.1,587.1 C573.8,584.2 578.5,581.2 583.2,578.3 C587.9,575.3 592.6,572.4 597.3,569.4 C602.0,566.4 606.7,563.5 611.4,560.5 C616.1,557.5 620.8,554.5 625.5,551.6 C630.2,548.6 634.9,545.6 639.6,542.6 C644.3,539.6 649.0,536.6 653.7,533.7 C658.4,530.7 663.1,527.7 667.8,524.7 C672.5,521.7 677.2,518.7 681.8,515.7 C686.5,512.7 691.2,509.7 695.9,506.6 C700.5,503.6 705.2,500.6 709.9,497.5 C714.5,494.5 719.2,491.4 723.8,488.3 C728.4,485.2 733.1,482.2 737.7,479.1 C742.3,476.0 747.0,472.9 751.6,469.8 C756.2,466.7 760.9,463.6 765.5,460.6 C770.1,457.5 774.8,454.4 779.4,451.3 C784.1,448.3 788.7,445.2 793.4,442.1 C798.0,439.1 802.7,436.0 807.3,432.9 C811.9,429.8 816.6,426.7 821.2,423.6 C825.8,420.5 830.4,417.4 835.0,414.2 C839.6,411.0 844.2,407.9 848.7,404.7 C853.3,401.5 857.9,398.3 862.4,395.1 C867.0,391.9 871.5,388.7 876.1,385.5 C880.6,382.2 885.2,379.0 889.7,375.8 C894.3,372.6 898.8,369.4 903.3,366.1 C907.9,362.9 912.3,359.5 916.8,356.3 C921.3,353.0 925.8,349.7 930.3,346.4 C934.8,343.1 939.4,339.9 943.9,336.6 C948.4,333.3 952.9,330.1 957.4,326.8 C961.9,323.5 966.4,320.2 970.9,317.0 C975.4,313.7 980.0,310.4 984.5,307.1 C989.0,303.9 993.5,300.6 998.0,297.3 C1002.5,294.0 1007.0,290.7 1011.5,287.5 C1016.0,284.2 1020.5,280.9 1025.0,277.6 C1029.5,274.3 1034.0,271.0 1038.5,267.7 C1043.0,264.4 1047.4,261.1 1051.9,257.8 C1056.4,254.5 1060.9,251.1 1065.3,247.8 C1069.8,244.5 1074.2,241.1 1078.7,237.7 C1083.1,234.3 1087.5,230.9 1091.9,227.5 C1096.3,224.0 1100.6,220.5 1104.9,217.0 C1109.2,213.4 1113.5,209.9 1117.7,206.2 C1121.9,202.4 1126.3,199.0 1130.0,194.7 C1133.7,190.3 1138.3,182.4 1140.0,180.0 L1084.4,217.2 C1082.1,218.7 1075.1,223.4 1070.4,226.4 C1065.8,229.5 1061.2,232.6 1056.5,235.7 C1051.9,238.8 1047.2,241.9 1042.6,245.0 C1038.0,248.1 1033.3,251.2 1028.7,254.3 C1024.1,257.3 1019.4,260.4 1014.8,263.5 C1010.1,266.6 1005.4,269.6 1000.8,272.7 C996.1,275.7 991.5,278.8 986.8,281.8 C982.2,284.9 977.5,287.9 972.8,291.0 C968.2,294.1 963.5,297.1 958.9,300.2 C954.2,303.2 949.6,306.3 944.9,309.3 C940.2,312.4 935.6,315.4 930.9,318.4 C926.2,321.5 921.6,324.5 916.9,327.5 C912.2,330.6 907.6,333.6 902.9,336.7 C898.3,339.7 893.7,342.8 889.1,346.0 C884.5,349.1 880.0,352.4 875.5,355.6 C871.0,358.9 866.5,362.1 861.9,365.3 C857.4,368.5 852.9,371.7 848.3,374.9 C843.8,378.1 839.3,381.3 834.7,384.5 C830.2,387.7 825.6,390.9 821.1,394.1 C816.5,397.3 812.0,400.5 807.5,403.7 C802.9,406.9 798.4,410.1 793.8,413.3 C789.3,416.5 784.8,419.7 780.2,422.9 C775.7,426.1 771.1,429.3 766.6,432.4 C762.1,435.6 757.5,438.8 753.0,442.0 C748.4,445.2 743.8,448.3 739.3,451.5 C734.7,454.6 730.2,457.8 725.6,460.9 C721.0,464.0 716.4,467.1 711.8,470.2 C707.2,473.3 702.6,476.4 698.0,479.5 C693.3,482.6 688.7,485.7 684.1,488.7 C679.5,491.8 674.9,494.9 670.3,498.0 C665.7,501.1 661.1,504.1 656.5,507.2 C651.8,510.3 647.2,513.4 642.6,516.4 C638.0,519.5 633.4,522.6 628.7,525.6 C624.1,528.6 619.4,531.7 614.8,534.7 C610.1,537.7 605.5,540.7 600.8,543.7 C596.1,546.7 591.5,549.7 586.8,552.7 C582.1,555.6 577.4,558.6 572.7,561.5 C568.0,564.5 563.3,567.4 558.6,570.4 C553.9,573.3 549.2,576.2 544.5,579.1 C539.8,582.0 535.1,584.9 530.3,587.8 C525.6,590.7 520.9,593.6 516.2,596.5 C511.4,599.4 506.7,602.3 502.0,605.2 C497.3,608.1 492.5,611.0 487.8,613.9 C483.1,616.8 478.4,619.7 473.6,622.6 C468.9,625.5 464.2,628.4 459.4,631.2 C454.7,634.1 449.9,637.0 445.2,639.8 C440.4,642.7 435.7,645.5 430.9,648.4 C426.1,651.2 421.4,654.0 416.6,656.9 C411.8,659.7 407.0,662.5 402.3,665.3 C397.5,668.1 392.7,670.9 387.9,673.7 C383.1,676.6 378.4,679.4 373.6,682.2 C368.8,685.0 364.0,687.8 359.2,690.6 C354.4,693.4 349.6,696.2 344.8,699.0 C340.0,701.7 335.2,704.5 330.4,707.3 C325.6,710.0 320.8,712.8 316.0,715.5 C311.1,718.3 306.3,721.1 301.5,723.8 C296.7,726.5 291.8,729.3 287.0,732.0 C282.2,734.7 277.3,737.5 272.5,740.2 C267.6,742.9 262.8,745.6 257.9,748.3 C253.1,750.9 248.2,753.6 243.3,756.3 C238.5,759.0 233.6,761.7 228.7,764.3 C223.9,767.0 219.0,769.7 214.1,772.4 C209.2,775.0 204.4,777.7 199.5,780.4 C194.6,783.0 189.7,785.7 184.8,788.3 C180.0,791.0 175.1,793.6 170.2,796.3 C165.3,798.9 160.4,801.6 155.5,804.2 C150.6,806.9 145.7,809.5 140.9,812.2 C136.0,814.8 131.1,817.5 126.2,820.1 C121.3,822.7 116.3,825.3 111.4,827.9 C106.5,830.5 101.6,833.1 96.7,835.7 C91.7,838.3 86.8,840.9 81.9,843.5 C77.0,846.0 72.0,848.6 67.1,851.2 C62.1,853.7 57.2,856.3 52.2,858.8 C47.3,861.4 42.3,863.9 37.4,866.5 C32.5,869.0 27.5,871.6 22.6,874.2 C17.6,876.7 12.7,879.3 7.7,881.9 C2.8,884.4 -2.1,887.0 -7.1,889.6 C-12.0,892.1 -17.0,894.7 -21.9,897.2 C-26.9,899.8 -31.8,902.4 -36.8,904.9 C-41.7,907.5 -46.7,910.0 -51.6,912.5 C-56.6,915.1 -61.6,917.6 -66.5,920.2 C-71.4,922.8 -76.4,925.4 -81.2,928.0 C-86.1,930.7 -90.9,933.5 -95.8,936.3 C-100.7,939.0 -105.5,941.7 -110.4,944.4 C-115.3,947.1 -120.2,949.7 -125.2,952.3 C-130.1,954.9 -137.5,958.7 -140.0,960.0 Z" fill="#7C4A34" fill-opacity="0.55" stroke="none"/>
<path d="M-140.0,870.0 C-137.5,869.1 -130.1,866.5 -125.1,864.7 C-120.1,862.9 -115.2,861.1 -110.2,859.3 C-105.3,857.4 -100.4,855.6 -95.4,853.8 C-90.4,852.0 -85.4,850.3 -80.5,848.6 C-75.5,846.9 -70.5,845.3 -65.5,843.5 C-60.5,841.8 -55.6,839.9 -50.6,838.2 C-45.6,836.4 -40.7,834.6 -35.7,832.8 C-30.7,831.1 -25.8,829.3 -20.8,827.5 C-15.9,825.7 -10.9,823.9 -5.9,822.2 C-1.0,820.4 4.0,818.6 9.0,816.8 C13.9,815.0 18.9,813.2 23.8,811.4 C28.8,809.6 33.7,807.8 38.7,806.0 C43.6,804.2 48.6,802.4 53.5,800.6 C58.5,798.8 63.4,797.0 68.4,795.1 C73.3,793.3 78.3,791.5 83.2,789.6 C88.1,787.8 93.1,786.0 98.0,784.1 C102.9,782.3 107.9,780.4 112.8,778.6 C117.7,776.7 122.7,774.9 127.6,773.0 C132.5,771.2 137.5,769.3 142.4,767.4 C147.3,765.6 152.2,763.7 157.1,761.8 C162.1,759.9 167.0,758.0 171.9,756.1 C176.8,754.1 181.7,752.2 186.6,750.3 C191.5,748.3 196.4,746.4 201.2,744.4 C206.1,742.5 211.0,740.5 215.9,738.5 C220.8,736.5 225.6,734.5 230.5,732.5 C235.4,730.5 240.2,728.5 245.1,726.5 C250.0,724.5 254.8,722.5 259.7,720.5 C264.6,718.5 269.4,716.4 274.3,714.4 C279.1,712.4 284.0,710.3 288.8,708.3 C293.7,706.3 298.5,704.2 303.3,702.1 C308.2,700.1 313.0,698.0 317.9,696.0 C322.7,693.9 327.5,691.8 332.4,689.7 C337.2,687.7 342.0,685.6 346.9,683.5 C351.7,681.4 356.5,679.4 361.4,677.3 C366.2,675.2 371.0,673.1 375.8,671.0 C380.7,668.9 385.5,666.8 390.3,664.7 C395.1,662.6 399.9,660.5 404.8,658.4 C409.6,656.3 414.4,654.1 419.2,652.0 C424.0,649.8 428.8,647.7 433.6,645.5 C438.3,643.3 443.1,641.2 447.9,639.0 C452.7,636.8 457.5,634.7 462.3,632.5 C467.1,630.3 471.9,628.1 476.6,626.0 C481.4,623.8 486.2,621.6 491.0,619.4 C495.7,617.1 500.5,614.9 505.3,612.7 C510.0,610.5 514.8,608.2 519.5,606.0 C524.3,603.7 529.0,601.5 533.8,599.2 C538.5,596.9 543.2,594.6 548.0,592.4 C552.7,590.1 557.4,587.8 562.2,585.5 C566.9,583.2 571.6,580.9 576.4,578.6 C581.1,576.3 585.8,574.0 590.5,571.6 C595.2,569.3 599.9,567.0 604.7,564.6 C609.4,562.3 614.1,560.0 618.8,557.6 C623.5,555.3 628.2,552.9 632.9,550.5 C637.6,548.2 642.3,545.8 647.0,543.4 C651.6,541.0 656.3,538.7 661.0,536.3 C665.7,533.9 670.4,531.5 675.1,529.1 C679.8,526.7 684.5,524.3 689.1,521.9 C693.8,519.5 698.5,517.1 703.2,514.7 C707.9,512.3 712.5,509.9 717.2,507.5 C721.9,505.1 726.6,502.7 731.3,500.3 C735.9,497.9 740.6,495.4 745.3,493.0 C749.9,490.5 754.6,488.1 759.2,485.6 C763.9,483.1 768.5,480.7 773.2,478.2 C777.8,475.7 782.4,473.2 787.1,470.7 C791.7,468.2 796.3,465.6 800.9,463.1 C805.6,460.6 810.2,458.1 814.8,455.6 C819.4,453.0 824.1,450.5 828.7,448.0 C833.3,445.5 838.0,443.0 842.6,440.5 C847.2,438.0 851.9,435.5 856.5,433.0 C861.1,430.5 865.8,428.0 870.4,425.5 C875.1,423.0 879.7,420.5 884.3,418.0 C889.0,415.5 893.6,413.0 898.2,410.5 C902.9,408.0 907.5,405.4 912.1,402.9 C916.7,400.3 921.3,397.8 926.0,395.3 C930.6,392.8 935.2,390.2 939.9,387.7 C944.5,385.2 949.1,382.7 953.8,380.1 C958.4,377.6 963.0,375.1 967.6,372.5 C972.2,370.0 976.8,367.4 981.4,364.8 C986.0,362.2 990.6,359.7 995.2,357.1 C999.8,354.5 1004.4,351.9 1009.0,349.2 C1013.6,346.6 1018.1,344.0 1022.7,341.4 C1027.3,338.7 1031.8,336.1 1036.4,333.4 C1040.9,330.8 1045.5,328.1 1050.0,325.4 C1054.5,322.7 1059.1,320.0 1063.6,317.3 C1068.1,314.6 1072.6,311.9 1077.1,309.1 C1081.6,306.3 1086.1,303.6 1090.6,300.7 C1095.0,297.9 1099.5,295.0 1103.8,292.1 C1108.2,289.1 1112.6,286.2 1116.8,283.0 C1121.1,279.8 1125.5,277.0 1129.4,273.1 C1133.2,269.3 1138.2,262.2 1140.0,260.0 L1082.5,287.0 C1080.1,288.2 1073.0,291.6 1068.2,293.9 C1063.5,296.3 1058.7,298.6 1054.0,300.9 C1049.2,303.3 1044.5,305.6 1039.8,307.9 C1035.0,310.3 1030.3,312.6 1025.6,315.0 C1020.9,317.4 1016.2,319.8 1011.5,322.2 C1006.8,324.6 1002.1,327.0 997.4,329.5 C992.8,331.9 988.1,334.4 983.5,336.9 C978.9,339.4 974.2,341.9 969.6,344.4 C965.0,346.9 960.3,349.4 955.7,351.9 C951.1,354.4 946.4,356.9 941.8,359.4 C937.1,361.8 932.5,364.3 927.8,366.8 C923.2,369.2 918.5,371.7 913.9,374.1 C909.2,376.6 904.6,379.1 899.9,381.6 C895.3,384.0 890.7,386.5 886.1,389.1 C881.5,391.7 877.0,394.4 872.5,397.1 C868.0,399.8 863.5,402.5 859.0,405.1 C854.4,407.8 849.9,410.5 845.4,413.1 C840.8,415.8 836.3,418.4 831.7,421.0 C827.2,423.6 822.6,426.2 818.0,428.8 C813.5,431.4 808.9,434.0 804.3,436.5 C799.7,439.1 795.2,441.7 790.6,444.3 C786.0,446.8 781.4,449.4 776.9,452.0 C772.3,454.6 767.8,457.3 763.2,459.9 C758.7,462.5 754.1,465.1 749.6,467.7 C745.0,470.3 740.5,472.9 735.9,475.5 C731.3,478.0 726.7,480.6 722.1,483.1 C717.5,485.6 712.8,488.0 708.2,490.5 C703.6,492.9 698.9,495.3 694.3,497.8 C689.6,500.2 685.0,502.6 680.3,505.0 C675.7,507.5 671.0,509.9 666.4,512.4 C661.8,514.8 657.1,517.2 652.5,519.7 C647.8,522.1 643.2,524.5 638.5,527.0 C633.9,529.4 629.3,531.8 624.6,534.2 C620.0,536.6 615.3,539.0 610.6,541.5 C606.0,543.9 601.3,546.3 596.7,548.7 C592.0,551.1 587.4,553.5 582.7,555.9 C578.1,558.3 573.4,560.7 568.8,563.1 C564.1,565.5 559.4,567.9 554.8,570.3 C550.1,572.7 545.4,575.0 540.7,577.4 C536.1,579.8 531.4,582.2 526.7,584.5 C522.0,586.9 517.4,589.2 512.7,591.6 C508.0,593.9 503.3,596.3 498.6,598.6 C493.9,600.9 489.2,603.2 484.5,605.5 C479.8,607.8 475.0,610.1 470.3,612.4 C465.6,614.6 460.9,616.9 456.2,619.2 C451.4,621.5 446.7,623.8 442.0,626.1 C437.3,628.4 432.6,630.7 427.9,633.0 C423.2,635.3 418.4,637.6 413.7,639.9 C409.0,642.2 404.3,644.5 399.5,646.7 C394.8,649.0 390.1,651.2 385.3,653.4 C380.5,655.6 375.8,657.8 371.0,660.0 C366.2,662.2 361.4,664.4 356.7,666.5 C351.9,668.7 347.1,670.8 342.3,672.9 C337.5,675.1 332.7,677.2 327.9,679.3 C323.1,681.4 318.3,683.5 313.5,685.7 C308.7,687.8 303.9,689.9 299.0,692.0 C294.2,694.1 289.4,696.2 284.6,698.3 C279.8,700.3 274.9,702.4 270.1,704.5 C265.3,706.5 260.5,708.6 255.6,710.6 C250.8,712.7 245.9,714.8 241.1,716.8 C236.3,718.9 231.4,720.9 226.6,723.0 C221.8,725.0 216.9,727.1 212.1,729.1 C207.2,731.2 202.4,733.2 197.6,735.3 C192.7,737.3 187.9,739.4 183.0,741.4 C178.2,743.4 173.3,745.4 168.4,747.5 C163.6,749.5 158.7,751.5 153.9,753.5 C149.0,755.6 144.2,757.6 139.3,759.6 C134.4,761.6 129.6,763.6 124.7,765.6 C119.8,767.6 115.0,769.6 110.1,771.6 C105.2,773.6 100.4,775.6 95.5,777.6 C90.6,779.6 85.7,781.5 80.8,783.5 C75.9,785.5 71.0,787.4 66.1,789.3 C61.3,791.3 56.4,793.2 51.5,795.2 C46.6,797.1 41.7,799.1 36.8,801.0 C31.9,803.0 27.0,804.9 22.1,806.9 C17.2,808.8 12.3,810.8 7.4,812.7 C2.5,814.7 -2.4,816.6 -7.3,818.5 C-12.2,820.5 -17.1,822.4 -22.0,824.3 C-26.9,826.2 -31.8,828.1 -36.7,830.0 C-41.7,832.0 -46.6,833.9 -51.5,835.8 C-56.4,837.7 -61.3,839.5 -66.2,841.5 C-71.1,843.4 -76.0,845.4 -80.9,847.4 C-85.8,849.3 -90.7,851.2 -95.6,853.1 C-100.6,855.0 -105.5,856.9 -110.4,858.7 C-115.4,860.6 -120.3,862.4 -125.2,864.3 C-130.2,866.2 -137.5,869.1 -140.0,870.0 Z" fill="#7C4A34" fill-opacity="0.7000000000000001" stroke="none"/>
<path d="M-140.0,780.0 C-137.5,779.4 -130.2,777.7 -125.3,776.5 C-120.4,775.4 -115.5,774.2 -110.6,773.0 C-105.7,771.9 -100.8,770.6 -95.9,769.5 C-91.0,768.4 -86.1,767.5 -81.1,766.4 C-76.2,765.3 -71.3,764.2 -66.4,763.1 C-61.5,761.9 -56.6,760.8 -51.7,759.6 C-46.8,758.4 -41.9,757.3 -37.0,756.1 C-32.1,755.0 -27.2,753.8 -22.3,752.7 C-17.4,751.5 -12.5,750.3 -7.6,749.2 C-2.7,748.0 2.2,746.9 7.1,745.7 C12.0,744.5 16.9,743.4 21.8,742.2 C26.7,741.0 31.6,739.9 36.5,738.7 C41.4,737.5 46.2,736.4 51.1,735.2 C56.0,734.0 60.9,732.9 65.8,731.7 C70.7,730.5 75.6,729.3 80.5,728.2 C85.4,727.0 90.3,725.8 95.2,724.6 C100.0,723.4 104.9,722.2 109.8,721.0 C114.7,719.8 119.6,718.6 124.5,717.3 C129.3,716.1 134.2,714.9 139.1,713.6 C144.0,712.4 148.8,711.2 153.7,709.9 C158.6,708.7 163.5,707.5 168.3,706.2 C173.2,705.0 178.1,703.7 182.9,702.5 C187.8,701.2 192.7,700.0 197.5,698.7 C202.4,697.4 207.3,696.2 212.1,694.9 C217.0,693.6 221.9,692.3 226.7,691.0 C231.6,689.8 236.4,688.5 241.3,687.2 C246.1,685.9 251.0,684.6 255.8,683.3 C260.7,681.9 265.5,680.6 270.4,679.3 C275.2,678.0 280.1,676.6 284.9,675.3 C289.8,674.0 294.6,672.6 299.4,671.3 C304.3,669.9 309.1,668.5 313.9,667.2 C318.8,665.8 323.6,664.4 328.4,663.1 C333.3,661.7 338.1,660.3 342.9,658.9 C347.8,657.5 352.6,656.1 357.4,654.7 C362.2,653.3 367.0,651.9 371.9,650.5 C376.7,649.0 381.5,647.6 386.3,646.1 C391.1,644.7 395.9,643.2 400.7,641.8 C405.5,640.3 410.3,638.8 415.1,637.4 C419.9,635.9 424.7,634.4 429.5,632.9 C434.3,631.4 439.1,629.9 443.9,628.4 C448.7,626.9 453.5,625.4 458.3,623.9 C463.0,622.4 467.8,620.9 472.6,619.4 C477.4,617.8 482.2,616.3 487.0,614.8 C491.8,613.3 496.5,611.7 501.3,610.2 C506.1,608.7 510.9,607.1 515.7,605.6 C520.4,604.0 525.2,602.5 530.0,600.9 C534.8,599.3 539.5,597.8 544.3,596.2 C549.1,594.6 553.8,593.0 558.6,591.4 C563.4,589.8 568.1,588.2 572.9,586.6 C577.6,585.0 582.4,583.3 587.1,581.7 C591.9,580.1 596.6,578.4 601.4,576.8 C606.1,575.2 610.9,573.5 615.6,571.9 C620.4,570.3 625.2,568.6 629.9,567.0 C634.7,565.3 639.4,563.7 644.1,562.0 C648.9,560.4 653.6,558.7 658.4,557.0 C663.1,555.4 667.9,553.7 672.6,552.0 C677.3,550.3 682.1,548.6 686.8,546.9 C691.5,545.2 696.3,543.5 701.0,541.7 C705.7,540.0 710.4,538.2 715.1,536.4 C719.8,534.6 724.5,532.8 729.2,531.0 C733.9,529.2 738.6,527.4 743.3,525.6 C748.0,523.8 752.7,522.0 757.4,520.2 C762.1,518.4 766.8,516.7 771.5,514.9 C776.2,513.1 780.9,511.3 785.6,509.4 C790.3,507.6 795.0,505.8 799.7,504.0 C804.3,502.1 809.0,500.3 813.7,498.4 C818.4,496.6 823.1,494.7 827.7,492.8 C832.4,490.9 837.1,489.0 841.7,487.1 C846.4,485.2 851.1,483.4 855.7,481.5 C860.4,479.6 865.1,477.7 869.7,475.8 C874.4,473.9 879.0,471.9 883.7,470.0 C888.3,468.1 893.0,466.1 897.6,464.1 C902.2,462.1 906.8,459.9 911.3,457.8 C915.9,455.7 920.5,453.5 925.1,451.4 C929.6,449.3 934.2,447.2 938.8,445.1 C943.4,443.0 947.9,440.9 952.5,438.8 C957.1,436.7 961.7,434.7 966.3,432.6 C970.9,430.5 975.5,428.5 980.1,426.4 C984.7,424.3 989.3,422.2 993.8,420.2 C998.4,418.1 1003.0,416.0 1007.6,414.0 C1012.2,411.9 1016.8,409.8 1021.4,407.7 C1026.0,405.7 1030.6,403.6 1035.2,401.5 C1039.8,399.5 1044.3,397.4 1048.9,395.3 C1053.5,393.2 1058.1,391.1 1062.7,389.0 C1067.2,386.9 1071.8,384.8 1076.3,382.6 C1080.9,380.4 1085.4,378.2 1089.9,375.9 C1094.4,373.6 1098.9,371.3 1103.3,368.9 C1107.7,366.5 1112.2,364.0 1116.5,361.3 C1120.8,358.6 1125.3,356.4 1129.2,352.8 C1133.1,349.3 1138.2,342.1 1140.0,340.0 L1083.8,362.4 C1081.5,363.3 1074.4,366.1 1069.7,367.9 C1065.0,369.7 1060.4,371.5 1055.6,373.3 C1050.9,375.1 1046.2,376.9 1041.5,378.7 C1036.8,380.4 1032.0,382.2 1027.3,383.9 C1022.6,385.6 1017.8,387.4 1013.1,389.1 C1008.3,390.8 1003.6,392.5 998.9,394.2 C994.1,395.9 989.4,397.6 984.6,399.3 C979.9,401.0 975.1,402.7 970.4,404.4 C965.6,406.1 960.9,407.8 956.1,409.5 C951.4,411.2 946.6,412.9 941.9,414.6 C937.2,416.3 932.4,418.0 927.7,419.8 C923.0,421.5 918.3,423.3 913.6,425.0 C908.9,426.8 904.2,428.5 899.5,430.3 C894.8,432.1 890.1,433.8 885.4,435.7 C880.8,437.7 876.2,439.8 871.6,441.8 C867.0,443.8 862.4,445.8 857.9,447.8 C853.3,449.9 848.7,451.9 844.1,453.9 C839.5,455.9 834.9,457.8 830.3,459.8 C825.7,461.8 821.0,463.8 816.4,465.8 C811.8,467.7 807.2,469.7 802.6,471.7 C798.0,473.7 793.4,475.7 788.8,477.7 C784.2,479.6 779.6,481.6 775.0,483.6 C770.4,485.5 765.8,487.5 761.2,489.4 C756.5,491.4 751.9,493.3 747.3,495.2 C742.7,497.2 738.1,499.1 733.5,501.1 C728.9,503.0 724.3,505.0 719.7,507.0 C715.0,508.9 710.5,510.9 705.9,512.9 C701.3,514.9 696.7,516.9 692.1,518.9 C687.5,520.9 682.9,522.9 678.3,524.8 C673.7,526.8 669.0,528.7 664.4,530.7 C659.8,532.6 655.2,534.5 650.6,536.5 C645.9,538.4 641.3,540.3 636.7,542.2 C632.0,544.1 627.4,545.9 622.8,547.8 C618.1,549.7 613.5,551.5 608.8,553.4 C604.2,555.2 599.5,557.0 594.8,558.8 C590.1,560.6 585.5,562.4 580.8,564.2 C576.1,565.9 571.4,567.7 566.7,569.4 C562.0,571.2 557.4,573.0 552.7,574.7 C548.0,576.5 543.3,578.2 538.6,579.9 C533.9,581.7 529.2,583.4 524.5,585.1 C519.8,586.8 515.1,588.5 510.4,590.2 C505.7,591.9 501.0,593.6 496.3,595.3 C491.5,597.0 486.8,598.7 482.1,600.3 C477.4,602.0 472.7,603.6 467.9,605.2 C463.2,606.9 458.4,608.5 453.7,610.1 C449.0,611.7 444.2,613.2 439.4,614.8 C434.7,616.4 429.9,617.9 425.2,619.4 C420.4,620.9 415.6,622.4 410.8,623.9 C406.1,625.4 401.3,626.9 396.5,628.4 C391.7,629.9 386.9,631.4 382.2,632.9 C377.4,634.4 372.6,635.9 367.8,637.4 C363.1,638.9 358.3,640.4 353.5,642.0 C348.7,643.5 344.0,645.0 339.2,646.5 C334.4,648.0 329.6,649.5 324.8,651.0 C320.0,652.4 315.2,653.9 310.5,655.4 C305.7,656.8 300.9,658.3 296.1,659.8 C291.3,661.2 286.5,662.7 281.7,664.1 C276.9,665.5 272.1,667.0 267.3,668.4 C262.5,669.8 257.7,671.3 252.8,672.7 C248.0,674.1 243.2,675.5 238.4,676.9 C233.6,678.3 228.8,679.7 224.0,681.1 C219.1,682.5 214.3,683.9 209.5,685.3 C204.6,686.6 199.8,688.0 195.0,689.4 C190.2,690.7 185.3,692.1 180.5,693.5 C175.7,694.8 170.8,696.2 166.0,697.5 C161.2,698.9 156.3,700.2 151.5,701.5 C146.6,702.9 141.8,704.2 136.9,705.5 C132.1,706.9 127.2,708.2 122.4,709.5 C117.5,710.8 112.7,712.1 107.9,713.4 C103.0,714.8 98.2,716.1 93.3,717.4 C88.5,718.7 83.6,720.1 78.8,721.4 C73.9,722.7 69.1,724.1 64.2,725.4 C59.4,726.7 54.5,728.1 49.7,729.4 C44.8,730.7 40.0,732.0 35.1,733.3 C30.2,734.7 25.4,736.0 20.5,737.3 C15.7,738.6 10.8,739.9 5.9,741.1 C1.1,742.4 -3.8,743.7 -8.6,745.0 C-13.5,746.3 -18.4,747.6 -23.2,748.9 C-28.1,750.1 -33.0,751.4 -37.8,752.7 C-42.7,754.0 -47.6,755.2 -52.5,756.5 C-57.3,757.8 -62.2,759.0 -67.1,760.3 C-71.9,761.6 -76.8,763.0 -81.6,764.4 C-86.5,765.8 -91.2,767.5 -96.1,768.8 C-100.9,770.2 -105.9,771.3 -110.7,772.5 C-115.6,773.7 -120.5,774.9 -125.4,776.2 C-130.3,777.4 -137.6,779.4 -140.0,780.0 Z" fill="#7C4A34" fill-opacity="0.8500000000000001" stroke="none"/>
</svg>