<svg xmlns="http://www.w3.org/2000/svg" viewBox="0 0 800 1000" width="800" height="1000"><rect width="800" height="1000" fill="#fff"/><path d="M664,-20L663,-18.4L661.5,-17.3L657.1,-16.3L653.3,-14.6L650,-11.8L649.3,-7.9L652.1,-5L657.3,-3.5L659.1,2.1L655.1,4.8L645,7.5L644.4,14.1L645.2,19.4L645.4,23.2L645,28.4L636.8,30.7L630.5,22.8L630.3,19.6L628.2,15.9L627.7,12.7L625.4,7.6L617.1,6.3L614,6.1L609.7,7L608.7,6.7L602.8,-0.3L603.1,-7.9L600.1,-11.7L599.4,-13.5L599.4,-15.4L597,-16.9L594.1,-17.8L593.2,-20L664,-20ZM577.9,-15.9L580.1,-13L582.8,-6.8L587.1,0.1L585.7,3L587.1,6.7L586.3,10.6L579.5,15.1L571.3,15.3L562.6,13.2L550.3,8.9L549.2,6.6L547.5,5.3L543.7,-1.8L543.2,-10.7L549.1,-11.7L561.9,-15.9L564.8,-15.3L568.3,-13.1L572,-13L576.9,-16.1ZM259.5,956.4L264.4,958.6L269.5,956.6L272.3,957.2L275,958.2L275.6,962.5L273.3,967.2L270.1,972L267.3,977.2L265,983.3L260.5,986.9L256.3,988.9L247.4,984.5L242.3,983.4L240.8,981.7L239.5,975L237.2,972.9L233.7,972L230.8,973.6L227,977.2L224.8,973.6L221.7,973L220.4,970.8L220.4,968.2L241.2,952.1L247.1,948.5L260,944.3L262,944.9L260.4,947.5L260.5,948.5L262.1,949.7L261.8,951.6L260.2,953.2ZM585.1,883.9L587.9,888.2L594.3,905.5L595,909.2L594.1,913.1L592.8,915.7L587.6,924.5L588.8,931.8L591,936.3L591.6,941.2L590.8,947.5L589.1,985.5L587.7,992.2L586.9,998L583.1,999.9L577.9,997.9L571.5,994.6L568.6,994.9L565.7,996L563.3,995L560.8,993.1L559.7,1006.3L557,1011.6L552.9,1015L548.7,1015.2L544.5,1014.1L541,1014.1L538.1,1011.6L535.7,1007.2L532.2,1001.7L528.5,995.3L527.9,989.6L526.9,977L527.7,974.2L529,971.5L529.5,965.9L528.8,960.9L529.8,959.1L531.9,960.9L533.3,960.3L533,957.7L533.4,953.1L530.5,949.2L526.1,947.9L525.5,943.9L525.7,939.8L528,937.2L528.6,933.7L528.3,922.9L524.9,919L523.6,913L521.8,909.2L518.7,905.3L515.3,902.2L513,899.2L512.3,891.2L513.2,884.6L514.1,881.8L515.2,882.2L518.6,885.5L521.4,886.2L526.7,887L531.9,886L538.1,883L544.1,879.4L552.5,868.8L557.9,866.7L560.6,863.9L561.4,860.1L563.7,859.2L566.6,862.8L570,863.2L575.4,866.2L577.7,869.1L579.9,872.6L581.8,874.1L583.8,875L584.2,875.8L582.6,876.6L581,880.6L582.1,881.7ZM571.5,758L570.7,767.4L571.7,770.3L573.6,772.3L574.6,774.4L577.3,799.9L577,801.9L571.4,812.3L570.3,815.2L570.5,828.1L569.6,831.5L567.6,834.9L564.3,845.8L561.1,850.7L551.6,844.7L546.1,842.2L543.5,839.3L541.6,837.4L542.5,834.8L544.9,832.2L545.2,830L539.3,827.6L536.6,826L536.4,823.3L538.2,819L537.2,815.3L533.9,815.5L531.2,815L530.9,813L532.6,810.7L535,807.6L534.7,804.2L531.8,802.7L528.9,799.9L527.7,796.1L529.7,793.5L532.9,791.8L530.4,788L528.6,787.9L527.3,787.1L528.3,785.3L530.7,782.6L534.1,774.5L539,770.8L547.8,768.3L550.3,767.3L552.3,764.5L554.7,762.7L557.6,762.9L560.5,763.9L562.2,765.2L563.5,763.9L564.4,760.4L563.6,757.4L563.5,749L564.9,744.2L567.6,743.9L570,746.6L570,748.8L571.1,754.4ZM17.1,-20L17.9,-19.3L22.3,-16.4L25.7,-13.7L27.6,-9.7L31.5,3.6L35.7,16.6L41.6,30.7L44.2,34.6L47.7,37.4L65.6,43.8L69.5,45.9L76.5,52L83.2,58.6L89.4,63.6L96.1,67.6L92.9,69.8L90.6,73.2L92.4,77.7L95,82L100.4,89L105.3,96.7L103.5,95.5L101.7,94.9L99.1,95L96.6,94.7L92,92.3L87.6,89.3L78.9,90.5L74.1,90L69.8,90L77.9,91.7L86.6,91.9L105.8,104.7L112.5,112.3L116.3,122.3L113.6,126.9L109.5,129.8L105.7,133.2L102.1,137L112.8,142.6L115.2,142.4L117.6,141.6L119.8,139.7L123.8,135.1L125.7,133.5L132.4,132.9L138,133.2L143.6,134.2L148.6,133.9L158.5,135.9L163.5,137.7L176.4,145.7L179.1,150.2L180.5,155.9L180.7,162.2L178.6,168.1L176.2,173.3L174.7,180.1L173.8,182.6L172.3,184.5L165.5,189.9L161,192.1L159.2,191.2L157.2,191.3L157,192.6L159,195.3L159.2,198.7L155.3,201.1L151.1,202.1L144.4,200.8L134.9,205.4L141.7,207.7L143.1,210.3L141.5,214.7L137.3,216.7L132.4,217.5L127.6,217.7L123.5,218.8L119.7,220.9L124.6,219.8L127.9,220.8L130.1,224.5L132,225.6L141.5,227.1L147.2,227.1L158.6,226.2L164,226.3L166,226.9L166.1,230L165.3,237.7L163.8,239.2L148.9,245.6L145.7,250.1L144.9,252.8L136.1,252.4L132.1,255.1L124.9,257.1L119.5,259.2L114.1,261.7L109.5,262.5L90.5,259.4L78.8,259.7L63.2,262.4L59.1,261.8L53.2,259.4L47,257.6L39.9,256.9L33.7,254.5L37.5,259.1L28.9,263.4L25,264.2L21,264.1L12.5,265.3L4.8,264.7L5.9,267.8L7.9,270.5L6.4,271.6L4.5,272L-10.1,269.9L-12.4,270.3L-14.1,272.2L-19.5,271.2L-20,270.9L-20,212L-20,212L-13,204.8L-18,207.4L-20,208.8L-20,-20ZM820,606.3L815.5,602.8L811,598.1L802.9,595.4L799.2,595.6L797.4,599.1L796.4,606.9L790.2,617.2L788.1,621.7L784.8,627.4L781.7,627.9L779.7,627.3L773.1,617.6L766.9,610.1L766,606.7L765.1,602.3L759.7,586.5L762.5,584.3L765.4,583.1L769.2,579.8L772,577.3L763.7,568.3L760.4,568.3L756.1,572.1L743.2,568.2L740.9,569.8L739.3,572.9L735.2,576.7L729.2,578.4L722.5,582.5L715.5,585.5L710,587.8L706.8,587.3L711.6,582.5L709.3,582.4L702.9,585.8L699.2,588.8L698.3,593.6L697.6,601.7L700.8,603.8L706.8,614.5L713.5,619L712.5,623.4L711.2,626.9L707.5,629.8L704,627.6L702,627.6L701.1,634.7L705.2,653.3L710.5,666.5L715.3,672.2L726,681.2L737,685.9L757.3,701.1L768.1,705.8L771,708.5L778.2,720.1L784.8,733.7L792.2,754.9L797.3,765.5L806.7,777.4L820,789.2L820,888.4L820,888.4L812.8,887.9L810.6,887.5L809.3,889.8L807.7,888.5L807.7,884.7L796.9,867.5L790.1,860.6L786.9,859.3L781.2,860.8L771.2,857.7L765.4,857L762.4,857.8L757.6,860L755.2,858.6L754.2,856.3L745,849.1L733.7,845.1L711.1,822.7L704.1,814.3L690,805.1L680.7,791.6L673.5,786.8L663.2,782.8L660.9,783.2L657.9,784.7L655.6,784.9L653.7,783.2L655.4,781.4L657.5,780.6L656.5,775.6L644.2,762.2L637.2,758.1L635.3,755.4L633.6,751.8L632.1,749.5L628.8,748.1L626.1,748.4L622.3,747.5L622.1,741.1L622.6,736.2L621.8,732.1L617.6,721.3L610.7,712.1L606,690.4L602.6,684.2L595.4,679.5L579.5,674.4L557.2,660.4L552.6,660.2L539.2,654.8L531,653.9L520.8,658.6L508.6,672.1L498.8,686L495.2,688.8L482,693.6L470.2,695.8L459,700.4L455,702.7L439.9,717L432.7,721.2L431.4,723.7L430.1,728.4L426,732.4L422.1,734.3L412.9,736.4L403.5,740.6L399.4,738.8L388.3,738.9L381.4,733.8L368,730.5L363.6,723L357.7,722.6L353.7,722.8L351.4,721.7L350.6,719.1L350.5,716.6L346.5,717.7L343.3,717.7L341.3,718.7L339.9,719.9L338.1,719.1L337.1,719.4L337.3,720.9L333.4,721.2L329.2,720.3L318.3,716.4L316.7,715.8L309.1,714.4L306.1,712.8L303.5,708.9L301.5,707.8L300.4,707L293.5,708.9L291.1,711.9L287.4,715.5L261.7,732.9L257,740.1L251.6,750.9L251.3,755.8L253.9,771.8L259.4,780.3L260.2,782.3L261.5,786.4L264.1,788L265,791.5L260.7,793.4L258,793.7L257.4,799.8L258.5,801.6L261.1,803.2L261.8,805L262.5,814.1L257.6,819.5L250.4,825.7L215.9,845.4L207.7,855L204.6,857.1L178.8,863.2L160.6,869.7L151.9,872L141.1,883.2L136,887.8L140.2,889.1L144.9,894.5L143.3,896.9L136.4,900.5L133.3,901.7L131.7,901.1L130.1,901.6L118.5,921.1L107.9,935.3L102.1,941.4L96.3,950.6L83.4,974.4L83.3,981.3L89.6,1005L93.1,1011.3L98.3,1016.5L105.9,1020L-20,1020L-20,722.4L-15.9,724.1L-8.9,724.5L1.3,723L9.5,719.4L11.1,719L19.2,717.1L26.5,708.9L33.7,679.5L38.9,645L42.5,638.6L47.1,636.7L43.4,632.1L41.1,634.4L40.2,636.9L38.9,638.3L41.8,606.8L43.8,595.2L47.2,583.3L54,588L59.6,592.8L62.6,597.1L66.3,611.1L68.9,614.1L73.1,616.9L71.5,613.7L68.5,611.3L64.2,592.6L61.4,587.3L57.1,583L43.1,573.6L41.7,571.8L41,568.3L45.7,568.4L49.8,570.1L49.2,568.2L48,566.1L46.3,558.6L44.9,541L45.1,537.9L44.4,534.2L39.8,533.5L36.4,533.3L32.5,531.9L13.4,521.5L7.1,510.9L0.4,503.1L-1.1,499.7L-0.9,496.2L2.6,489L-0.4,484.3L-3.4,483.5L-5.9,481.2L-3.5,477.4L-1.5,475L2.3,474.3L7.5,475.2L12.3,477.3L16,477.9L4.9,472.1L-13.3,474L-17.3,473.2L-20,472.2L-20,466.4L-20,466.4L-19.1,465.7L-16.8,462.1L-19.3,459.6L-20,459.4L-20,391.7L-20,391.7L-16.6,389.8L0.9,390L4.5,393.8L5.9,390.6L9.2,386.8L11.8,388.5L13.1,390.8L31.5,390.2L34.4,389.6L29.4,386.8L25.6,380.2L24.9,356.1L19.9,349.4L14.2,338.7L11.6,332.4L11.4,330.2L12.3,327.1L19.4,327.2L24.9,328L35.4,325.6L40.5,327.3L40.2,332.2L41.6,338.5L43.5,341.4L46,344.9L54.6,344.5L63.8,346.5L75.4,346.9L92.2,350.4L99.4,348.3L106.4,344L119.7,341.2L120.9,339.7L113.2,340.3L106,337.6L105.2,334.6L106,332L108.8,325.9L129.1,316.3L143.6,313.4L158.6,308.2L166.2,302.7L171.2,295.7L172.9,294.2L174.9,292.9L172.9,290.4L174,263.9L175.4,259.2L178.3,255.2L182.8,252.3L189.5,249L214.3,244.4L218,242.7L238.1,232.8L250.3,227.6L256.1,226.1L259.6,225.2L267.3,224.8L273.2,226.6L281,227.4L287,225L291.7,227.1L296.9,225.6L292.8,224.7L286.5,222.2L278,224.3L271.9,221.8L267.1,221.6L263.9,219.7L260.6,216.5L262.9,214.3L265,213.6L274.1,213.2L280.8,214.6L292.9,221.5L295.9,221.4L299.1,220.6L297.3,218.6L294.3,217.7L289.9,215.9L286.3,213.2L294.5,212.4L293.3,211.1L292.2,208.7L283.3,200.7L284.7,198.5L286.8,193.8L289.4,189.9L291.5,188.9L295.1,186.2L302.5,178.1L307.3,171.5L310.7,163.8L315.4,142.5L316.9,138.9L319.3,134.9L322.6,135.7L324.8,136.8L332.6,133.8L346.1,126L349.8,119.2L353.6,116.1L369.1,110L377.6,108.2L390.9,107.7L400.6,106.6L412.1,106.2L416.7,110L419.3,112.8L423.5,114.3L430,115.3L427.8,112.8L423.2,110L423.9,104.1L425.1,99.6L429.3,94L432.8,92.5L448.6,91.6L465.9,92L473.6,100.3L471.2,104.7L475.4,106.7L477.5,106L478.8,102.2L479.5,98.1L480.9,96.8L486.6,99.9L488.7,102L489.1,108.9L490.5,99.6L488.6,93.1L489.2,86.9L491.3,83.5L493.2,81.4L506,83.7L520,82.5L525.4,85L538.2,97.2L542.3,99.1L547.5,99.7L540.4,97.2L524.8,82.4L520.4,80.5L513.6,80.1L509.2,78.6L506.5,76.3L505.7,74.3L504.9,59.6L502.2,57.4L498.8,56.6L496.9,57.6L492.8,57.7L491.8,54.4L492.6,51.8L500.9,50.2L506.1,47.9L506.2,43.9L502.4,40.8L498,35.1L492.7,29.7L491.1,18.8L489.9,15.5L486.6,10.5L490.9,9.4L489.5,-0.3L487.6,-5.3L475.1,-10.4L465.1,-15.3L465.5,-20L542.5,-20L542.5,-20L540.4,-18.2L538.8,-15.8L534,-13L531.2,-9.4L532.9,-5L533.9,-1.1L535.6,3.2L534.6,6.6L528.7,11.5L526.8,15.9L532,15.8L535.5,16.8L537.5,18L539.6,19.9L538.4,22.1L540.9,28.8L547.5,30.4L550.4,32.7L553.8,36.3L554.5,41.6L550.8,45.3L547.7,47.6L560.1,46.7L561.6,48.9L563.5,51.2L570.1,49.6L587.5,56.4L597.5,53.1L600.1,52.9L602.8,58.5L600.7,64.1L592.1,70.1L594.5,73.8L597.4,74.6L605.9,73.8L619.6,77.5L622.3,76.4L632.6,67.9L636.7,66.2L651,64.8L653.3,61.5L658.8,58.3L662.2,54.8L670.6,47.9L679.9,49.2L685.4,50.5L691.5,51.2L697.6,58.4L711.9,66.4L724.4,65.7L729.6,73.3L732.5,82.7L736.8,85.7L740.2,87.6L750.8,89.6L762,93L766.5,94.9L765.8,92.8L764.7,91L765,88.4L764.2,84.4L754.7,82.4L746.4,81.5L740.8,82.1L735.2,81.2L733.7,77.9L734.3,74.5L731.8,72.4L729.6,71L729,69.1L729.2,67.1L739.4,72.5L747.7,77.2L749.6,78.3L755.8,78.7L770.3,73.3L795.6,66.5L820,60.6L820,606.3ZM738.9,-20L740.8,-17.3L744.4,-11.4L737.7,-4L733.5,-3.8L721,-5.8L699.6,-1.2L679.7,-4.9L681.7,-8.8L681.4,-11.6L682,-16L682.2,-20L738.9,-20ZM802.8,895.5L800.6,896.1L799.3,895.4L798.5,894.3L799.2,891.8L803.9,893.3L803.8,894.7ZM389.8,102.2L383.5,104.2L381.8,103.8L382.3,103.2L387.8,102ZM371.5,105.2L362.5,106.1L359.3,105.4L358.8,104.8L361.3,104.4L369,104.3L371.3,104.9ZM334.2,113.9L325.8,118L325.1,117.4L330.4,113.8ZM344,109.4L339.7,109.9L337.7,109.1L348,106.8L354.4,106.1L355.6,106.4ZM-20,337.7L-19.3,337.7L-18.8,338.5L-18.8,338.5L-20,341.1L-20,337.7ZM4.3,354.3L4.6,357.4L2.5,358.1L0.8,357L-2.7,357L-6.2,357.7L-5.2,352.2L1.2,352.9ZM781,16.8L779.5,17.8L771.8,16.2L762.3,12.3L763,4.7L764.9,1.5L782.4,10L782.9,13.2ZM722.5,52.7L724,56.5L722.9,58.4L717.5,55.3L712.3,55.3L709.8,60.3L707.6,60.5L699.1,56L697.8,53.7L697.3,51.9L697.8,45.6L697.5,43.6L699.7,41.5L699.7,38.3L703.8,35L707.7,34.9L709.3,37.7L711.3,39.6L718,41.8L719.1,42.7L719.9,44.1L717,46.7L716.2,48.1L717.4,50.4ZM666.7,20L665.2,20.8L658.1,20.1L650.7,24L647.6,22.9L648.6,20.3L649.3,19.5L651.8,18.4L653.4,16.8L653.9,14.4L655.6,15.8L660.5,16.3L662.9,17L664.9,18.2ZM668.8,-15.1L664.8,-12.8L663.8,-12.9L662.1,-16.2L664.2,-18.1L665.3,-19.7L666.3,-19.7L667.7,-17.9ZM613.4,24.1L621.9,27.6L627.2,27.4L630.9,28.8L632.1,31L632.8,36L629,37.5L624.8,37L619,38.8L599.3,30.7L599.1,24L599.5,21.4L608.6,20.7ZM574.1,26.6L571,27.1L567.5,26L561.5,21.3L560.7,20.1L563.7,20.9L567.6,23.4L570.6,23.8L574.8,25.9ZM554.7,24.4L550,25.2L547.7,23.8L543.1,23.4L541,14.7L541.3,14.2L543.6,14.8L551.5,18.8L554.4,23.2ZM585.7,32L583.8,32.3L580.7,27.8L580.2,26.4L583.3,23.4L585,20.1L589.9,15.1L592.5,9.2L593.7,9.3L592.8,14.6L587,29.3ZM612.2,50.8L605.2,50.9L602.4,48.6L599.6,48L600.8,45.2L602.7,44.2L609.5,46.1L611.9,49.6ZM475.8,30L474.9,31.1L474.9,23.2L479.3,14.8L481.4,15L479.4,17.2L478.9,18.8L478.2,22L478.7,23.6L490.1,24.1L488.9,25.6L477.4,26.6ZM42.6,559.9L40.8,565.3L37.7,560.3L33.4,555.8L32.5,551.8L32.5,550.7L37.6,553.6ZM50.1,266.8L46.1,268.9L44.9,271.2L43.9,272.2L41.3,272.8L38.8,272.9L29,268L26.7,268.2L28.9,266L35.1,264.2L38.5,261.8L46.4,264.1ZM324.5,127.5L320,131.6L317.1,130.4L316.4,129.5L317.7,126.3L324.3,121ZM616.8,754.6L618.5,757.1L618.8,758.5L617.8,760.2L618.5,763.9L614.1,760.8L607.9,762.4L604.1,762L602.9,759.3L603.7,757.6L609.6,757.3L611.5,756.5L615.1,756.8ZM532,1004.6L529.3,1011.3L526,1006.6L525.7,1002.5L526.2,1001.4L529.9,1003.1ZM516.9,873.5L515.4,876.5L513,876.2L513.8,874.1L515.8,869.6L518.5,868.1L519.6,869.4L518.5,872ZM317.6,952.9L316.8,953.7L301.1,946L296,945.1L294.7,944L294.8,939.9L295.1,938.2L305.5,937.4L313.9,940.2L318.6,947.9L319,949.2ZM173.7,1014.7L171.9,1018.7L164.2,1017.3L162.3,1015.6L163.9,1010.9L166.3,1010.3L166.3,1007.1L168.7,1003.7L179.7,1001L182.2,1003.4L182.8,1006.6L176.3,1013.7ZM820,619.7L819.5,619.8L816.5,617.4L815.6,615.4L810.5,614.7L807.2,612L806.6,610.8L810.6,607.7L812.5,602.7L815.5,605.7L819.5,611.3L820,611.7L820,619.7ZM820,631.4L819.1,629.7L819.5,628.2L820,627.1L820,631.4ZM811.3,638.7L811.1,641.1L807.9,638L805.9,632.4L801.4,623.3L800.7,620.8L802.5,618.3L802.2,615.7L799,607.8L801,606.6L802.4,606.4L803.4,611.9L804.8,615.1L808.7,618.9L808.5,625.3L809.9,634.5L810.8,636.5ZM283.4,204.9L288.2,208L289,209L289.4,210.2L283.7,211.4L277.5,207.5L273.5,208.4L271.9,206.6L271.9,205.4L276,204.5ZM488.8,34.2L487.1,35.5L482.8,35.3L480.3,34.1L481,32.7L483.2,31.6L485,31.4L488,32.1ZM407.9,98.2L403.8,98.4L404.9,96.9L408.8,95.7L410.9,95.7Z" fill="none" stroke="#000" stroke-width="1" stroke-opacity=".55"/><circle cx="398.1" cy="541.3" r="6" fill="#C04430"/><path d="M408.1 560.9 A22 22 0 1 1 420.1 542.0" fill="none" stroke="#C04430" stroke-width="3" stroke-linecap="round"/></svg>